<svg width="203" height="263" viewBox="0 0 203 263" fill="none" xmlns="http://www.w3.org/2000/svg">
<path d="M120.08 148.768C120.852 150.769 121.14 152.853 121.48 154.93C121.566 155.453 122.024 155.718 122.471 155.977C125.288 157.614 127.107 160 128.39 162.767C128.823 163.722 129.434 164.599 130.195 165.358C134.352 169.501 137.315 174.539 138.812 180.012C140.887 187.363 140.894 194.757 139.773 202.212C139.757 202.411 139.723 202.608 139.669 202.802C139.535 203.194 139.698 203.818 139.103 203.883C138.651 203.934 138.486 203.389 138.261 203.065C135.366 198.928 131.802 195.277 128.388 191.52C127.618 190.675 127.385 191.059 127.035 191.822C125.477 195.288 123.589 198.62 121.394 201.78C121.169 202.096 121.02 202.637 120.51 202.529C120.012 202.426 120.102 201.888 120.044 201.507C119.591 198.577 118.641 195.753 117.809 192.91C116.976 190.062 115.98 187.257 115.047 184.436C114.948 184.14 114.932 183.802 114.608 183.566C114.088 183.74 114.06 184.235 113.86 184.598C109.986 191.63 105.418 198.248 99.4158 203.897C94.9752 208.075 89.5486 210.992 83.7125 213.256C82.6372 213.674 81.5726 214.121 80.4858 214.507C79.2709 214.94 79.0054 214.737 79.2702 213.519C79.9894 210.195 80.7318 206.874 81.4974 203.557C83.0867 196.773 84.5749 189.968 86.3637 183.221C87.8204 177.725 90.1825 172.641 93.8327 168.074C95.9937 165.372 98.6496 163.318 102.152 162.222C103.195 161.882 104.303 161.746 105.406 161.822C106.509 161.898 107.583 162.185 108.559 162.665C109.425 163.066 109.812 162.896 109.949 162.013C110.183 160.515 110.537 159.03 110.728 157.524C110.946 155.809 109.507 153.782 107.835 153.197C107.311 153.013 107.1 153.298 106.886 153.584C104.048 157.378 100.074 157.953 95.6193 156.837C89.3718 155.272 83.9399 152.256 79.0244 148.453C73.8123 144.42 69.3525 139.668 64.5284 135.262C63.0898 133.995 61.5679 132.81 59.9712 131.714C59.7083 131.525 59.2844 131.383 59.3678 131.009C59.4511 130.635 59.888 130.639 60.2222 130.609C69.5415 129.711 78.8033 129.462 87.773 132.62C92.8053 134.391 97.6697 136.469 101.766 139.758C104.854 142.238 107.539 145.155 107.737 149.09C107.849 151.348 108.593 152.877 110.575 154.015C110.682 154.078 110.783 154.15 110.894 154.224C111.319 153.982 111.211 153.586 111.236 153.255C111.584 148.314 111.071 143.354 109.715 138.564C108.296 133.444 105.825 128.663 104.321 123.589C103.747 121.653 102.867 120.67 100.652 120.18C96.865 119.343 94.1853 116.787 91.5319 114.289C86.7455 109.785 83.7285 104.314 81.1308 98.5732C79.153 94.2008 77.5576 89.6749 75.0807 85.497C74.8355 85.0855 74.6796 84.4521 74.168 84.4156C73.5685 84.371 73.5109 85.0653 73.2822 85.4615C69.7995 91.5399 64.3021 95.0015 57.1046 96.6075C49.8232 98.2225 42.3615 99.0434 34.8731 99.0531C30.148 99.0577 25.4452 98.4588 20.899 97.2734C19.6423 96.9495 19.4924 96.5363 20.3694 95.7456C26.2729 90.4143 32.0219 84.9288 38.5691 80.2394C42.8705 77.1571 47.6186 74.9593 52.9584 73.8939C53.2389 73.8223 53.5154 73.7378 53.7867 73.6407C53.4182 73.0553 52.794 72.9274 52.2986 72.6865C46.7429 69.9715 42.9372 65.7165 39.8371 60.8096C36.6316 55.7333 34.0393 50.3919 31.58 44.9868C30.1075 41.7508 28.6334 38.5179 27.518 35.1565C27.3582 34.6783 26.9281 34.1345 27.3292 33.6851C27.773 33.1871 28.3795 33.636 28.8936 33.7474C32.6062 34.545 36.4134 34.8186 40.1398 35.5639C51.0958 37.7579 60.7648 42.2096 68.8445 49.4061C73.1137 53.21 75.0402 57.9693 74.7553 63.4416C74.6345 65.3226 74.07 67.1569 73.1013 68.8165C72.7931 69.3635 72.6984 69.827 73.263 70.3115C75.5989 72.3116 78.1128 74.1381 80.2118 76.5723C80.4496 76.0996 80.5831 75.5881 80.6044 75.0676C80.6257 74.547 80.5344 74.0278 80.3359 73.5401C79.2548 70.7639 78.1679 67.9794 77.6516 65.0541C76.5149 58.6146 78.4599 52.8116 82.0468 47.3675C83.5512 45.1251 85.318 43.0415 87.3155 41.1543C87.598 40.9096 87.7975 40.5947 87.8899 40.2476C87.9822 39.9005 87.9634 39.5363 87.8357 39.199C86.9695 36.1923 86.1065 33.1872 84.5409 30.4041C84.3575 30.0796 84.1156 29.6923 84.5613 29.4563C85.0808 29.1823 85.3555 29.6301 85.5595 29.966C86.293 31.1413 86.8962 32.3818 87.3601 33.6686C87.8931 35.2282 88.4909 36.7702 89.0189 38.3313C89.2545 39.026 89.588 39.1679 90.1993 38.6788C93.6707 35.8906 97.7934 33.9388 101.387 31.3049C102.365 30.589 102.888 30.854 103.128 32.1482C103.869 36.1551 103.662 40.1745 103.365 44.2017C103.027 48.9928 101.672 53.6767 99.3789 57.9882C98.1569 60.3711 96.6398 62.6158 94.858 64.6773C94.3569 65.2435 94.2802 65.6811 94.5314 66.4568C95.0208 67.9718 95.1572 69.5856 95.4109 71.1607C96.383 77.1916 97.3484 83.2245 98.3073 89.2594C98.4181 89.9497 98.5953 90.574 99.2765 91.0024C101.969 92.6954 104.353 94.7212 106.599 96.8902C106.779 97.0507 106.969 97.2021 107.166 97.3437C107.608 97.0509 107.469 96.6597 107.528 96.3258C108.557 90.6693 108.758 84.8821 110.678 79.3645C113.23 72.0284 116.937 65.192 121.289 58.6355C122.532 56.7625 123.757 54.8849 125.142 53.0942C125.966 52.0295 126.183 52.0004 126.951 53.0987C129.181 56.2852 131.007 59.6819 133.034 62.974C137.813 70.735 138.771 79.0726 137.814 87.7512C137.263 92.9934 136.331 98.1958 135.026 103.324C134.957 103.587 134.737 103.915 134.99 104.115C135.34 104.393 135.615 104.003 135.883 103.859C143.774 99.634 151.932 95.847 160.313 92.5184C162.453 91.6632 164.543 90.6975 166.597 89.672C167.109 89.4154 167.656 88.7342 168.319 89.2087C168.863 89.5986 168.531 90.2615 168.453 90.7953C167.93 94.3584 166.816 97.8266 165.152 101.079C161.231 108.842 155.809 115.613 149.09 121.496C146.7 123.59 144.062 125.399 141.031 126.677C139.954 127.093 138.817 127.36 137.655 127.472C132.179 128.183 126.961 127.343 122.01 125.133C121.03 124.696 120.43 124.922 119.556 125.366C116.658 126.836 115.065 129.079 114.324 131.974C114.049 133.063 113.66 134.125 113.161 135.145C112.262 136.962 112.818 138.55 113.825 140.125C114.637 141.352 115.617 142.477 116.741 143.473C118.305 144.909 119.863 146.349 121.416 147.793C121.789 148.142 122.128 148.495 122.748 148.295C124.013 147.885 125.318 147.58 126.523 147.022C127.055 146.776 127.311 146.453 127.162 145.878C126.455 143.137 127.839 141.041 129.777 139.219C133.218 135.978 137.581 134.384 142.349 133.768C149.499 132.845 156.678 133.068 163.849 133.585C164.26 133.615 164.819 133.526 164.988 133.97C165.134 134.357 164.647 134.571 164.391 134.824C162.355 136.836 160.476 138.984 158.299 140.872C155.183 143.576 151.567 145.596 147.832 147.476C145.442 148.678 143.15 150.037 140.494 150.733C136.763 151.711 133.223 151.511 129.941 149.447C129.764 149.335 129.604 149.196 129.423 149.09C128.744 148.691 128.418 147.618 127.544 147.769C126.158 148.008 124.827 148.545 123.487 148.994C123.013 149.153 123.148 149.495 123.395 149.767C124.173 150.622 124.941 151.486 125.76 152.308C126.312 152.865 127.053 152.656 127.724 152.545C139.007 150.672 148.744 153.652 157.184 160.573C159.87 162.775 162.316 165.208 164.269 168.018C165.15 169.284 164.995 169.596 163.398 169.706C159.305 169.99 155.285 170.948 151.139 170.784C144.469 170.521 138.354 168.877 133.198 164.787C130.713 162.815 129.114 160.272 127.791 157.56C127.278 156.507 126.826 155.427 126.331 154.366C126.236 154.102 126.081 153.86 125.876 153.656C124.01 152.159 122.401 150.432 120.675 148.809C120.584 148.724 120.483 148.649 120.386 148.57L120.088 148.768L120.08 148.768ZM81.7124 79.2442C82.5994 81.6588 85.4167 84.7219 87.5985 85.4519C90.1855 86.3543 92.7086 87.4048 95.1533 88.5974C95.4738 88.7483 95.819 89.1189 96.1973 88.8254C96.4943 88.5948 96.2714 88.2219 96.2234 87.9161C95.2256 81.5726 94.2259 75.2289 93.2242 68.8848C93.1515 68.4201 93.2625 67.7901 92.7515 67.597C92.1806 67.3819 91.8626 67.9926 91.5484 68.3268C89.0413 70.9767 86.0119 73.1642 82.6209 74.7734C82.2228 74.967 81.8741 75.2135 81.7866 75.6368C81.5318 76.8968 81.4518 78.1635 81.7149 79.2434L81.7124 79.2442ZM106.53 124.318C107.613 127.258 109.026 130.083 109.994 133.061C110.077 133.31 110.087 133.686 110.457 133.71C110.828 133.735 110.896 133.373 111.012 133.133C111.609 131.896 112.248 130.674 112.757 129.406C113.296 128.068 114.223 126.865 114.397 125.403C114.722 122.632 112.988 120.668 111.294 118.692C110.88 118.209 110.473 118.484 110.049 118.718C108.83 119.397 107.608 120.083 106.227 120.456C105.461 120.662 105.313 121.064 105.575 121.717C105.919 122.575 106.213 123.452 106.527 124.319L106.53 124.318ZM112.717 141.403C112.376 142.266 112.563 142.814 112.626 143.355C112.893 145.693 113.077 148.042 112.906 150.385C112.804 151.744 113.119 152.747 114.348 153.56C114.964 153.968 115.437 154.576 115.928 155.129C117.407 156.8 117.379 156.768 119.517 155.904C120.465 155.521 120.693 154.973 120.487 154.11C120.225 153.025 120.088 151.908 119.769 150.838C119.326 149.347 119.098 147.708 118.001 146.517C116.398 144.778 114.302 143.464 112.721 141.407L112.717 141.403ZM66.3532 74.5297C68.1665 75.4517 69.8538 76.0718 71.2279 77.0587C73.5724 78.7431 76.1926 79.3074 79.0495 79.3393C79.3763 79.3419 79.7822 79.57 79.9953 79.2215C80.1831 78.9161 79.9093 78.6144 79.7439 78.3398C79.5961 78.0961 79.4321 77.8609 79.253 77.6357C77.3371 75.1853 74.7271 73.3734 72.3789 71.3241C71.8701 70.8803 71.4236 71.1065 71.0389 71.4954C69.7668 72.8433 68.1577 73.8851 66.3507 74.5305L66.3532 74.5297ZM115.731 123.005C116.79 120.565 117.844 118.45 118.561 116.207C118.758 115.593 118.315 115.346 117.809 115.139C116.626 114.656 115.388 114.283 114.296 113.621C113.765 113.297 113.511 113.555 113.382 114.032C113.103 115.036 112.671 115.999 112.098 116.892C111.967 117.077 111.91 117.298 111.937 117.517C111.964 117.736 112.073 117.94 112.246 118.093C113.665 119.561 114.84 121.216 115.73 123.002L115.731 123.005ZM112.85 153.53C112.473 156.741 112.124 159.696 111.516 162.618C111.176 164.247 111.447 164.739 113.184 165.745C113.762 163.003 114.898 160.387 116.532 158.035C116.615 157.916 116.653 157.776 116.641 157.636C116.629 157.495 116.566 157.363 116.464 157.258C115.473 155.966 114.433 154.715 112.847 153.53L112.85 153.53ZM117.381 124.669C118.503 124.505 119.515 123.951 120.207 123.12C122.092 120.776 123.488 118.162 124.817 115.522C124.901 115.355 124.973 115.091 124.887 114.96C124.722 114.701 124.429 114.875 124.187 114.927C123.178 115.142 122.178 115.403 121.158 115.559C120.485 115.66 120.217 115.978 120.068 116.549C119.462 118.879 118.515 121.108 117.663 123.363C117.514 123.759 117.232 124.144 117.379 124.67L117.381 124.669ZM83.2924 83.9616C82.3266 83.096 82.1224 81.7556 80.8678 81.1357C79.3659 80.3927 77.7072 80.4176 76.0805 80.4704C75.1353 80.4997 75.0722 81.3673 74.9464 81.9943C74.8018 82.713 75.54 82.634 75.9983 82.7349C77.9211 83.1586 79.848 83.5684 81.779 83.9643C82.2168 84.0538 82.6555 84.3122 83.2899 83.9623L83.2924 83.9616Z" fill="#CDE998"/>
<path d="M23.8289 159.895C24.7935 160.99 25.7743 162.074 26.7156 163.185C27.4237 164.038 28.3029 164.758 29.3057 165.308C30.6048 166.011 31.8706 166.766 33.1837 167.446C35.4377 168.613 37.0466 170.334 38.3099 172.359C38.7221 173.021 39.1347 173.68 39.781 174.163C43.2063 176.731 45.106 180.151 46.4733 183.927C47.43 186.574 47.8845 189.321 48.4639 192.028C49.1168 195.082 50.0373 198.101 50.3981 201.202C51.0013 206.371 52.5124 211.32 54.2972 216.234C54.9802 218.143 55.838 219.996 56.8615 221.772C57.1976 222.351 57.5043 223.257 58.3899 223.072C59.2022 222.903 58.7791 222.049 58.8171 221.496C59.1787 216.205 58.6604 210.932 58.3547 205.655C58.0704 200.754 57.7299 195.853 57.5837 190.945C57.5329 188.429 57.2584 185.92 56.7631 183.444C56.4229 181.821 56.5747 180.174 56.9119 178.563C57.3449 176.494 57.2633 174.499 56.3029 172.554C56.1361 172.241 56.0541 171.896 56.0641 171.548C56.2755 169.068 56.417 166.559 58.01 164.408C59.0024 163.068 59.6141 161.6 59.6038 159.992C59.5915 158.214 60.4005 156.772 61.4387 155.379C63.4465 152.685 65.2692 149.873 67.639 147.411C68.9212 146.078 69.3666 144.362 69.8694 142.69C69.9962 142.271 70.1826 141.871 70.3375 141.472C70.8191 141.514 70.7328 141.834 70.7904 142.047C72.2381 147.342 74.353 152.362 77.89 156.815C80.9094 160.616 82.2747 164.848 82.459 169.594C82.561 172.246 81.7877 174.599 81.2181 177.07C80.1396 181.76 78.169 186.208 76.8997 190.843C76.7003 191.479 76.4189 192.091 76.0614 192.665C74.8772 194.728 73.8432 196.826 73.1815 199.105C72.5184 201.393 71.1522 203.437 69.9061 205.498C68.4734 207.869 67.0282 210.214 66.4058 212.912C66.2171 213.715 65.9017 214.487 65.4696 215.206C64.2108 217.306 63.9441 219.702 63.0327 221.905C62.8374 222.375 62.4398 223.163 63.0944 223.437C63.6924 223.688 64.1003 222.953 64.4725 222.52C68.2884 218.099 71.7536 213.466 74.438 208.373C76.2867 204.862 78.2963 201.425 80.1665 197.923C81.6972 195.053 83.4231 192.25 85.0813 189.427C86.4005 187.182 86.9289 184.775 87.4492 182.339C87.7449 180.968 88.5492 179.735 89.7247 178.85C92.2157 176.88 94.3301 174.704 95.4358 171.736C96.037 170.125 97.5537 168.99 99.0914 168.01C101.607 166.406 104.505 165.612 107.359 164.732C109.575 164.048 111.736 163.265 113.587 161.906C113.787 161.759 113.993 161.485 114.292 161.656C114.55 161.801 114.401 162.058 114.335 162.259C113.388 165.199 113.715 168.11 114.512 171.023C115.235 173.656 115.216 176.335 114.871 178.999C114.483 181.998 113.95 184.984 113.493 187.976C113.197 189.913 112.378 191.615 111.198 193.26C108.014 197.705 103.569 200.868 98.9137 203.841C93.9967 206.98 88.8193 209.784 84.1283 213.214C80.2159 216.073 75.9722 218.507 72.1021 221.413C70.4358 222.666 68.8851 224.055 67.0586 225.125C66.9478 225.2 66.8502 225.29 66.769 225.392C66.5588 225.629 66.1879 225.858 66.3981 226.195C66.5949 226.512 67.0098 226.425 67.3415 226.365C70.4986 225.786 73.6765 225.246 76.6712 224.132C81.9424 222.176 87.2552 220.232 92.0556 217.421C96.7869 214.652 101.714 212.165 106.232 209.081C109.302 206.987 112.335 204.811 115.97 203.525C117.269 203.033 118.665 202.796 120.07 202.829C120.987 202.863 121.002 203.191 120.874 203.904C120.317 206.986 118.598 209.54 116.666 212.002C115.872 213.014 115.249 214.056 115.131 215.341C115.06 216.132 114.636 216.823 114.052 217.439C112.026 219.57 110.125 221.815 107.229 223.065C105.861 223.656 104.494 224.24 103.013 224.537C98.7662 225.385 94.4843 226.098 90.2726 227.064C86.0046 228.043 81.6608 228.519 77.3214 229.007C74.5731 229.315 71.7864 229.173 69.017 229.065C68.4056 229.042 67.5055 228.874 67.3959 229.472C67.2695 230.162 68.2669 230.123 68.788 230.257C72.5792 231.23 76.4814 231.323 80.3841 231.425C83.2562 231.501 86.0248 230.96 88.8253 230.507C92.4321 229.921 95.954 228.969 99.5883 228.512C99.9095 228.47 100.237 228.495 100.546 228.585C100.856 228.675 101.139 228.828 101.376 229.033C101.501 229.13 101.715 229.289 101.692 229.371C101.44 230.258 102.005 230.865 102.488 231.513C102.787 231.915 102.528 232.162 102.137 232.322C100.325 233.064 98.7711 234.068 97.6346 235.622C97.0184 236.465 95.9737 236.919 94.9914 237.373C94.2463 237.701 93.6143 238.211 93.165 238.849C92.4894 239.817 91.4652 240.286 90.2689 240.453C87.3534 240.858 84.5234 240.714 81.7012 239.736C79.4363 238.952 77.3549 237.889 75.2538 236.833C74.8495 236.596 74.4263 236.388 73.9878 236.209C71.0633 235.248 68.4477 233.742 65.7888 232.313C65.4939 232.155 65.1735 231.935 64.8708 232.257C64.6108 232.534 64.8296 232.804 65.0199 233.019C67.4847 235.799 69.7376 238.749 72.6739 241.152C74.2625 242.452 75.8957 243.706 77.1168 245.331C77.9759 246.475 78.5938 247.685 78.1953 249.133C78.1633 249.351 78.0938 249.563 77.9893 249.762C76.3578 252.011 76.5643 254.449 77.1236 256.916C77.3031 257.708 76.9754 257.887 76.2023 257.718C74.773 257.402 73.3391 257.103 71.9068 256.793C71.7701 256.78 71.6387 256.737 71.5235 256.668C69.653 255.089 67.088 254.402 65.7871 251.999C64.7222 250.033 63.3692 248.127 62.3031 246.141C60.9003 243.53 60.4612 240.634 60.1755 237.726C60.0002 235.654 60.129 233.57 60.5584 231.53C60.8655 229.939 59.9933 229.204 58.2625 229.543C57.3254 229.725 56.3959 229.939 55.4739 230.183C52.6438 230.941 49.8804 230.456 47.0498 230.04C43.0924 229.459 39.8447 227.316 36.1362 226.227C34.1471 225.643 32.1723 225.02 30.1955 224.398C29.5127 224.183 28.8269 223.936 28.3056 223.464C26.0608 221.43 23.4484 219.76 21.388 217.546C20.9868 217.116 20.4894 216.716 20.2487 216.217C19.0694 213.781 17.269 211.696 15.7993 209.427C15.6009 209.119 15.1823 208.786 15.4464 208.418C15.6837 208.09 16.1444 208.354 16.5067 208.363C17.018 208.375 17.5403 208.488 18.0403 208.428C20.2907 208.153 22.3106 208.91 24.2606 209.714C25.5574 210.249 26.8027 210.794 28.2337 210.877C29.0078 210.922 29.7769 211.116 30.3116 211.609C31.9932 213.16 34.1474 214.013 36.1561 215.076C37.7114 215.872 39.2026 216.77 40.618 217.763C43.9816 220.184 47.866 221.825 51.4997 223.841C52.0267 224.134 52.548 224.436 53.077 224.729C53.3692 224.891 53.6916 225.123 53.998 224.817C54.3093 224.506 54.0275 224.214 53.8146 223.984C52.3679 222.432 50.9384 220.864 49.4396 219.353C46.8071 216.699 44.0622 214.111 41.783 211.209C39.3652 208.133 36.4662 205.457 33.9369 202.481C30.8522 198.827 28.0399 194.986 25.5192 190.983C24.1766 188.869 23.5806 186.475 23.3884 184.039C23.2871 182.768 23.1115 181.533 22.5837 180.358C22.1163 179.303 21.9913 178.146 22.2239 177.028C22.6619 174.64 22.9847 172.245 23.7253 169.9C24.3399 167.957 24.1306 165.902 23.9767 163.891C23.8752 162.582 23.7234 161.276 23.5946 159.97L23.8289 159.895Z" fill="#E6F6C7"/>
</svg>
