<svg width="246" height="278" viewBox="0 0 246 278" fill="none" xmlns="http://www.w3.org/2000/svg">
<path d="M153.358 142.9C151.611 143.913 150.232 145.284 148.857 146.654C147.334 148.171 145.659 149.583 144.358 151.258C142.801 153.264 140.757 154.736 138.912 156.43C137.383 157.832 135.539 158.723 133.554 159.327C130.811 160.159 127.984 160.427 125.094 160.38C123.321 160.353 121.564 160.121 119.796 160.12C118.01 160.113 116.253 160.546 114.698 161.378C110.444 163.662 105.943 164.478 101.116 163.722C99.9422 163.542 98.7978 163.218 97.7106 162.761C95.9709 162.02 94.2289 161.664 92.3787 162.466C91.8335 162.656 91.2547 162.746 90.6736 162.729C89.7084 162.76 89.0916 161.81 89.3423 160.634C89.7241 158.799 90.8025 157.163 92.3725 156.037C94.0145 154.782 95.8889 153.83 97.8997 153.227C101.291 152.237 104.814 151.708 108.364 151.656C111.345 151.627 114.263 151.114 117.14 150.373C119.713 149.712 122.424 149.7 125.006 150.34C128.817 151.244 132.18 150.307 135.246 148.039C137.023 146.724 138.653 145.253 140.393 143.903C143.146 141.767 146.411 140.659 149.745 139.673C151.499 139.152 153.254 138.633 154.908 137.839C157.343 136.67 158.777 134.613 160.157 132.533C162.32 129.203 164.711 126.013 167.315 122.982C168.365 121.785 169.585 120.781 170.741 119.706C171.026 119.424 171.371 119.202 171.753 119.056C172.135 118.91 172.546 118.843 172.957 118.858C174.225 118.913 174.841 119.776 174.286 120.856C173.902 121.605 173.425 122.306 172.866 122.947C171.09 124.973 169.209 126.916 167.467 128.964C165.336 131.47 163.128 133.922 161.419 136.73C160.977 137.425 160.722 138.213 160.676 139.025C160.572 141.867 160.576 144.678 161.949 147.371C163.129 149.692 164.657 151.799 166.016 154.008C168.14 157.405 169.136 161.328 168.874 165.266C168.698 168.176 167.77 170.979 167.47 173.873C167.359 174.602 167.354 175.342 167.455 176.073C168.166 180.031 167.972 183.852 165.777 187.458C164.559 189.458 163.264 191.374 161.614 193.071C160.077 194.655 160.226 196.619 160.216 198.574C160.2 201.38 159.451 203.977 157.01 205.761C156.595 206.046 156.119 206.239 155.616 206.327C155.112 206.415 154.594 206.396 154.099 206.271C153.519 206.122 153.134 205.642 153.444 205.062C154.339 203.399 153.684 201.853 152.983 200.393C151.176 196.629 150.764 192.811 152.064 188.852C152.166 188.543 152.226 188.222 152.302 187.907C152.472 187.187 152.596 186.624 151.813 185.96C150.553 184.889 150.679 183.363 151.832 182.066C151.946 181.969 152.032 181.846 152.081 181.708C152.13 181.571 152.142 181.424 152.114 181.281C151.536 179.156 151.272 176.92 149.737 175.127C149.636 174.998 149.527 174.874 149.411 174.756C149.312 174.692 149.205 174.641 149.092 174.603C148.789 175.465 148.609 176.362 148.557 177.27C148.526 177.695 148.771 177.888 149.124 178.093C150.505 178.889 150.957 180.305 150.279 181.592C149.737 182.618 148.217 183.063 146.873 182.617C146.475 182.503 146.124 182.276 145.866 181.966C145.609 181.657 145.457 181.28 145.432 180.886C145.332 179.863 145.45 178.779 146.49 178.22C147.507 177.675 147.754 176.939 147.799 175.911C147.861 174.461 148.109 173.019 148.288 171.574C148.308 171.416 148.427 171.242 148.256 171.131C148.055 171 147.87 171.121 147.702 171.244C145.855 172.608 144.411 174.326 142.974 176.054C142.692 176.394 142.786 176.626 143.047 176.895C144.075 177.948 144.269 179.1 143.512 180.37C143.288 180.746 143.416 181.14 143.571 181.5C144.534 183.764 145.09 186.143 145.734 188.492C146.403 190.931 146.418 193.405 146.052 195.906C145.607 198.888 145.005 201.846 144.247 204.77C143.966 205.87 143.596 206.949 143.215 208.021C142.9 208.882 142.82 209.805 142.982 210.704C143.555 213.687 143.168 216.763 141.872 219.53C141.434 220.464 141.04 221.563 140.023 222.272C138.56 223.292 137.721 224.855 136.728 226.247C135.776 227.579 136.003 229.228 135.941 230.76C135.84 233.266 135.669 235.745 134.59 238.084C133.859 239.67 132.585 240.683 130.925 241.268C129.836 241.651 129.252 241.373 129.025 240.318C128.791 239.419 128.695 238.493 128.742 237.569C129 234.581 128.843 231.625 127.37 228.836C125.7 225.677 124.761 222.285 124.301 218.797C123.678 214.091 124.416 209.593 126.853 205.393C127.823 203.8 128.694 202.155 129.463 200.465C130.515 198.021 130.81 195.441 130.807 192.847C130.802 188.256 132.082 184.035 134.438 180.065C135.023 179.08 135.494 178.035 135.986 177.003C136.115 176.737 136.355 176.435 136.08 176.088C135.598 176.139 135.453 176.543 135.215 176.829C130.915 181.982 126.551 187.085 121.583 191.675C120.244 192.965 118.816 194.17 117.308 195.28C115.995 196.208 115.449 197.464 115.427 199.061C115.374 202.88 115.985 206.587 116.907 210.299C118.119 215.172 118.865 220.142 118.016 225.13C117.449 228.463 116.827 231.799 115.839 235.063C115.257 236.989 114.719 238.934 114.185 240.875C113.989 241.492 113.746 242.095 113.458 242.678C112.788 244.191 112.214 245.766 111.328 247.16C110.442 248.544 109.333 249.787 108.041 250.843C105.706 252.755 103.938 255.066 102.427 257.579C101.688 258.857 100.835 260.072 99.8761 261.21C99.2186 261.999 98.394 262.647 97.4557 263.114C95.4516 264.076 93.9141 263.398 93.4244 261.305C93.3692 261.084 93.3405 260.858 93.339 260.631C93.3707 257.805 92.6697 255.06 92.281 252.281C91.7312 248.35 92.845 244.805 94.9845 241.458C96.6627 238.83 98.4764 236.282 100.015 233.569C100.906 231.998 101.9 230.478 102.382 228.746C103.113 226.252 103.467 223.67 103.435 221.079C103.397 219.42 103.942 217.889 104.721 216.43C105.024 215.86 105.103 215.463 104.567 214.896C104.331 214.656 104.157 214.367 104.059 214.052C103.962 213.737 103.944 213.404 104.007 213.082C104.07 212.759 104.212 212.455 104.421 212.194C104.631 211.934 104.902 211.724 105.213 211.581C106.419 211.054 106.736 210.208 106.824 209.121C106.895 208.264 106.96 207.409 106.534 206.345C105.695 208.382 104.411 209.945 103.519 211.713C102.942 212.853 103.22 214.139 103.043 215.351C103.027 215.74 102.975 216.126 102.888 216.506C102.489 217.663 102.158 218.681 103.007 219.923C103.733 220.988 102.75 222.53 101.444 222.927C100.095 223.338 99.0677 222.751 98.6072 221.303C98.2293 220.112 98.9609 218.935 100.39 218.593C100.936 218.464 101.123 218.244 101.292 217.738C101.664 216.622 102.079 215.53 101.97 214.331C101.95 214.11 102.04 213.827 101.766 213.73C101.477 213.625 101.365 213.898 101.232 214.08C100.755 214.734 100.311 215.294 100.677 216.261C101.081 217.331 100.058 218.454 98.8456 218.604C97.6149 218.756 96.6933 218.035 96.5446 216.798C96.5267 216.638 96.5379 216.478 96.5355 216.258C96.0405 216.246 95.6357 216.561 95.1398 216.454C94.616 216.353 94.146 216.08 93.8117 215.683C93.4775 215.287 93.3004 214.791 93.3114 214.284C93.3374 213.224 94.1572 212.307 95.3086 212.332C96.4599 212.357 97.2172 211.88 97.9856 211.173C99.0944 210.151 100.452 209.464 101.837 208.815C103.527 208.023 104.946 206.962 105.316 205.05C105.341 204.925 105.348 204.798 105.365 204.671C105.016 204.474 104.842 204.756 104.647 204.883C101.305 207.038 98.0358 209.301 94.6183 211.344C90.5251 213.788 87.5323 217.128 85.2108 221.075C84.633 222.058 84.322 223.196 83.6743 224.127C82.5558 225.733 81.2401 227.211 80.0612 228.783C79.0734 230.118 77.8767 231.301 76.5123 232.293C74.8367 233.457 73.0062 234.407 71.068 235.116C69.537 235.691 67.9541 236.072 66.3963 236.542C62.806 237.665 59.3501 239.141 56.0847 240.947C52.56 242.849 48.7452 243.617 44.7527 243.893C41.7904 244.096 38.8954 244.657 36.1595 245.837C34.911 246.375 33.5803 246.682 32.1844 246.446C31.6534 246.356 31.1529 246.146 30.7256 245.833C30.2983 245.519 29.957 245.113 29.7309 244.648C29.5048 244.182 29.4006 243.672 29.4272 243.161C29.4539 242.649 29.6105 242.152 29.8838 241.711C30.502 240.658 31.391 239.771 32.4682 239.132C34.3578 238.034 36.0716 236.684 37.5577 235.124C39.9914 232.631 42.4878 230.206 45.2777 228.065C48.312 225.736 51.817 224.23 55.3981 222.857C59.1649 221.412 62.862 219.797 66.215 217.619C68.4897 216.088 70.909 214.761 73.4422 213.655C77.4369 211.981 81.6435 211.301 85.9776 211.198C87.6245 211.197 89.2508 210.858 90.7454 210.204C93.0253 209.141 95.2147 207.903 97.4097 206.684C99.9751 205.27 102.423 203.673 104.732 201.905C105.224 201.525 105.794 201.216 106.168 200.453C102.926 201.193 99.6628 200.878 96.7946 202.777C93.5326 204.938 89.9115 206.389 85.7402 206.348C84.0659 206.33 82.5154 205.785 80.8151 205.83C78.4653 205.87 76.1451 206.328 73.9751 207.181C71.4333 208.218 68.7325 208.864 65.9745 209.092C63.1707 209.297 60.577 208.397 58.1108 207.277C55.2727 205.954 52.0348 205.63 48.9738 206.362C46.2648 206.96 43.7597 206.282 41.687 204.434C40.6411 203.502 40.8002 202.887 42.1595 202.418C43.2373 202.086 44.1924 201.469 44.9131 200.639C46.1376 199.219 47.4967 197.908 48.9733 196.724C50.2594 195.641 52.0207 195.039 53.6186 194.324C57.2446 192.704 61.1052 192.203 65.0778 192.352C66.4765 192.404 67.8796 192.607 69.2694 192.542C72.0812 192.408 74.8871 192.135 77.694 191.925C82.401 191.54 87.1364 192.304 91.4506 194.145C92.7841 194.712 94.0511 195.434 95.4615 195.908C96.297 196.189 97.1685 196.918 98.0774 197.217C102.006 198.501 106.05 198.917 109.997 197.497C111.48 196.964 112.792 195.856 113.866 194.617C113.57 194.368 113.351 194.554 113.139 194.592C111.612 194.858 110.769 194.353 110.217 192.829C109.839 191.784 110.526 190.229 111.591 189.763C111.803 189.656 112.044 189.612 112.283 189.638C113.856 189.982 114.815 189.388 115.894 188.237C116.828 187.24 117.754 186.226 118.645 185.188C118.81 184.998 119.111 184.765 118.919 184.519C118.66 184.186 118.369 184.508 118.114 184.625C116.422 185.405 114.722 186.105 112.813 186.318C111.557 186.458 110.795 187.452 110.022 188.279C109.164 189.194 108.468 190.244 107.664 191.209C107.517 191.364 107.417 191.554 107.375 191.758C107.333 191.963 107.35 192.175 107.425 192.371C107.941 193.991 107.426 194.858 105.751 195.251C104.158 195.625 103.018 194.926 102.662 193.366C102.466 192.504 102.651 191.752 103.385 191.176C103.747 190.872 104.197 190.679 104.678 190.623C105.158 190.568 105.645 190.651 106.074 190.864C106.684 191.145 106.938 190.983 107.34 190.582C108.186 189.694 108.937 188.728 109.579 187.698C109.705 187.508 109.907 187.305 109.733 187.084C109.516 186.809 109.242 186.969 109.001 187.09C107.962 187.648 106.864 188.102 105.726 188.444C105.253 188.568 105.164 188.958 105 189.312C104.713 189.906 104.213 190.384 103.59 190.661C102.966 190.937 102.258 190.995 101.593 190.823C100.387 190.463 99.6687 189.263 99.8665 187.954C99.9072 187.531 100.09 187.131 100.389 186.814C100.688 186.497 101.086 186.28 101.525 186.196C102.677 185.904 103.818 185.995 104.477 186.962C105.075 187.838 105.732 187.717 106.351 187.309C108.796 185.693 111.567 184.986 114.443 184.51C114.704 184.467 115.164 184.508 115.127 184.103C115.1 183.805 114.731 183.682 114.435 183.592C112.486 182.981 110.435 182.716 108.385 182.812C108.052 182.83 107.784 182.891 107.642 183.21C107.18 184.248 106.191 184.574 105.163 184.663C104.185 184.75 103.321 185.094 102.417 185.375C97.4503 186.912 92.3802 187.051 87.247 186.331C85.119 186.034 82.9883 185.744 80.8495 185.545C78.1889 185.298 75.6517 184.471 73.0165 184.128C70.8079 183.842 68.62 183.715 66.4918 184.585C65.8966 184.829 65.1851 185.197 64.591 184.581C64.021 183.992 64.2402 183.309 64.506 182.655C64.8108 181.91 64.947 180.952 65.4215 180.451C66.214 179.616 67.0676 178.725 68.1788 178.186C72.2946 176.194 76.3008 174.002 80.5588 172.275C83.4287 171.11 86.3647 171.025 89.391 171.432C92.2687 171.819 95.1897 172.231 97.9838 171.146C101.033 169.963 104.281 169.498 107.426 168.667C108.037 168.505 108.834 168.601 109.543 168.556C114.068 168.271 118.535 168.84 122.971 169.553C124.231 169.756 125.512 170.004 126.775 170.219C128.968 170.594 131.105 169.977 133.196 169.406C134.427 169.042 135.636 168.613 136.816 168.119C137.586 167.814 138.135 167.213 138.657 166.613C139.861 165.246 140.919 163.769 141.816 162.203C144.352 157.725 147.448 153.561 149.866 149.017C150.969 146.948 152.194 144.937 153.362 142.898L153.358 142.9ZM110.047 181.796C111.45 181.926 112.71 181.938 113.926 182.254C114.688 182.453 115.594 182.443 116.191 182.849C117.105 183.47 117.834 183.459 118.826 183.086C121.445 182.101 123.976 180.848 126.832 180.525C127.107 180.502 127.364 180.385 127.555 180.196C128.681 179.042 129.861 177.929 130.923 176.725C131.665 175.882 132.482 175.067 132.917 173.958C131.634 174.647 130.209 174.95 128.922 175.563C126.268 176.827 123.382 177.594 120.42 177.822C119.344 177.91 118.261 177.838 117.179 178.033C115.191 178.39 113.648 179.523 112.007 180.486C111.385 180.849 110.686 181.127 110.047 181.797L110.047 181.796ZM157.453 143.343C157.34 143.456 157.236 143.577 157.14 143.705C155.246 146.565 153.902 149.729 151.716 152.442C150.567 153.871 150.823 155.648 150.798 157.372C150.748 160.626 152.227 163.314 153.913 165.965C154.016 166.123 154.114 166.344 154.353 166.323C154.404 166.315 154.453 166.296 154.496 166.269C154.54 166.242 154.577 166.207 154.605 166.166C154.633 166.124 154.653 166.078 154.661 166.029C154.67 165.981 154.668 165.931 154.655 165.883C154.257 164.679 155.266 163.756 155.335 162.676C155.461 160.683 155.66 158.658 155.435 156.688C155.142 154.108 155.643 151.72 156.62 149.39C157.436 147.448 157.519 145.427 157.454 143.342L157.453 143.343ZM149.052 157.44L148.804 157.387C148.645 157.544 148.501 157.715 148.373 157.897C146.612 160.883 144.744 163.81 142.891 166.744C142.309 167.67 141.609 168.535 141.247 169.619C140.654 171.395 140.902 173.129 141.159 174.89C141.209 175.229 141.282 175.554 141.676 175.648C142.074 175.743 142.206 175.41 142.332 175.161C143.375 173.077 144.846 171.327 146.949 170.155C148.983 169.022 149.429 167.301 149.226 165.264C149.214 165.071 149.212 164.877 149.22 164.684C149.267 162.267 148.897 159.861 149.051 157.44L149.052 157.44ZM112.674 199.3C110.989 200.591 109.406 201.533 108.063 202.776C107.466 203.329 107.25 203.88 107.487 204.68C108.059 206.605 108.038 208.583 107.809 210.552C107.771 210.883 107.38 211.206 107.917 211.416C108.365 211.592 108.587 211.214 108.823 210.949C110.236 209.366 111.235 207.577 111.58 205.517C111.91 203.548 112.032 201.549 112.674 199.302L112.674 199.3ZM125.673 182.482C124.078 183.034 122.39 183.273 121.137 184.548C119.583 186.132 118.245 187.912 116.488 189.309C115.439 190.142 114.604 190.972 115.426 192.366C115.531 192.545 115.286 192.803 115.507 192.934C116.887 192.242 117.51 190.876 118.714 190.012C121.55 187.973 123.433 185.084 125.673 182.484L125.673 182.482ZM151.292 164.296C151.166 166.214 150.417 167.972 150.066 169.806C149.757 171.425 149.664 173.043 150.986 174.621C151.305 172.383 152.264 170.494 152.936 168.513C153.086 168.02 153.052 167.493 152.841 167.021C152.451 166.048 151.673 165.285 151.294 164.296L151.292 164.296ZM97.6278 214.14C97.6623 214.321 97.6716 214.667 97.8713 214.594C98.4761 214.374 99.2776 214.723 99.7017 214.239C100.742 213.05 101.673 211.774 102.628 210.52C102.751 210.356 102.932 210.096 102.714 209.903C102.512 209.724 102.262 209.883 102.052 209.977C100.565 210.628 99.2125 211.526 98.0586 212.629C97.8531 212.823 97.7051 213.064 97.6292 213.33C97.5533 213.596 97.5523 213.876 97.6263 214.143L97.6278 214.14Z" fill="#CEE998"/>
<path d="M219.606 69.3356C218.245 70.2164 216.711 70.7179 215.18 71.2168C213.484 71.7692 211.825 72.4642 210.071 72.8072C207.971 73.2175 206.148 74.1509 204.209 74.8689C202.604 75.4647 201.311 76.4545 200.205 77.6414C198.679 79.2812 197.581 81.172 196.716 83.213C196.184 84.4651 195.822 85.775 195.27 87.0147C194.719 88.2694 193.821 89.3537 192.666 90.1612C189.5 92.3672 187.439 95.2459 186.539 98.8855C186.318 99.7691 186.22 100.681 186.249 101.598C186.301 103.069 186.044 104.411 184.821 105.435C184.498 105.753 184.245 106.128 184.077 106.541C183.751 107.207 184.322 107.962 185.347 108.185C186.942 108.54 188.595 108.34 189.991 107.621C191.514 106.896 192.866 105.906 193.978 104.701C195.834 102.66 197.36 100.371 198.511 97.9002C199.464 95.8206 200.789 93.9498 202.283 92.1845C203.618 90.6058 204.474 88.7094 204.766 86.6827C205.229 83.7048 207.033 81.6653 209.816 80.2861C211.428 79.4869 213.12 78.8439 214.75 78.0822C217.328 76.8778 219.24 74.9654 221.074 72.9638C222.04 71.9104 223.007 70.8568 224.161 69.9668C225.862 68.657 227.965 68.35 230.07 68.0887C233.424 67.7028 236.738 67.1096 239.989 66.3131C241.28 65.9832 242.469 65.4694 243.695 65.0238C244.011 64.9199 244.297 64.7533 244.534 64.5352C244.77 64.317 244.953 64.0521 245.069 63.758C245.42 62.8508 244.919 62.126 243.876 62.1486C243.154 62.1639 242.441 62.2599 241.751 62.4346C239.566 62.9918 237.416 63.651 235.223 64.1768C232.542 64.8197 229.88 65.5349 227.087 65.7797C226.39 65.8539 225.676 65.7654 225.009 65.5217C222.689 64.6299 220.43 63.6732 218.691 61.7972C217.193 60.1823 215.974 58.3966 214.622 56.6938C212.552 54.053 209.707 52.0233 206.457 50.8703C204.061 50.0057 201.516 49.7053 199.094 48.9335C198.473 48.7639 197.876 48.5162 197.319 48.1974C194.357 46.3555 191.223 45.1951 187.636 45.5097C185.646 45.6845 183.701 45.9421 181.82 46.5221C180.066 47.0619 178.531 46.2911 176.956 45.6349C174.693 44.6936 172.37 44.3368 170.173 45.4422C169.814 45.6363 169.51 45.9045 169.282 46.2275C169.053 46.5505 168.907 46.9202 168.853 47.3098C168.792 47.7669 169.058 48.1996 169.621 48.1787C171.239 48.1159 172.278 49.0999 173.234 50.0866C175.698 52.6311 178.64 54.2154 182.232 54.648C182.512 54.6811 182.789 54.7477 183.067 54.8016C183.699 54.9267 184.19 55.031 184.48 55.805C184.948 57.0516 186.215 57.4809 187.619 57.1132C187.733 57.0663 187.859 57.048 187.984 57.0602C188.11 57.0723 188.232 57.1143 188.339 57.1823C189.868 58.3082 191.584 59.2522 192.547 60.9363C192.62 61.0512 192.685 61.1695 192.744 61.2906C192.765 61.3817 192.772 61.4743 192.767 61.5662C191.979 61.4865 191.202 61.3083 190.455 61.0363C190.103 60.9136 190.024 60.6768 189.97 60.36C189.76 59.1211 188.762 58.3244 187.515 58.3629C186.52 58.3941 185.688 59.3084 185.627 60.4023C185.595 60.7195 185.668 61.0428 185.836 61.3283C186.005 61.6139 186.261 61.848 186.569 61.9989C187.361 62.4166 188.271 62.7023 189.045 62.1624C189.801 61.6351 190.471 61.7116 191.311 62.0289C192.497 62.4776 193.735 62.7929 194.953 63.1583C195.087 63.1978 195.263 63.1735 195.3 63.3312C195.342 63.5165 195.187 63.6045 195.036 63.6806C193.362 64.5122 191.529 64.9413 189.69 65.3619C189.328 65.4443 189.171 65.2997 189.036 65.0255C188.51 63.948 187.643 63.4206 186.385 63.5198C186.012 63.5496 185.736 63.3259 185.495 63.0954C183.974 61.6524 182.234 60.4552 180.545 59.2065C178.791 57.9097 176.805 57.0595 174.679 56.4675C172.141 55.767 169.573 55.185 166.984 54.7239C166.012 54.5478 165.028 54.4414 164.047 54.3439C163.256 54.2727 162.488 54.0155 161.815 53.5966C159.594 52.1831 156.998 51.4105 154.368 51.3793C153.479 51.3694 152.472 51.2728 151.584 51.7452C150.307 52.4239 148.787 52.4814 147.357 52.7056C145.988 52.9206 144.733 52.2016 143.48 51.7253C141.433 50.9453 139.385 50.2242 137.166 50.1864C135.662 50.1607 134.449 50.7099 133.46 51.6747C132.812 52.3076 132.853 52.8119 133.631 53.3291C134.281 53.7981 134.996 54.179 135.754 54.4598C138.239 55.2937 140.568 56.4066 142.352 58.3859C144.372 60.6281 146.807 62.4375 149.47 63.944C153.061 65.9774 156.911 66.9868 161.051 66.704C162.636 66.5649 164.231 66.5125 165.831 66.5469C168.125 66.6392 170.294 67.308 172.38 68.1905C176.072 69.7521 179.867 70.2878 183.797 69.9834C184.772 69.9079 185.76 69.9323 186.744 69.9377C186.998 69.9381 187.316 69.8716 187.509 70.1828C187.318 70.503 186.947 70.4676 186.643 70.5373C181.155 71.802 175.686 73.129 170.442 75.053C168.986 75.5542 167.571 76.1464 166.206 76.8258C165.05 77.4313 163.869 77.3879 162.577 76.8616C159.488 75.6027 156.696 73.9159 153.998 72.0105C150.456 69.5069 146.69 67.2971 142.412 66.1997C139.554 65.4657 136.676 64.7698 133.741 64.3541C132.009 64.1083 130.277 63.8256 128.548 63.5413C127.991 63.469 127.43 63.4348 126.871 63.4389C125.444 63.3951 123.998 63.2624 122.6 63.4102C121.21 63.5614 119.864 63.9171 118.61 64.4641C116.343 65.4516 113.931 65.9065 111.438 66.1133C110.179 66.1972 108.935 66.3831 107.72 66.6687C106.88 66.8619 106.101 67.2196 105.432 67.7189C104.033 68.7972 104.097 70.1047 105.629 71.1583C105.789 71.272 105.962 71.3688 106.144 71.4469C108.428 72.3838 110.418 73.8069 112.532 75.0224C115.522 76.7417 118.722 77.1642 122.083 76.8005C124.721 76.5161 127.338 76.1097 130.002 75.9519C131.544 75.8606 133.076 75.6802 134.62 75.9299C136.856 76.2643 139.043 76.8918 141.118 77.7937C142.441 78.3837 143.843 78.5214 145.259 78.4702C145.813 78.4514 146.157 78.5312 146.446 79.0989C146.565 79.346 146.743 79.5661 146.967 79.7413C147.19 79.9164 147.451 80.0418 147.731 80.1072C148.01 80.1727 148.299 80.1764 148.574 80.118C148.849 80.0596 149.102 79.9408 149.314 79.7712C150.115 79.1048 150.895 79.1693 151.796 79.4771C152.508 79.718 153.217 79.9629 153.94 80.6227C152.039 80.519 150.38 80.8883 148.679 80.9141C147.582 80.9312 146.634 80.2998 145.603 80.0125C145.286 79.892 144.959 79.7973 144.626 79.7296C143.571 79.6167 142.648 79.5026 141.914 78.4866C141.284 77.6159 139.736 77.7817 139.009 78.5618C138.258 79.3682 138.409 80.2876 139.43 81.1018C140.27 81.7706 141.446 81.6574 142.167 80.7718C142.441 80.4329 142.677 80.3768 143.137 80.43C144.151 80.5477 145.159 80.6277 146.09 81.1112C146.261 81.1997 146.517 81.2325 146.509 81.4578C146.503 81.6956 146.249 81.6819 146.061 81.7136C145.386 81.8256 144.797 81.9468 144.133 81.3622C143.398 80.7161 142.175 81.0518 141.676 81.8505C141.169 82.6614 141.462 83.5523 142.41 84.0762C142.533 84.1429 142.665 84.1894 142.842 84.266C142.697 84.6168 142.317 84.7937 142.248 85.1776C142.166 85.5791 142.239 86.0011 142.454 86.37C142.668 86.7389 143.012 87.0311 143.423 87.1955C144.284 87.5371 145.278 87.2736 145.617 86.4581C145.957 85.6427 146.577 85.2738 147.386 84.9754C148.555 84.545 149.531 83.8261 150.486 83.0763C151.65 82.1606 152.947 81.526 154.601 81.9154C154.709 81.9404 154.814 81.9785 154.921 82.01C154.971 82.3213 154.69 82.3475 154.527 82.4411C151.749 84.0522 148.907 85.5753 146.197 87.2774C142.952 89.3167 139.331 90.2809 135.43 90.5686C134.459 90.6398 133.446 90.4716 132.495 90.6095C130.853 90.8485 129.253 91.2689 127.621 91.5619C126.238 91.8011 124.912 92.2381 123.688 92.858C122.228 93.6372 120.893 94.598 119.717 95.7157C118.776 96.5937 117.976 97.5739 117.111 98.5062C115.086 100.642 112.819 102.563 110.346 104.238C107.716 106.064 105.906 108.476 104.438 111.181C103.349 113.188 101.994 115.027 100.19 116.544C99.3675 117.237 98.7046 118.065 98.459 119.124C98.3652 119.526 98.378 119.949 98.4965 120.354C98.615 120.76 98.8356 121.137 99.1393 121.454C99.443 121.77 99.8209 122.016 100.241 122.171C100.66 122.326 101.109 122.385 101.549 122.343C102.59 122.267 103.581 121.945 104.432 121.407C105.905 120.455 107.526 119.712 109.245 119.2C112.011 118.34 114.742 117.414 117.336 116.185C120.157 114.849 122.463 112.903 124.686 110.859C127.025 108.709 129.479 106.666 132.278 105.055C134.22 103.98 136.043 102.735 137.724 101.335C140.318 99.1033 142.18 96.386 143.616 93.383C144.131 92.2291 144.912 91.2043 145.904 90.3787C147.472 89.1417 149.152 88.0273 150.818 86.9024C152.756 85.5841 154.806 84.4106 156.949 83.392C157.408 83.1761 157.835 82.8815 158.565 82.8783C156.958 84.8998 156.192 87.2938 153.768 88.6594C151.011 90.2124 148.713 92.2579 147.444 95.1956C146.935 96.3749 146.889 97.6466 146.322 98.8232C145.556 100.457 144.463 101.927 143.1 103.159C141.471 104.588 140.108 106.262 139.063 108.118C138.023 110.013 137.937 112.137 138.068 114.245C138.246 116.683 137.495 119.063 135.95 120.96C134.623 122.656 134.387 124.642 135.227 126.722C135.65 127.771 136.194 127.868 136.996 127.074C137.599 126.432 138.394 125.972 139.286 125.748C140.812 125.372 142.291 124.864 143.705 124.231C144.978 123.697 146.012 122.667 147.086 121.79C149.522 119.798 151.13 117.262 152.251 114.427C152.646 113.43 152.921 112.377 153.408 111.425C154.393 109.5 155.489 107.626 156.535 105.73C158.315 102.562 159.178 98.9831 159.044 95.3345C159.005 94.2073 158.82 93.0744 158.879 91.9252C158.913 91.244 158.599 90.3858 158.643 89.6474C158.836 86.4583 159.765 83.4823 162.139 81.1979C163.031 80.3398 164.332 79.7959 165.665 79.4636C165.772 79.7555 165.555 79.8457 165.458 79.9818C164.767 80.9617 164.91 81.724 165.964 82.6281C166.686 83.2474 168.152 83.2938 168.86 82.7055C169.012 82.5932 169.122 82.4392 169.177 82.2634C169.391 81.0439 170.168 80.5734 171.431 80.2077C172.525 79.8912 173.63 79.5861 174.743 79.3137C174.947 79.2627 175.229 79.1313 175.367 79.3491C175.554 79.6434 175.204 79.7381 175.03 79.8773C173.875 80.7982 172.78 81.7527 172.013 83.0186C171.508 83.851 170.47 84.0475 169.564 84.3088C168.559 84.5999 167.497 84.7313 166.47 84.967C166.3 85.0174 166.116 85.023 165.938 84.9831C165.76 84.9432 165.595 84.8594 165.46 84.7406C164.318 83.8286 163.46 83.8953 162.621 84.9366C161.822 85.9257 162.028 86.9621 163.173 87.741C163.805 88.1712 164.468 88.2964 165.16 87.9775C165.518 87.8272 165.814 87.5767 166.008 87.2591C166.203 86.9415 166.288 86.5717 166.251 86.1985C166.215 85.6759 166.425 85.5529 166.873 85.4072C167.852 85.115 168.863 84.9172 169.893 84.8166C170.085 84.7925 170.312 84.7204 170.435 84.9169C170.589 85.1626 170.374 85.2999 170.202 85.4283C169.428 85.967 168.72 86.5821 168.089 87.2638C167.841 87.5532 167.5 87.4832 167.164 87.4779C166.597 87.4774 166.056 87.6656 165.639 88.0089C165.221 88.3523 164.954 88.8286 164.885 89.3533C164.798 90.3205 165.539 91.2314 166.653 91.5368C167.007 91.6522 167.386 91.6595 167.734 91.5577C168.082 91.4559 168.381 91.2503 168.586 90.9714C169.181 90.2628 169.463 89.4324 168.892 88.6427C168.373 87.9256 168.676 87.5066 169.197 87.2108C171.261 86.0459 172.695 84.3432 173.976 82.4891C174.092 82.3209 174.203 81.9844 174.517 82.1481C174.749 82.2683 174.733 82.5684 174.712 82.8061C174.596 84.3803 174.168 85.9077 173.451 87.3115C173.333 87.5388 173.2 87.706 172.899 87.6974C171.919 87.6686 171.348 88.2514 170.955 88.9414C170.58 89.5978 170.033 90.0866 169.525 90.6247C166.737 93.584 165.043 97.0907 164.018 100.933C163.593 102.525 163.161 104.117 162.653 105.683C162.02 107.632 161.894 109.691 161.346 111.654C160.887 113.299 160.306 114.876 158.941 116.072C158.559 116.407 158.041 116.781 158.351 117.406C158.647 118.006 159.265 118.084 159.874 118.119C160.569 118.158 161.382 118.388 161.933 118.226C162.853 117.953 163.836 117.658 164.617 117.062C167.505 114.853 170.519 112.789 173.238 110.391C175.072 108.775 176.057 106.746 176.675 104.487C177.262 102.338 177.843 100.151 179.588 98.5608C181.492 96.825 182.881 94.7062 184.532 92.7848C184.853 92.411 185.024 91.8194 185.282 91.3378C186.924 88.263 187.862 84.9393 188.673 81.5882C188.903 80.6366 189.104 79.6546 189.325 78.6962C189.708 77.0321 190.872 75.7436 191.985 74.4718C192.662 73.7321 193.385 73.0308 194.15 72.3714C194.636 71.935 195.291 71.7541 195.937 71.5918C197.413 71.2121 198.932 70.9718 200.472 70.8742C204.866 70.6165 209.183 69.8601 213.594 69.707C215.603 69.6364 217.604 69.4607 219.608 69.3333L219.606 69.3356ZM174.787 86.4912C175.12 85.4638 175.505 84.5768 175.63 83.6172C175.707 83.0158 175.999 82.3843 175.859 81.8279C175.644 80.9767 175.881 80.4693 176.491 79.9003C178.101 78.3993 179.899 77.0506 181.051 75.158C181.156 74.9731 181.33 74.8329 181.542 74.7633C182.822 74.3655 184.086 73.9166 185.386 73.5808C186.296 73.3464 187.207 73.0506 188.235 73.1223C187.281 73.7875 186.592 74.6837 185.696 75.3775C183.851 76.8089 182.332 78.5716 181.224 80.5696C180.817 81.294 180.537 82.0775 180.042 82.7699C179.133 84.0418 177.741 84.7391 176.453 85.5623C175.967 85.8749 175.525 86.2711 174.786 86.4915L174.787 86.4912ZM220.528 66.3155C220.402 66.356 220.272 66.3881 220.14 66.4116C217.246 66.7687 214.281 66.6373 211.416 67.2481C209.907 67.5688 208.558 66.7859 207.163 66.2187C204.529 65.1489 202.829 63.2006 201.223 61.119C201.127 60.9933 200.98 60.8492 201.072 60.6892C201.095 60.6562 201.125 60.6282 201.16 60.6069C201.195 60.5857 201.235 60.5718 201.277 60.5659C201.319 60.56 201.363 60.5624 201.405 60.5729C201.446 60.5833 201.486 60.6017 201.521 60.6267C202.364 61.3144 203.423 60.9203 204.313 61.2388C205.956 61.8264 207.647 62.3745 209.162 63.2004C211.145 64.2816 213.223 64.7414 215.403 64.8471C217.22 64.9343 218.872 65.5617 220.529 66.3151L220.528 66.3155ZM206.563 67.4192L206.529 67.6112C206.352 67.6691 206.17 67.7122 205.983 67.74C203.031 67.9611 200.093 68.2765 197.153 68.5795C196.227 68.6736 195.312 68.8702 194.327 68.7566C192.713 68.5696 191.396 67.807 190.059 67.0293C189.802 66.8793 189.563 66.7174 189.61 66.4097C189.659 66.098 189.968 66.1192 190.208 66.1156C192.21 66.0916 194.078 65.6544 195.677 64.578C197.224 63.5368 198.747 63.8082 200.323 64.6419C200.474 64.7163 200.629 64.7834 200.788 64.8429C202.747 65.6304 204.567 66.7059 206.563 67.42L206.563 67.4192ZM161.525 78.7098C159.96 79.4527 158.708 80.2424 157.288 80.7621C156.657 80.9929 156.146 80.9568 155.577 80.5197C154.206 79.4649 152.609 78.8086 150.953 78.3011C150.675 78.2155 150.293 78.3798 150.292 77.932C150.29 77.5583 150.663 77.5311 150.95 77.4554C152.665 77.0021 154.417 76.9092 156.182 77.3664C157.869 77.8037 159.515 78.3962 161.523 78.7088L161.525 78.7098ZM179.115 75.3068C178.173 76.2369 177.453 77.3393 176.036 77.7848C174.276 78.3365 172.426 78.6701 170.755 79.4273C169.756 79.88 168.828 80.1836 167.963 79.1342C167.852 78.9999 167.567 79.0843 167.532 78.8845C168.519 78.152 169.813 78.1792 170.884 77.6284C173.41 76.3327 176.322 75.9939 179.113 75.3057L179.115 75.3068ZM201.747 63.5223C200.165 62.9597 198.516 62.8882 196.931 62.512C195.532 62.1787 194.201 61.6954 193.345 60.2329C195.244 60.7692 197.064 60.738 198.868 60.9392C199.311 61.0013 199.724 61.2036 200.038 61.5121C200.699 62.1159 201.07 62.9199 201.747 63.5207L201.747 63.5223ZM144.887 84.219C144.752 84.1336 144.477 84.0095 144.598 83.8945C144.963 83.5451 144.933 82.865 145.455 82.7319C146.736 82.4066 148.054 82.1866 149.361 81.9434C149.531 81.9121 149.797 81.8737 149.884 82.092C149.966 82.2943 149.759 82.4155 149.618 82.5308C148.63 83.3525 147.485 83.9956 146.238 84.4301C146.017 84.5083 145.776 84.53 145.539 84.493C145.301 84.456 145.076 84.3616 144.884 84.2193L144.887 84.219Z" fill="#E6F6C7"/>
<path d="M94.8422 160.419C94.3328 158.774 93.4202 157.344 92.5075 155.918C91.497 154.34 90.615 152.661 89.413 151.226C87.9727 149.507 87.1211 147.517 86.0251 145.637C85.1185 144.08 84.7396 142.384 84.65 140.64C84.5277 138.232 84.9284 135.884 85.6246 133.558C86.0504 132.13 86.6553 130.763 87.0568 129.333C87.4681 127.89 87.4786 126.37 87.0874 124.922C86.0098 120.959 86.301 117.132 88.0694 113.402C88.4962 112.494 89.044 111.643 89.6993 110.868C90.7547 109.631 91.4678 108.304 91.1703 106.624C91.1236 106.14 91.1749 105.651 91.3211 105.185C91.5125 104.397 92.5006 104.116 93.4949 104.588C95.0476 105.317 96.2649 106.564 96.9155 108.092C97.6648 109.707 98.0918 111.441 98.1746 113.205C98.2914 116.174 97.9663 119.145 97.209 122.027C96.5593 124.444 96.3574 126.922 96.3676 129.418C96.3757 131.65 95.7718 133.845 94.6157 135.786C92.945 138.661 93.0206 141.596 94.3528 144.595C95.1248 146.333 96.0699 147.988 96.8821 149.704C98.1676 152.42 98.4182 155.314 98.5445 158.236C98.6118 159.774 98.6788 161.312 99.013 162.831C99.5061 165.068 101.02 166.699 102.566 168.292C105.051 170.804 107.36 173.468 109.478 176.268C110.309 177.391 110.931 178.608 111.63 179.789C111.817 180.084 111.937 180.414 111.981 180.756C112.025 181.099 111.992 181.446 111.885 181.775C111.549 182.788 110.638 183.089 109.799 182.392C109.217 181.91 108.698 181.364 108.252 180.765C106.845 178.865 105.535 176.898 104.099 175.02C102.343 172.723 100.652 170.376 98.5296 168.351C98.0088 167.834 97.3624 167.447 96.6473 167.224C94.1312 166.489 91.6193 165.849 88.9018 166.341C86.5609 166.764 84.3323 167.517 82.0506 168.111C78.5351 169.05 74.8038 168.956 71.3449 167.843C68.784 167.034 66.4903 165.641 63.9721 164.735C63.346 164.479 62.6859 164.305 62.0102 164.219C58.3125 163.888 54.943 162.856 52.2178 160.254C50.7062 158.811 49.2882 157.325 48.1454 155.603C47.078 153.997 45.2891 153.667 43.5453 153.211C41.0415 152.555 38.8902 151.355 37.8493 148.972C37.6889 148.572 37.624 148.142 37.6592 147.715C37.6944 147.288 37.8289 146.873 38.053 146.501C38.3178 146.067 38.8334 145.865 39.2814 146.249C40.5649 147.354 42.0948 147.178 43.5576 146.945C47.3304 146.346 50.8346 146.887 54.0779 148.846C54.3306 148.999 54.6035 149.121 54.8682 149.255C55.4732 149.558 55.9479 149.786 56.7181 149.305C57.9607 148.532 59.2952 148.983 60.1937 150.213C60.2545 150.327 60.345 150.425 60.4567 150.496C60.5683 150.567 60.6973 150.61 60.8314 150.621C62.8604 150.64 64.9182 150.939 66.8676 150.108C67.0061 150.056 67.1414 149.996 67.273 149.93C67.3525 149.864 67.4227 149.789 67.4818 149.707C66.7806 149.264 66.02 148.913 65.2205 148.663C64.8476 148.541 64.6195 148.694 64.3568 148.933C63.3321 149.868 61.9651 149.908 60.969 149.065C60.1744 148.392 60.1215 147.061 60.8244 146.076C61.0162 145.781 61.2986 145.549 61.6335 145.411C61.9683 145.274 62.3394 145.238 62.6966 145.308C63.6338 145.461 64.5761 145.805 64.8397 146.774C65.0964 147.721 65.6983 148.09 66.6061 148.361C67.8874 148.743 69.1201 149.275 70.3708 149.75C70.5072 149.802 70.6356 149.938 70.7741 149.826C70.9365 149.693 70.8699 149.516 70.7985 149.352C69.9979 147.546 68.7899 145.985 67.5714 144.427C67.331 144.121 67.1029 144.144 66.8033 144.293C65.6299 144.883 64.5562 144.776 63.5927 143.873C63.3075 143.606 62.9265 143.619 62.5701 143.662C60.3292 143.922 58.0779 143.827 55.8329 143.809C53.5022 143.792 51.2878 143.237 49.1365 142.368C46.5727 141.326 44.0658 140.161 41.6251 138.878C40.7062 138.399 39.8263 137.852 38.9543 137.299C38.2565 136.847 37.4498 136.571 36.6094 136.496C33.8144 136.275 31.154 135.258 28.9751 133.577C28.2398 133.008 27.3473 132.438 26.944 131.453C26.3639 130.037 25.1572 129 24.1388 127.878C23.1642 126.803 21.6392 126.609 20.2843 126.208C18.0678 125.552 15.8921 124.846 14.0462 123.438C12.7952 122.483 12.178 121.22 12.0313 119.744C11.9355 118.776 12.3165 118.367 13.3106 118.425C14.1666 118.442 15.0155 118.577 15.8306 118.827C18.4423 119.719 21.1192 120.27 23.9448 119.717C27.1452 119.09 30.3885 119.108 33.6095 119.535C37.9551 120.109 41.8073 121.737 45.0079 124.669C46.2116 125.819 47.4842 126.9 48.8195 127.909C50.765 129.319 53.004 130.149 55.3223 130.741C59.4254 131.789 62.907 133.79 65.9201 136.605C66.6678 137.304 67.495 137.924 68.3058 138.558C68.5146 138.723 68.7295 138.987 69.1024 138.844C69.1655 138.442 68.8377 138.233 68.636 137.975C65.0056 133.317 61.4344 128.619 58.458 123.55C57.6088 122.171 56.8561 120.741 56.2048 119.267C55.6732 117.993 54.6749 117.263 53.253 116.879C49.8528 115.962 46.4018 115.607 42.8772 115.502C38.2486 115.366 33.6383 114.831 29.3745 113.002C26.5249 111.78 23.6851 110.513 20.9918 108.966C19.4027 108.054 17.7872 107.174 16.1738 106.297C15.6668 105.997 15.1834 105.663 14.7275 105.296C13.5275 104.408 12.2501 103.583 11.205 102.547C10.1691 101.514 9.30986 100.332 8.65852 99.0453C7.47903 96.7194 5.81456 94.7603 3.91178 92.9622C2.93716 92.0722 2.04496 91.1038 1.2451 90.0678C0.689291 89.3554 0.296425 88.54 0.0918329 87.6742C-0.313552 85.8333 0.639926 84.7451 2.62114 84.8286C2.831 84.8345 3.03948 84.8632 3.24256 84.9139C5.76049 85.5869 8.37241 85.649 10.9432 85.9711C14.5796 86.427 17.4951 88.1398 20.0007 90.6365C21.9687 92.5956 23.8348 94.646 25.9107 96.5122C27.1127 97.5926 28.2453 98.7437 29.6835 99.5305C31.747 100.693 33.9731 101.571 36.2955 102.139C37.7868 102.488 39.0315 103.279 40.1581 104.243C40.599 104.619 40.9364 104.774 41.5639 104.47C41.8318 104.334 42.1296 104.26 42.4332 104.253C42.7369 104.247 43.0379 104.308 43.312 104.433C43.586 104.558 43.8254 104.742 44.0108 104.971C44.1962 105.2 44.3224 105.468 44.3793 105.752C44.577 106.848 45.2611 107.298 46.2124 107.618C46.9622 107.872 47.7119 108.12 48.7589 108.019C47.129 106.875 46.0229 105.478 44.6457 104.352C43.7574 103.624 42.5452 103.554 41.5021 103.134C41.1587 103.032 40.8254 102.901 40.506 102.744C39.5627 102.156 38.7276 101.655 37.4258 102.057C36.3094 102.4 35.1543 101.252 35.0951 100.105C35.0341 98.9203 35.7912 98.2239 37.1893 98.1832C38.3384 98.1503 39.2246 99.0115 39.2063 100.245C39.1981 100.717 39.3529 100.918 39.7664 101.171C40.6791 101.727 41.5613 102.313 42.6573 102.499C42.8589 102.534 43.0912 102.672 43.2399 102.472C43.3989 102.263 43.1808 102.109 43.0485 101.96C42.5719 101.425 42.1725 100.938 41.2251 101.012C40.1778 101.093 39.4058 100.009 39.5464 98.9941C39.6892 97.964 40.5426 97.384 41.6813 97.5471C41.8279 97.5692 41.9685 97.6149 42.1662 97.6635C42.2885 97.2658 42.099 96.8663 42.3069 96.4898C42.5159 96.0895 42.8661 95.7718 43.2962 95.5924C43.7263 95.413 44.209 95.3833 44.6598 95.5084C45.601 95.7722 46.2345 96.6452 45.9514 97.5705C45.6683 98.4958 45.9228 99.2175 46.3811 100.001C47.0432 101.132 47.3488 102.387 47.6156 103.655C47.9405 105.203 48.567 106.594 50.1913 107.331C50.2974 107.38 50.4092 107.415 50.5192 107.458C50.7745 107.221 50.5619 107.016 50.4928 106.829C49.3235 103.632 48.0419 100.47 46.9907 97.2386C45.7337 93.3687 43.4277 90.1835 40.4268 87.402C39.6792 86.7096 38.7329 86.1974 38.0474 85.4603C36.8658 84.1879 35.843 82.7853 34.706 81.472C33.7368 80.3674 32.9502 79.1285 32.3734 77.798C31.7123 76.1762 31.2787 74.4785 31.0839 72.7487C30.9169 71.3788 30.9352 70.0116 30.8679 68.6441C30.6778 65.4835 30.1411 62.3505 29.2668 59.2962C28.3662 56.0103 28.5435 52.7493 29.2016 49.4576C29.6905 47.0154 29.8453 44.5459 29.4104 42.0631C29.2127 40.9303 29.2394 39.7838 29.7669 38.7091C29.9671 38.3002 30.2683 37.9436 30.6449 37.6698C31.0214 37.396 31.462 37.2131 31.929 37.1369C32.3959 37.0606 32.8754 37.0932 33.3262 37.2319C33.7771 37.3705 34.1859 37.6112 34.5178 37.9331C35.3191 38.6744 35.9106 39.5966 36.2372 40.6139C36.7905 42.3935 37.6082 44.0886 38.6656 45.6478C40.3421 48.1869 41.9435 50.7612 43.2248 53.5078C44.6183 56.495 45.1703 59.6745 45.5859 62.8849C46.024 66.2621 46.6301 69.6218 47.8166 72.8322C48.6689 75.0222 49.3066 77.2827 49.7214 79.5846C50.3122 83.1985 49.9679 86.7562 49.0778 90.2845C48.7059 91.6166 48.6406 93.0095 48.8863 94.3679C49.3202 96.4552 49.9305 98.5093 50.5222 100.563C51.2045 102.962 52.0776 105.307 53.1339 107.58C53.362 108.065 53.5087 108.596 54.1057 109.073C54.1791 106.282 55.1998 103.716 54.1521 100.961C52.9604 97.8281 52.4837 94.5674 53.4655 91.2037C53.86 89.8537 54.6981 88.7246 55.0434 87.3395C55.54 85.43 55.6561 83.4489 55.3857 81.4987C55.0341 79.2055 55.0692 76.8736 55.4897 74.591C55.9419 72.2767 57.3333 70.3854 58.8919 68.6474C60.7168 66.6554 61.7397 64.1112 61.7786 61.4681C61.8579 59.1404 63.0316 57.2701 65.1523 56.0173C66.2218 55.385 66.7353 55.6545 66.8462 56.8611C66.8987 57.8087 67.2336 58.7224 67.8118 59.4953C68.8036 60.8109 69.6669 62.2102 70.391 63.6756C71.0674 64.9638 71.2059 66.5259 71.483 67.9819C72.1095 71.2853 71.6825 74.522 70.6497 77.7004C70.287 78.8197 69.7879 79.9079 69.5312 81.0466C69.0138 83.3511 68.6226 85.6828 68.1745 88.0008C67.4526 91.8954 65.6972 95.5497 63.075 98.6167C62.2663 99.5652 61.3347 100.424 60.5921 101.457C60.1512 102.068 59.3026 102.605 58.83 103.272C56.7928 106.155 55.5052 109.33 55.88 112.847C56.0206 114.168 56.7132 115.483 57.5769 116.635C57.8663 116.453 57.75 116.234 57.7644 116.053C57.8723 114.757 58.5141 114.191 60.0013 114.094C61.02 114.028 62.2545 114.94 62.4297 115.908C62.477 116.104 62.4614 116.308 62.3849 116.496C61.7208 117.689 62.0345 118.6 62.8188 119.737C63.4973 120.72 64.1939 121.702 64.9193 122.66C65.0518 122.837 65.1922 123.134 65.4551 123.035C65.8115 122.902 65.5895 122.593 65.5428 122.36C65.2291 120.813 64.9887 119.277 65.2312 117.685C65.3901 116.637 64.6743 115.793 64.1106 114.979C63.4874 114.075 62.707 113.272 62.0266 112.401C61.9216 112.247 61.7747 112.122 61.6014 112.041C61.4281 111.961 61.2351 111.926 61.0428 111.941C59.4781 111.988 58.8202 111.373 58.8488 109.928C58.8752 108.554 59.7575 107.792 61.2323 107.862C62.0473 107.901 62.6768 108.222 63.0251 108.948C63.2151 109.31 63.2852 109.719 63.2263 110.12C63.1674 110.521 62.9822 110.895 62.6952 111.194C62.306 111.623 62.3935 111.865 62.6606 112.282C63.2617 113.17 63.9552 113.998 64.7304 114.754C64.8711 114.899 65.0075 115.109 65.2437 115.019C65.5391 114.906 65.4577 114.648 65.4048 114.425C65.1412 113.457 64.9842 112.466 64.9363 111.467C64.9321 111.056 64.6042 110.895 64.3251 110.681C63.859 110.313 63.5452 109.799 63.4393 109.231C63.3334 108.664 63.4423 108.078 63.7466 107.58C64.3415 106.687 65.576 106.381 66.7005 106.841C67.07 106.971 67.3858 107.21 67.6012 107.524C67.8166 107.838 67.9201 108.21 67.8965 108.585C67.8965 109.583 67.5563 110.485 66.5436 110.796C65.6247 111.079 65.5841 111.638 65.8083 112.232C66.6987 114.579 66.7026 116.983 66.4766 119.417C66.4562 119.638 66.3155 120.001 66.6854 120.063C66.9583 120.11 67.1518 119.84 67.2987 119.621C68.2867 118.185 68.9877 116.587 69.3665 114.908C69.4257 114.634 69.4317 114.403 69.179 114.215C68.3559 113.604 68.2886 112.729 68.4416 111.878C68.5861 111.067 68.474 110.289 68.4274 109.494C68.1789 105.125 69.2036 100.994 71.0087 97.0073C71.7563 95.3546 72.498 93.6979 73.16 92.0139C73.983 89.9188 75.2971 88.0567 76.1998 86.0041C76.9556 84.2835 77.5647 82.5433 77.2693 80.6231C77.1858 80.0857 77.0187 79.4262 77.7032 79.0868C78.3592 78.7609 78.9194 79.0946 79.4436 79.4593C80.0404 79.8765 80.8655 80.2062 81.2057 80.7046C81.7721 81.5367 82.375 82.4311 82.6052 83.4532C83.4526 87.2378 84.5038 90.9796 85.0825 94.8186C85.4738 97.4063 84.8848 99.8001 83.8357 102.154C82.8379 104.393 81.8086 106.66 82.1448 109.168C82.5115 111.905 82.1912 114.639 82.2223 117.372C82.2284 117.903 81.9615 118.526 81.8413 119.11C81.0711 122.834 79.5515 126.316 77.9095 129.74C77.4431 130.712 76.9317 131.691 76.453 132.663C75.6218 134.351 75.6891 136.22 75.7257 138.042C75.7717 139.121 75.8818 140.197 76.0557 141.264C76.1534 141.957 76.5662 142.539 76.9839 143.098C77.9331 144.385 79.0135 145.579 80.2093 146.664C83.636 149.74 86.6551 153.197 90.1674 156.194C91.7666 157.559 93.2863 159.01 94.8429 160.422L94.8422 160.419ZM69.8972 116.484C69.4633 117.589 69.1679 118.605 68.6096 119.516C68.2592 120.086 68.0636 120.822 67.5653 121.211C66.8033 121.808 66.6485 122.401 66.7567 123.288C67.0439 125.632 67.5899 127.965 67.2314 130.349C67.1898 130.577 67.2361 130.811 67.3618 131.009C68.138 132.184 68.8653 133.393 69.7006 134.528C70.2854 135.321 70.8293 136.168 71.7215 136.774C71.3967 135.579 71.4486 134.357 71.1918 133.176C70.6639 130.74 70.6324 128.23 71.0989 125.783C71.2639 124.893 71.5737 124.033 71.645 123.114C71.7754 121.424 71.1133 119.917 70.6239 118.369C70.4406 117.783 70.3511 117.154 69.8967 116.484L69.8972 116.484ZM93.5195 163.629C93.4435 163.511 93.359 163.399 93.2668 163.293C91.1399 161.106 88.6178 159.294 86.6885 156.905C85.6719 155.648 84.0258 155.448 82.4917 155.033C79.5949 154.248 76.8588 154.828 74.1086 155.584C73.9436 155.631 73.7236 155.66 73.6888 155.858C73.6847 155.901 73.69 155.945 73.7044 155.986C73.7187 156.027 73.7419 156.065 73.7724 156.098C73.8028 156.13 73.84 156.156 73.8815 156.174C73.923 156.192 73.968 156.202 74.0137 156.203C75.179 156.156 75.7758 157.184 76.7251 157.487C78.4771 158.046 80.2413 158.67 82.0525 158.94C84.4238 159.294 86.4446 160.246 88.3047 161.569C89.855 162.674 91.6418 163.204 93.52 163.63L93.5195 163.629ZM82.8261 153.606L82.9301 153.418C82.8251 153.253 82.7051 153.097 82.5716 152.952C80.3021 150.843 78.11 148.663 75.9079 146.492C75.2131 145.81 74.598 145.045 73.7118 144.504C72.2592 143.617 70.6539 143.421 69.0221 143.225C68.7084 143.188 68.4007 143.173 68.2276 143.47C68.0524 143.77 68.3204 143.953 68.5149 144.112C70.1406 145.433 71.3711 147.023 71.9415 148.992C72.4936 150.897 73.9299 151.652 75.796 151.954C75.9714 151.988 76.1449 152.031 76.3156 152.082C78.4648 152.674 80.6978 152.926 82.8266 153.605L82.8261 153.606ZM53.663 114.599C52.891 112.94 52.4081 111.445 51.6013 110.073C51.2427 109.464 50.7986 109.163 50.0305 109.171C48.1807 109.194 46.4185 108.723 44.7113 108.087C44.4241 107.98 44.224 107.59 43.9147 107.977C43.656 108.298 43.9433 108.564 44.1266 108.816C45.2207 110.321 46.5937 111.54 48.3559 112.29C50.0407 113.008 51.7987 113.565 53.6609 114.599L53.663 114.599ZM65.7459 128.963C65.6134 127.547 65.7825 126.127 64.927 124.822C63.8635 123.202 62.5761 121.712 61.7264 119.972C61.2191 118.932 60.6671 118.067 59.2349 118.412C59.0516 118.457 58.8764 118.199 58.7093 118.348C59.0149 119.623 60.0946 120.439 60.5937 121.611C61.7732 124.371 63.9287 126.556 65.7438 128.963L65.7459 128.963ZM76.1928 153.847C74.5079 153.306 73.1066 152.297 71.548 151.593C70.1708 150.973 68.7467 150.526 67.0374 151.234C68.9646 152.004 70.4355 153.213 72.0531 154.21C72.4592 154.444 72.9377 154.538 73.4078 154.475C74.3652 154.382 75.2231 153.928 76.1924 153.849L76.1928 153.847ZM43.8108 99.0319C43.6416 99.0184 43.33 98.9466 43.3504 99.1249C43.4095 99.6642 42.9165 100.232 43.2527 100.686C44.0797 101.8 45.0088 102.845 45.9133 103.904C46.0314 104.042 46.2229 104.248 46.445 104.116C46.6508 103.994 46.5652 103.755 46.5285 103.564C46.284 102.212 45.788 100.912 45.0638 99.7265C44.937 99.5159 44.7544 99.3408 44.5342 99.2185C44.3139 99.0963 44.0638 99.0313 43.8089 99.0301L43.8108 99.0319Z" fill="#F3FCE2"/>
</svg>
