<svg width="203" height="263" viewBox="0 0 203 263" fill="none" xmlns="http://www.w3.org/2000/svg">
<path d="M120.08 149.256C120.852 151.256 121.14 153.341 121.48 155.417C121.566 155.941 122.024 156.206 122.471 156.464C125.288 158.101 127.107 160.488 128.39 163.255C128.823 164.209 129.434 165.086 130.195 165.845C134.352 169.988 137.315 175.027 138.812 180.499C140.887 187.851 140.894 195.245 139.773 202.699C139.757 202.898 139.723 203.096 139.669 203.289C139.535 203.682 139.698 204.305 139.103 204.37C138.651 204.422 138.486 203.877 138.261 203.552C135.366 199.415 131.802 195.765 128.388 192.007C127.618 191.162 127.385 191.547 127.035 192.309C125.477 195.775 123.589 199.108 121.394 202.267C121.169 202.584 121.02 203.124 120.51 203.017C120.012 202.913 120.102 202.375 120.044 201.995C119.591 199.065 118.641 196.241 117.809 193.397C116.976 190.55 115.98 187.745 115.047 184.923C114.948 184.628 114.932 184.289 114.608 184.054C114.088 184.227 114.06 184.723 113.86 185.085C109.986 192.117 105.418 198.735 99.4158 204.384C94.9752 208.562 89.5486 211.479 83.7125 213.743C82.6372 214.161 81.5726 214.608 80.4858 214.994C79.2709 215.427 79.0054 215.224 79.2702 214.006C79.9894 210.682 80.7318 207.361 81.4974 204.044C83.0867 197.261 84.5749 190.455 86.3637 183.708C87.8204 178.212 90.1825 173.129 93.8327 168.561C95.9937 165.86 98.6496 163.805 102.152 162.709C103.195 162.369 104.303 162.233 105.406 162.309C106.509 162.385 107.583 162.672 108.559 163.152C109.425 163.553 109.812 163.383 109.949 162.5C110.183 161.002 110.537 159.517 110.728 158.012C110.946 156.296 109.507 154.269 107.835 153.684C107.311 153.5 107.1 153.785 106.886 154.071C104.048 157.865 100.074 158.44 95.6193 157.324C89.3718 155.759 83.9399 152.744 79.0244 148.94C73.8123 144.907 69.3525 140.155 64.5284 135.75C63.0898 134.482 61.5679 133.297 59.9712 132.201C59.7083 132.013 59.2844 131.871 59.3678 131.497C59.4511 131.123 59.888 131.127 60.2222 131.097C69.5415 130.199 78.8033 129.95 87.773 133.108C92.8053 134.879 97.6697 136.956 101.766 140.246C104.854 142.725 107.539 145.643 107.737 149.578C107.849 151.835 108.593 153.365 110.575 154.502C110.682 154.565 110.783 154.637 110.894 154.711C111.319 154.469 111.211 154.074 111.236 153.743C111.584 148.802 111.071 143.842 109.715 139.051C108.296 133.931 105.825 129.15 104.321 124.076C103.747 122.141 102.867 121.158 100.652 120.668C96.865 119.83 94.1853 117.275 91.5319 114.777C86.7455 110.272 83.7285 104.802 81.1308 99.0605C79.153 94.6881 77.5576 90.1623 75.0807 85.9843C74.8355 85.5728 74.6796 84.9394 74.168 84.9029C73.5685 84.8583 73.5109 85.5526 73.2822 85.9488C69.7995 92.0272 64.3021 95.4888 57.1046 97.0948C49.8232 98.7099 42.3615 99.5307 34.8731 99.5404C30.148 99.545 25.4452 98.9461 20.899 97.7607C19.6423 97.4368 19.4924 97.0236 20.3694 96.2329C26.2729 90.9016 32.0219 85.4161 38.5691 80.7267C42.8705 77.6444 47.6186 75.4466 52.9584 74.3812C53.2389 74.3096 53.5154 74.2251 53.7867 74.128C53.4182 73.5426 52.794 73.4147 52.2986 73.1738C46.7429 70.4588 42.9372 66.2038 39.8371 61.2969C36.6316 56.2206 34.0393 50.8792 31.58 45.4741C30.1075 42.2381 28.6334 39.0052 27.518 35.6438C27.3582 35.1656 26.9281 34.6218 27.3292 34.1724C27.773 33.6744 28.3795 34.1233 28.8936 34.2347C32.6062 35.0323 36.4134 35.3059 40.1398 36.0512C51.0958 38.2452 60.7648 42.6969 68.8445 49.8934C73.1137 53.6973 75.0402 58.4566 74.7553 63.9289C74.6345 65.81 74.07 67.6442 73.1013 69.3038C72.7931 69.8508 72.6984 70.3143 73.263 70.7988C75.5989 72.7989 78.1128 74.6254 80.2118 77.0596C80.4496 76.5869 80.5831 76.0754 80.6044 75.5549C80.6257 75.0343 80.5344 74.5151 80.3359 74.0274C79.2548 71.2512 78.1679 68.4667 77.6516 65.5414C76.5149 59.1019 78.4599 53.2989 82.0468 47.8548C83.5512 45.6124 85.318 43.5288 87.3155 41.6416C87.598 41.3969 87.7975 41.082 87.8899 40.7349C87.9822 40.3878 87.9634 40.0236 87.8357 39.6863C86.9695 36.6796 86.1065 33.6745 84.5409 30.8914C84.3575 30.5669 84.1156 30.1796 84.5613 29.9436C85.0808 29.6696 85.3555 30.1174 85.5595 30.4533C86.293 31.6286 86.8962 32.8691 87.3601 34.1559C87.8931 35.7155 88.4909 37.2576 89.0189 38.8187C89.2545 39.5133 89.588 39.6552 90.1993 39.1661C93.6707 36.3779 97.7934 34.4261 101.387 31.7922C102.365 31.0763 102.888 31.3413 103.128 32.6356C103.869 36.6424 103.662 40.6618 103.365 44.689C103.027 49.4801 101.672 54.164 99.3789 58.4755C98.1569 60.8584 96.6398 63.1031 94.858 65.1646C94.3569 65.7308 94.2802 66.1684 94.5314 66.9441C95.0208 68.4591 95.1572 70.0729 95.4109 71.648C96.383 77.6789 97.3484 83.7118 98.3073 89.7467C98.4181 90.437 98.5953 91.0614 99.2765 91.4897C101.969 93.1827 104.353 95.2085 106.599 97.3775C106.779 97.538 106.969 97.6894 107.166 97.831C107.608 97.5382 107.469 97.147 107.528 96.8131C108.557 91.1566 108.758 85.3694 110.678 79.8518C113.23 72.5157 116.937 65.6793 121.289 59.1228C122.532 57.2498 123.757 55.3722 125.142 53.5815C125.966 52.5168 126.183 52.4877 126.951 53.586C129.181 56.7725 131.007 60.1692 133.034 63.4613C137.813 71.2223 138.771 79.56 137.814 88.2385C137.263 93.4807 136.331 98.6831 135.026 103.811C134.957 104.074 134.737 104.402 134.99 104.602C135.34 104.88 135.615 104.49 135.883 104.346C143.774 100.121 151.932 96.3343 160.313 93.0057C162.453 92.1505 164.543 91.1848 166.597 90.1593C167.109 89.9028 167.656 89.2215 168.319 89.696C168.863 90.0859 168.531 90.7488 168.453 91.2826C167.93 94.8457 166.816 98.314 165.152 101.566C161.231 109.329 155.809 116.1 149.09 121.984C146.7 124.077 144.062 125.886 141.031 127.165C139.954 127.58 138.817 127.848 137.655 127.959C132.179 128.671 126.961 127.83 122.01 125.62C121.03 125.183 120.43 125.409 119.556 125.853C116.658 127.323 115.065 129.567 114.324 132.461C114.049 133.551 113.66 134.613 113.161 135.632C112.262 137.45 112.818 139.037 113.825 140.612C114.637 141.839 115.617 142.964 116.741 143.961C118.305 145.396 119.863 146.836 121.416 148.28C121.789 148.629 122.128 148.982 122.748 148.783C124.013 148.372 125.318 148.068 126.523 147.509C127.055 147.264 127.311 146.94 127.162 146.365C126.455 143.625 127.839 141.529 129.777 139.706C133.218 136.465 137.581 134.871 142.349 134.255C149.499 133.333 156.678 133.555 163.849 134.072C164.26 134.102 164.819 134.013 164.988 134.458C165.134 134.844 164.647 135.058 164.391 135.311C162.355 137.323 160.476 139.471 158.299 141.359C155.183 144.063 151.567 146.083 147.832 147.963C145.442 149.166 143.15 150.524 140.494 151.221C136.763 152.198 133.223 151.999 129.941 149.935C129.764 149.823 129.604 149.683 129.423 149.577C128.744 149.178 128.418 148.105 127.544 148.256C126.158 148.495 124.827 149.032 123.487 149.481C123.013 149.64 123.148 149.982 123.395 150.254C124.173 151.109 124.941 151.973 125.76 152.796C126.312 153.352 127.053 153.144 127.724 153.032C139.007 151.16 148.744 154.139 157.184 161.06C159.87 163.263 162.316 165.696 164.269 168.505C165.15 169.771 164.995 170.084 163.398 170.193C159.305 170.477 155.285 171.436 151.139 171.271C144.469 171.008 138.354 169.365 133.198 165.274C130.713 163.302 129.114 160.759 127.791 158.048C127.278 156.994 126.826 155.915 126.331 154.853C126.236 154.589 126.081 154.347 125.876 154.143C124.01 152.646 122.401 150.92 120.675 149.296C120.584 149.211 120.483 149.136 120.386 149.058L120.088 149.256L120.08 149.256ZM81.7124 79.7315C82.5994 82.1461 85.4167 85.2092 87.5985 85.9392C90.1855 86.8416 92.7086 87.8922 95.1533 89.0847C95.4738 89.2357 95.819 89.6062 96.1973 89.3127C96.4943 89.0822 96.2714 88.7092 96.2234 88.4034C95.2256 82.0599 94.2259 75.7162 93.2242 69.3721C93.1515 68.9074 93.2625 68.2774 92.7515 68.0843C92.1806 67.8693 91.8626 68.4799 91.5484 68.8141C89.0413 71.464 86.0119 73.6515 82.6209 75.2607C82.2228 75.4543 81.8741 75.7008 81.7866 76.1241C81.5318 77.3841 81.4518 78.6508 81.7149 79.7308L81.7124 79.7315ZM106.53 124.805C107.613 127.745 109.026 130.57 109.994 133.548C110.077 133.798 110.087 134.173 110.457 134.198C110.828 134.222 110.896 133.86 111.012 133.62C111.609 132.383 112.248 131.161 112.757 129.893C113.296 128.555 114.223 127.353 114.397 125.891C114.722 123.119 112.988 121.156 111.294 119.18C110.88 118.696 110.473 118.971 110.049 119.206C108.83 119.885 107.608 120.57 106.227 120.943C105.461 121.15 105.313 121.551 105.575 122.205C105.919 123.063 106.213 123.939 106.527 124.806L106.53 124.805ZM112.717 141.891C112.376 142.753 112.563 143.301 112.626 143.843C112.893 146.181 113.077 148.53 112.906 150.872C112.804 152.231 113.119 153.235 114.348 154.047C114.964 154.455 115.437 155.064 115.928 155.616C117.407 157.288 117.379 157.256 119.517 156.391C120.465 156.008 120.693 155.46 120.487 154.597C120.225 153.512 120.088 152.396 119.769 151.326C119.326 149.834 119.098 148.195 118.001 147.005C116.398 145.265 114.302 143.951 112.721 141.895L112.717 141.891ZM66.3532 75.017C68.1665 75.939 69.8538 76.5591 71.2279 77.546C73.5724 79.2304 76.1926 79.7948 79.0495 79.8266C79.3763 79.8292 79.7822 80.0573 79.9953 79.7088C80.1831 79.4034 79.9093 79.1017 79.7439 78.8271C79.5961 78.5834 79.4321 78.3482 79.253 78.123C77.3371 75.6726 74.7271 73.8607 72.3789 71.8114C71.8701 71.3677 71.4236 71.5938 71.0389 71.9827C69.7668 73.3306 68.1577 74.3724 66.3507 75.0178L66.3532 75.017ZM115.731 123.492C116.79 121.052 117.844 118.937 118.561 116.694C118.758 116.08 118.315 115.833 117.809 115.626C116.626 115.143 115.388 114.771 114.296 114.108C113.765 113.785 113.511 114.042 113.382 114.519C113.103 115.524 112.671 116.487 112.098 117.379C111.967 117.564 111.91 117.785 111.937 118.004C111.964 118.224 112.073 118.427 112.246 118.58C113.665 120.048 114.84 121.703 115.73 123.49L115.731 123.492ZM112.85 154.017C112.473 157.228 112.124 160.183 111.516 163.105C111.176 164.734 111.447 165.226 113.184 166.232C113.762 163.49 114.898 160.874 116.532 158.522C116.615 158.403 116.653 158.263 116.641 158.123C116.629 157.983 116.566 157.85 116.464 157.745C115.473 156.454 114.433 155.202 112.847 154.018L112.85 154.017ZM117.381 125.156C118.503 124.993 119.515 124.438 120.207 123.607C122.092 121.263 123.488 118.649 124.817 116.01C124.901 115.842 124.973 115.578 124.887 115.448C124.722 115.188 124.429 115.362 124.187 115.414C123.178 115.629 122.178 115.89 121.158 116.046C120.485 116.148 120.217 116.465 120.068 117.036C119.462 119.367 118.515 121.595 117.663 123.85C117.514 124.247 117.232 124.632 117.379 125.157L117.381 125.156ZM83.2924 84.4489C82.3266 83.5833 82.1224 82.2429 80.8678 81.623C79.3659 80.88 77.7072 80.9049 76.0805 80.9577C75.1353 80.987 75.0722 81.8546 74.9464 82.4816C74.8018 83.2003 75.54 83.1213 75.9983 83.2222C77.9211 83.6459 79.848 84.0557 81.779 84.4516C82.2168 84.5411 82.6555 84.7995 83.2899 84.4496L83.2924 84.4489Z" fill="#CDE998"/>
<path d="M23.8289 160.382C24.7935 161.477 25.7743 162.561 26.7156 163.672C27.4237 164.525 28.3029 165.246 29.3057 165.795C30.6048 166.498 31.8706 167.254 33.1837 167.934C35.4377 169.1 37.0466 170.821 38.3099 172.847C38.7221 173.508 39.1347 174.167 39.781 174.65C43.2063 177.219 45.106 180.639 46.4733 184.415C47.43 187.061 47.8845 189.808 48.4639 192.515C49.1168 195.57 50.0373 198.588 50.3981 201.689C51.0013 206.859 52.5124 211.808 54.2972 216.721C54.9802 218.631 55.838 220.483 56.8615 222.26C57.1976 222.838 57.5043 223.745 58.3899 223.559C59.2022 223.39 58.7791 222.536 58.8171 221.984C59.1787 216.692 58.6604 211.419 58.3547 206.143C58.0704 201.241 57.7299 196.34 57.5837 191.432C57.5329 188.916 57.2584 186.407 56.7631 183.932C56.4229 182.308 56.5747 180.661 56.9119 179.051C57.3449 176.981 57.2633 174.986 56.3029 173.041C56.1361 172.729 56.0541 172.383 56.0641 172.035C56.2755 169.556 56.417 167.046 58.01 164.895C59.0024 163.555 59.6141 162.087 59.6038 160.479C59.5915 158.701 60.4005 157.26 61.4387 155.866C63.4465 153.172 65.2692 150.361 67.639 147.899C68.9212 146.565 69.3666 144.849 69.8694 143.177C69.9962 142.759 70.1826 142.358 70.3375 141.959C70.8191 142.001 70.7328 142.322 70.7904 142.534C72.2381 147.83 74.353 152.849 77.89 157.302C80.9094 161.103 82.2747 165.335 82.459 170.082C82.561 172.733 81.7877 175.087 81.2181 177.558C80.1396 182.248 78.169 186.695 76.8997 191.331C76.7003 191.966 76.4189 192.578 76.0614 193.152C74.8772 195.215 73.8432 197.314 73.1815 199.592C72.5184 201.881 71.1522 203.925 69.9061 205.985C68.4734 208.356 67.0282 210.701 66.4058 213.4C66.2171 214.202 65.9017 214.975 65.4696 215.693C64.2108 217.794 63.9441 220.189 63.0327 222.392C62.8374 222.862 62.4398 223.651 63.0944 223.925C63.6924 224.175 64.1003 223.44 64.4725 223.007C68.2884 218.586 71.7536 213.953 74.438 208.86C76.2867 205.349 78.2963 201.912 80.1665 198.41C81.6972 195.54 83.4231 192.737 85.0813 189.915C86.4005 187.67 86.9289 185.262 87.4492 182.826C87.7449 181.456 88.5492 180.222 89.7247 179.337C92.2157 177.367 94.3301 175.191 95.4358 172.224C96.037 170.613 97.5537 169.477 99.0914 168.497C101.607 166.893 104.505 166.1 107.359 165.219C109.575 164.536 111.736 163.753 113.587 162.393C113.787 162.246 113.993 161.973 114.292 162.143C114.55 162.289 114.401 162.545 114.335 162.747C113.388 165.686 113.715 168.597 114.512 171.511C115.235 174.143 115.216 176.822 114.871 179.486C114.483 182.486 113.95 185.471 113.493 188.464C113.197 190.4 112.378 192.102 111.198 193.747C108.014 198.193 103.569 201.356 98.9137 204.328C93.9967 207.467 88.8193 210.271 84.1283 213.701C80.2159 216.56 75.9722 218.994 72.1021 221.9C70.4358 223.153 68.8851 224.542 67.0586 225.613C66.9478 225.687 66.8502 225.777 66.769 225.879C66.5588 226.116 66.1879 226.345 66.3981 226.683C66.5949 227 67.0098 226.913 67.3415 226.852C70.4986 226.273 73.6765 225.733 76.6712 224.62C81.9424 222.663 87.2552 220.719 92.0556 217.908C96.7869 215.139 101.714 212.653 106.232 209.568C109.302 207.474 112.335 205.298 115.97 204.012C117.269 203.521 118.665 203.284 120.07 203.316C120.987 203.35 121.002 203.679 120.874 204.391C120.317 207.473 118.598 210.027 116.666 212.489C115.872 213.501 115.249 214.544 115.131 215.828C115.06 216.619 114.636 217.31 114.052 217.927C112.026 220.057 110.125 222.302 107.229 223.553C105.861 224.143 104.494 224.728 103.013 225.024C98.7662 225.872 94.4843 226.586 90.2726 227.551C86.0046 228.53 81.6608 229.006 77.3214 229.494C74.5731 229.802 71.7864 229.66 69.017 229.553C68.4056 229.529 67.5055 229.361 67.3959 229.96C67.2695 230.649 68.2669 230.611 68.788 230.744C72.5792 231.717 76.4814 231.81 80.3841 231.912C83.2562 231.988 86.0248 231.448 88.8253 230.994C92.4321 230.409 95.954 229.457 99.5883 228.999C99.9095 228.957 100.237 228.982 100.546 229.072C100.856 229.162 101.139 229.315 101.376 229.52C101.501 229.617 101.715 229.776 101.692 229.859C101.44 230.745 102.005 231.353 102.488 232.001C102.787 232.402 102.528 232.65 102.137 232.809C100.325 233.551 98.7711 234.556 97.6346 236.109C97.0184 236.952 95.9737 237.407 94.9914 237.86C94.2463 238.188 93.6143 238.699 93.165 239.336C92.4894 240.304 91.4652 240.773 90.2689 240.94C87.3534 241.346 84.5234 241.201 81.7012 240.223C79.4363 239.439 77.3549 238.377 75.2538 237.321C74.8495 237.083 74.4263 236.875 73.9878 236.697C71.0633 235.735 68.4477 234.23 65.7888 232.8C65.4939 232.642 65.1735 232.423 64.8708 232.745C64.6108 233.021 64.8296 233.291 65.0199 233.506C67.4847 236.286 69.7376 239.237 72.6739 241.639C74.2625 242.939 75.8957 244.194 77.1168 245.818C77.9759 246.962 78.5938 248.173 78.1953 249.62C78.1633 249.838 78.0938 250.051 77.9893 250.249C76.3578 252.498 76.5643 254.936 77.1236 257.403C77.3031 258.195 76.9754 258.375 76.2023 258.205C74.773 257.889 73.3391 257.59 71.9068 257.28C71.7701 257.267 71.6387 257.224 71.5235 257.155C69.653 255.577 67.088 254.89 65.7871 252.486C64.7222 250.52 63.3692 248.614 62.3031 246.629C60.9003 244.017 60.4612 241.121 60.1755 238.214C60.0002 236.142 60.129 234.058 60.5584 232.018C60.8655 230.426 59.9933 229.691 58.2625 230.03C57.3254 230.213 56.3959 230.426 55.4739 230.671C52.6438 231.428 49.8804 230.943 47.0498 230.528C43.0924 229.946 39.8447 227.803 36.1362 226.715C34.1471 226.13 32.1723 225.508 30.1955 224.885C29.5127 224.67 28.8269 224.423 28.3056 223.951C26.0608 221.917 23.4484 220.247 21.388 218.034C20.9868 217.603 20.4894 217.203 20.2487 216.705C19.0694 214.268 17.269 212.184 15.7993 209.914C15.6009 209.607 15.1823 209.273 15.4464 208.906C15.6837 208.577 16.1444 208.842 16.5067 208.851C17.018 208.862 17.5403 208.975 18.0403 208.915C20.2907 208.641 22.3106 209.397 24.2606 210.202C25.5574 210.736 26.8027 211.281 28.2337 211.364C29.0078 211.41 29.7769 211.603 30.3116 212.096C31.9932 213.647 34.1474 214.5 36.1561 215.563C37.7114 216.359 39.2026 217.258 40.618 218.251C43.9816 220.671 47.866 222.312 51.4997 224.328C52.0267 224.621 52.548 224.923 53.077 225.216C53.3692 225.378 53.6916 225.611 53.998 225.304C54.3093 224.993 54.0275 224.701 53.8146 224.472C52.3679 222.92 50.9384 221.351 49.4396 219.84C46.8071 217.186 44.0622 214.599 41.783 211.696C39.3652 208.621 36.4662 205.944 33.9369 202.968C30.8522 199.314 28.0399 195.473 25.5192 191.471C24.1766 189.356 23.5806 186.962 23.3884 184.526C23.2871 183.255 23.1115 182.021 22.5837 180.845C22.1163 179.79 21.9913 178.633 22.2239 177.515C22.6619 175.128 22.9847 172.732 23.7253 170.388C24.3399 168.444 24.1306 166.39 23.9767 164.378C23.8752 163.07 23.7234 161.764 23.5946 160.457L23.8289 160.382Z" fill="#E6F6C7"/>
</svg>
