<svg width="301" height="744" viewBox="0 0 301 744" fill="none" xmlns="http://www.w3.org/2000/svg">
<g clip-path="url(#clip0_711_146)">
<path d="M163.328 296C163.702 296.83 164.492 296.927 165.239 297.104C175.792 299.587 184.54 304.652 190.009 314.439C191.162 316.497 191.898 318.628 191.875 321.029C191.836 324.956 191.979 328.851 190.005 332.503C189.011 334.341 190.919 337.623 192.973 338.032C197.513 338.939 201.968 340.171 206.412 341.449C206.936 341.599 207.464 342.001 208.216 341.464C206.578 339.329 205.514 336.889 204.435 334.445C202.026 328.994 200.673 323.265 199.533 317.447C198.7 313.207 198.434 308.926 198.076 304.64C197.706 300.239 201.074 297.629 205.09 299.359C208.312 300.745 211.048 302.895 213.608 305.25C216.402 307.818 218.888 310.69 221.435 313.493C224.672 317.057 226.168 321.551 228.006 325.851C228.873 327.886 228.473 330.06 228.006 332.133C227.174 335.847 225.84 339.399 224.017 342.738C222.803 344.962 223.948 348.035 226.549 349.024C231.244 350.811 235.757 352.966 240.1 355.479C241.268 356.154 242.389 356.907 243.534 357.618C243.862 357.822 244.232 358.108 244.594 357.857C245.087 357.517 244.817 357.035 244.613 356.649C242.004 351.746 241.811 346.418 241.962 341.055C242.073 337.075 242.675 333.129 242.852 329.145C242.995 325.979 244.166 323.002 246.174 320.435C247.053 319.307 247.5 317.952 247.997 316.624C248.988 313.976 251.385 313.312 253.516 315.111C256.491 317.624 259.008 320.539 260.604 324.129C261.421 325.971 262.488 327.635 263.621 329.272C266.385 333.268 267.911 337.557 267.082 342.518C266.762 344.429 266.951 346.34 267.622 348.221C268.886 351.761 267.984 354.977 265.121 357.429C263.802 358.556 262.45 359.668 260.819 360.328C259.471 360.872 258.796 361.706 258.865 363.251C258.939 364.884 259.178 366.212 260.858 367.065C264.477 368.903 268.227 370.393 272.046 371.744C279.026 374.215 286.098 376.296 293.471 377.207C295.506 377.458 297.556 377.578 299.591 377.844C300.608 377.979 301.884 378.253 301.684 379.589C301.51 380.748 300.346 381.026 299.24 380.991C298.793 380.975 298.335 380.956 297.903 380.852C286.618 378.107 275.264 375.617 264.519 371.015C257.235 367.895 250.39 363.965 243.65 359.83C241.245 358.355 237.753 359.911 237.368 362.776C236.531 368.941 232.608 371.794 227.891 372.235C224.291 372.57 220.949 374.358 217.149 374.126C213.85 373.926 210.894 372.787 207.853 371.802C206.751 371.443 206.882 370.779 207.53 370.057C212.733 364.262 218.568 359.301 225.813 356.216C226.985 355.718 228.195 355.676 229.39 356.097C232.072 357.046 234.932 357.486 236.859 360.112C237.849 361.463 238.616 359.606 239.364 359.058C240.254 358.409 240.096 357.591 239.183 357.042C237.865 356.247 236.52 355.483 235.148 354.784C227.513 350.896 219.469 348.024 211.403 345.209C208.512 344.202 205.942 346.02 205.714 349.159C205.614 350.568 205.475 351.973 205.375 353.382C205.148 356.602 203.807 359.181 201.039 360.93C194.168 365.266 187.092 369.154 179.006 370.729C176.316 371.254 173.641 370.984 171.028 370.088C169.525 369.571 168.87 368.602 169.051 367.011C169.213 365.582 169.621 364.308 170.454 363.081C174.273 357.456 178.836 352.487 184.167 348.333C188.125 345.248 192.518 342.727 197.848 343.07C200.022 343.209 201.922 344.175 203.421 345.815C203.945 346.391 204.435 347.143 205.325 346.734C206.308 346.279 206.967 345.387 207.044 344.321C207.125 343.182 206 343.14 205.26 342.916C195.821 340.098 186.298 337.789 176.335 338.048C172.778 338.14 171.186 340.132 172.169 343.657C173.094 346.981 174.065 350.344 172.412 353.626C170.543 357.344 168.935 361.197 166.322 364.536C162.056 369.988 156.637 373.648 150.12 375.779C148.108 376.439 146.108 376.516 144.077 375.779C142.555 375.227 141.818 374.153 141.691 372.609C141.56 370.984 141.811 369.401 142.323 367.856C144.193 362.231 146.216 356.683 149.954 351.95C150.667 351.047 151.28 350.047 151.827 349.031C154.583 343.939 159.177 341.484 164.519 340.113C166.303 339.654 167.933 340.379 169.548 341.024C170.122 341.256 170.762 341.711 171.271 340.974C171.76 340.26 171.891 339.422 171.706 338.569C171.529 337.746 170.843 337.731 170.192 337.685C160.426 337.001 150.694 337.048 141.032 338.885C138.639 339.341 137.097 341.418 137.641 344.429C138.847 351.074 136.091 356.259 132.307 361.312C129.489 365.073 125.77 367.833 122.394 370.937C118.544 374.478 113.491 375.381 108.416 375.539C105.159 375.644 103.791 373.81 104.538 370.644C105.174 367.953 106.041 365.328 107.818 363.104C108.331 362.459 108.774 361.706 109.044 360.93C110.851 355.726 114.547 351.838 118.224 348.008C120.594 345.541 123.789 344.082 126.903 342.731C129.432 341.634 132.095 342.596 134.688 342.974C136.519 343.24 137.19 342.638 137.097 340.982C137.047 340.074 136.685 339.704 135.756 339.87C127.038 341.441 118.251 342.65 109.718 345.136C108.15 345.591 106.727 348.738 107.514 350.703C109.564 355.815 107.868 360.313 105.49 364.667C102.827 369.54 99.2275 373.752 95.6047 377.929C93.7085 380.114 91.319 381.589 88.6058 382.547C86.4552 383.303 84.7363 384.821 82.7399 385.848C82.0578 386.199 81.3679 386.566 80.6395 386.782C77.6835 387.658 75.8258 386.241 76.2459 383.215C77.036 377.543 78.0958 371.906 80.5277 366.66C81.5837 364.382 83.0059 362.32 84.7479 360.475C85.669 359.498 86.54 358.436 87.2222 357.282C89.0837 354.124 92.0205 352.135 94.8686 350.062C97.7822 347.939 100.954 347.526 104.365 348.819C106.157 349.499 106.604 349.132 106.878 347.225C107.086 345.769 106.411 345.279 105.113 345.568C99.0425 346.908 92.8337 346.391 86.7057 346.923C83.4953 347.201 81.0326 349.599 81.7726 352.738C82.817 357.154 81.2947 360.93 79.7993 364.853C76.1496 374.427 68.7845 380.091 59.82 384.06C58.4364 384.674 56.8524 384.902 55.3339 385.11C53.6767 385.338 52.7556 384.492 52.7402 382.805C52.7286 381.72 52.8327 380.609 53.087 379.555C55.5343 369.424 59.3575 360.065 68.1524 353.649C71.4476 351.244 74.9625 349.522 79.2713 350.626C80.6857 350.989 82.2736 349.178 82.0231 347.742C81.8998 347.035 81.3718 347.024 80.8592 347.012C74.766 346.869 68.6727 346.707 62.5756 346.626C60.8182 346.603 58.8989 348.649 59.0531 350.981C59.4847 357.595 55.3224 361.536 51.0482 365.374C46.751 369.231 41.6136 371.555 35.9481 372.628C34.2023 372.96 32.1442 373.543 30.8223 372.053C29.4734 370.536 30.6527 368.694 31.3117 367.165C32.8109 363.687 34.4104 360.235 37.4473 357.722C38.1796 357.12 38.7963 356.328 39.3243 355.533C41.7908 351.788 45.641 350.205 49.6299 348.881C51.8884 348.128 54.0621 348.931 56.2242 349.549C56.8331 349.722 57.4729 350.159 58.0741 349.78C58.9336 349.24 59.4847 348.294 59.3768 347.344C59.2573 346.275 58.1666 346.584 57.4768 346.653C52.3779 347.171 47.2212 347.167 42.1955 348.402C40.9776 348.703 40.2415 349.224 39.9602 350.433C38.989 354.641 36.2757 357.768 33.3043 360.618C31.6393 362.216 29.404 363.073 27.107 363.571C20.8056 364.942 15.0284 363.316 9.49405 360.405C7.06215 359.139 4.60328 357.853 3 355.456L3 353.139C5.85969 350.197 8.54595 347.055 11.6215 344.36C17.2291 339.445 23.7154 337.461 31.0728 339.781C34.5645 340.881 37.0697 343.399 39.3281 346.147C40.018 346.989 40.5922 347.669 41.8564 347.441C47.0978 346.487 52.4164 346.194 57.7119 345.707C58.6985 345.618 60.0898 345.916 60.0975 344.202C60.1014 342.746 59.8778 341.549 57.9624 341.484C53.8308 341.348 51.0945 338.87 48.9439 335.665C44.1264 328.481 41.9951 320.601 43.0126 311.93C43.4596 308.123 44.9743 307.254 48.1924 309.219C52.5359 311.872 55.6075 315.686 57.7735 320.249C58.4634 321.705 59.0454 323.207 60.4367 324.172C60.4444 324.948 60.6024 325.689 60.8182 326.442C62.0091 330.646 62.6219 334.862 61.0996 339.148C60.6679 340.368 60.745 341.688 60.8529 342.978C61.0263 345.043 61.6584 345.727 63.7665 345.742C69.6015 345.781 75.4327 346.182 81.2754 345.846C82.9481 345.75 83.2294 345.101 82.8093 343.646C82.3006 341.885 81.1097 342.48 80.0152 342.731C75.3209 343.804 70.6614 341.943 67.8171 338.067C64.6761 333.785 62.275 329.141 60.4174 324.184C60.0821 323.423 59.7314 322.662 59.4076 321.898C57.8467 318.196 56.7522 314.37 56.9295 310.316C57.0991 306.443 59.0492 305.274 62.7298 306.455C66.6262 307.706 69.7865 310.03 72.758 312.74C76.4348 316.099 78.6046 320.516 81.26 324.601C84.6014 329.743 85.9504 335.106 83.5108 341.055C82.9365 342.453 84.1158 345.507 85.141 345.711C86.0814 345.896 87.0526 346.051 88.0046 346.016C97.3198 345.676 106.55 344.63 115.642 342.541C116.42 342.364 117.48 342.325 117.615 341.302C117.735 340.41 117.368 339.488 116.671 338.866C115.919 338.198 115.229 338.866 114.559 339.171C108.886 341.731 103.452 341.495 98.4027 337.65C94.8108 334.913 91.9087 331.465 88.864 328.164C85.0793 324.056 82.6243 319.238 81.0056 313.96C80.3736 311.906 82.0231 309.277 84.1505 308.991C87.4881 308.547 90.66 309.459 93.6893 310.737C101.255 313.926 107.903 318.319 112.848 325.11C115.364 328.566 117.492 331.89 117.234 336.472C117.025 340.163 119.114 341.607 122.687 340.928C123.508 340.773 124.329 340.627 125.15 340.484C133.301 339.075 141.321 336.909 149.584 336.113C150.028 336.071 150.513 336.094 150.752 335.608C150.872 335.364 150.841 335.094 150.609 334.916C150.182 334.592 149.762 334.781 149.345 334.963C145.834 336.48 142.497 336.067 138.92 334.75C133.131 332.615 128.973 328.662 124.984 324.187C121.473 320.249 119.712 315.416 117.245 310.941C116.575 309.729 116.586 308.343 116.652 306.98C116.717 305.663 117.395 304.814 118.617 304.413C121.434 303.486 124.078 303.687 126.318 305.826C127.327 306.787 128.514 307.385 129.79 307.837C131.844 308.567 133.918 309.246 135.991 309.922C145.715 313.076 152.286 321.269 152.066 332.5C152.016 335.14 152.926 336.314 155.562 336.075C158.653 335.793 161.705 336.16 164.777 336.148C168.238 336.133 171.699 336.187 175.164 336.395C179.384 336.65 183.627 336.538 187.828 337.21C188.387 337.299 189.061 337.337 189.339 336.673C189.666 335.889 189.339 335.144 188.93 334.484C188.568 333.893 188.059 334.133 187.585 334.403C181.577 337.824 174.874 334.191 171.652 329.751C166.935 323.242 162.723 316.323 160.661 308.455C159.609 304.44 158.325 300.258 159.863 295.996L163.332 295.996L163.328 296Z" fill="#CDE998"/>
<path d="M250.032 424.961C251.254 426.691 252.772 426.764 254.742 426.231C264.585 423.559 274.459 420.996 284.344 418.475C287.998 417.544 291.744 416.981 295.232 415.433C298.072 414.174 300.994 413.691 304 414.911L304 416.842C300.57 417 297.113 415.9 293.698 417.228C291.972 417.9 290.141 418.297 288.345 418.788C282.649 420.343 276.948 421.892 271.245 423.432C269.78 423.83 269.26 424.918 269.036 426.281C268.836 427.524 269.325 428.293 270.4 428.961C274.732 431.656 275.63 436.682 272.509 440.767C271.568 441.998 270.674 443.249 269.934 444.604C268.531 447.172 266.654 449.384 264.596 451.403C262.958 453.009 261.297 454.662 259.205 455.727C258.576 456.048 257.913 456.403 257.208 455.951C256.445 455.465 256.696 454.735 256.807 454.036C257.05 452.492 256.958 450.967 256.526 449.454C254.973 444.018 255.508 438.628 257.859 433.644C259.617 429.914 261.571 425.594 267.271 427.358C267.88 427.548 268.235 427.096 268.35 426.532C268.481 425.907 268.662 425.216 268.157 424.698C267.614 424.139 266.932 424.502 266.334 424.648C256.792 426.976 247.292 429.486 237.68 431.517C236.092 431.852 235.425 432.667 235.402 434.304C235.383 435.648 235.706 436.574 236.859 437.393C240.651 440.091 243.63 444.272 241.603 450.635C240.247 454.886 238.431 458.897 236.562 462.924C235.032 466.221 232.839 468.858 230.018 471.112C226.665 473.792 223.844 473.224 222.044 469.267C221.647 468.394 221.304 467.468 221.131 466.53C220.248 461.789 219.335 457.048 220.595 452.202C220.93 450.909 221.011 449.531 221.057 448.187C221.227 443.458 223.347 439.678 226.715 436.539C228.449 434.922 230.492 434.065 232.897 434.987C234.292 435.524 234.581 434.837 234.616 433.636C234.662 432.03 233.699 432.115 232.565 432.242C223.243 433.296 213.92 433.841 204.55 432.744C201.783 432.42 200.057 434.949 201.209 437.528C203.256 442.11 202.87 446.601 200.604 450.905C195.513 460.58 187.481 466.703 177.083 469.707C172.893 470.916 169.91 468.869 170.192 464.429C170.219 463.982 170.192 463.526 170.257 463.082C171.76 452.399 176.632 443.462 184.629 436.35C188.691 432.74 193.443 431.316 198.604 434.377C199.833 435.107 200.404 434.478 200.816 433.489C201.305 432.312 200.431 432.057 199.575 431.833C191.042 429.613 182.436 427.895 173.556 428.046C170.585 428.096 168.496 430.528 169.363 433.412C171.047 439.006 169.552 443.886 166.631 448.624C164.399 452.245 161.628 455.465 159.296 459.013C156.178 463.765 151.561 466.792 146.659 469.406C145.692 469.923 144.616 470.155 143.503 470.178C140.959 470.24 139.321 469.074 138.67 466.638C138.288 465.202 138.126 463.735 138.427 462.244C139.279 457.997 140.785 453.921 142.635 450.071C144.963 445.226 147.553 440.365 151.284 436.451C155.566 431.953 160.241 427.66 167.378 430.416C167.552 430.482 167.768 430.544 167.937 430.505C168.781 430.308 169.359 429.729 169.321 428.895C169.278 427.907 168.454 428.192 167.841 428.273C165.366 428.606 162.823 428.687 160.433 429.343C153.192 431.323 145.992 433.455 138.681 435.184C135.887 435.844 135.112 437.593 136.508 440.176C137.221 441.497 137.621 442.91 138.115 444.299C140.196 450.176 139.552 456.098 137.456 461.665C135.586 466.626 131.921 470.553 127.886 474.066C125.805 475.877 123.481 477.313 121.326 479L118.629 479C114.516 474.39 113.734 468.989 114.898 463.144C115.742 458.912 116.887 454.781 118.802 450.882C121.801 444.774 125.847 439.979 133.074 438.983C133.328 438.948 133.578 438.879 133.829 438.825C134.731 438.628 134.881 437.96 134.785 437.2C134.658 436.2 133.956 436.408 133.324 436.59C129.004 437.821 124.687 439.064 120.371 440.307C120.247 440.342 120.132 440.446 120.012 440.446C116.193 440.404 114.917 443.273 113.275 446.002C110.504 450.612 106.662 453.994 101.12 454.92C99.4394 455.202 97.7937 454.785 96.1558 454.534C91.847 453.866 87.5459 453.133 83.2525 452.361C79.7415 451.731 76.9473 449.778 74.8083 447.041C72.9391 444.651 73.733 442.022 75.2477 439.852C81.6762 430.632 95.7087 425.478 106.396 432.32C109.244 434.142 112.192 435.941 114.378 438.624C115.411 439.894 116.644 440.192 118.143 439.891C122.367 439.049 126.452 437.682 130.599 436.543C131.185 436.381 132.033 436.157 131.659 435.288C131.328 434.512 130.684 433.86 129.667 434.312C128.491 434.829 127.308 435.339 126.183 435.949C123.874 437.2 121.415 437.288 119.08 436.431C111.31 433.59 103.933 429.899 97.9672 424.069C95.015 421.189 92.6332 417.672 90.263 414.255C88.1548 411.217 89.0836 409.236 92.6872 408.414C97.7205 407.263 102.623 407.283 107.652 409.001C114.709 411.41 121.08 414.711 126.175 420.27C129.1 423.459 131.042 427.007 131.042 431.47C131.042 434.138 132.765 435.381 135.328 434.956C144.539 433.424 153.226 429.868 162.357 428.026C163.096 427.876 163.605 427.586 163.239 426.729C162.931 426.003 162.518 425.123 161.563 425.71C158.294 427.714 155.13 426.976 152.024 425.436C149.049 423.965 146.509 422.007 144.79 419.012C143.884 417.432 142.45 416.155 141.244 414.769C135.209 407.854 132.164 399.607 130.472 390.789C129.2 384.157 132.314 381.485 138.751 383.628C150.301 387.481 158.533 395.009 163.258 406.31C164.253 408.692 165.023 411.112 165.44 413.68C165.987 417.054 165.536 420.197 163.979 423.22C162.962 425.193 164.137 427.154 166.369 427.231C169.887 427.358 173.379 426.849 176.936 427.119C182.394 427.536 187.774 428.308 193.139 429.304C193.455 429.362 193.767 429.455 194.083 429.478C194.804 429.528 195.64 429.602 195.544 428.517C195.474 427.706 195.127 426.984 194.071 427.165C186.209 428.505 181.311 424.432 177.144 418.371C173.194 412.622 171.244 406.117 169.228 399.631C168.365 396.855 168.245 393.805 168.072 390.863C167.856 387.102 171.425 384.658 175.067 385.936C179.835 387.604 183.916 390.453 187.273 394.125C189.948 397.052 193.1 399.565 195.243 403.001C195.952 404.136 196.314 405.607 198.064 406.63C197.501 403.692 197.991 401.183 198.01 398.654C198.022 397.148 198.307 395.758 199.452 394.6C200.912 393.117 202.481 392.631 204.504 393.326C207.322 394.295 210 395.43 212.255 397.472C217.088 401.85 221.458 406.553 224.437 412.479C226.962 417.502 226.95 423.042 222.079 426.667C220.784 427.633 221.196 428.887 221.624 430.173C222.067 431.501 222.884 431.968 224.229 431.895C232.785 431.424 241.183 430.022 249.438 427.71C251.531 427.123 249.901 425.872 250.067 424.946L250.047 424.961L250.032 424.961ZM200.064 412.811C200.446 416.958 199.24 420.672 197.054 424.127C195.116 427.189 196.241 429.737 199.795 430.69C206.323 432.447 212.945 432.667 219.635 432.308C221.065 432.231 221.485 431.737 220.915 430.381C220.414 429.196 219.801 428.606 218.417 429.223C216.309 430.165 214.097 430.053 212.074 429.065C208.347 427.247 205.352 424.579 203.587 420.726C202.385 418.1 201.236 415.452 200.064 412.811Z" fill="#CDE998"/>
<path d="M250.051 424.945C249.33 424.069 248.56 424.015 247.511 424.501C243.68 426.277 241.965 425.853 239.379 422.517C236.362 418.633 235.24 414.077 234.581 409.286C234.095 405.761 234.677 402.36 235.202 398.955C235.66 395.951 237.761 394.658 240.717 395.515C246.147 397.094 249.781 400.912 252.545 405.649C253.813 407.823 254.676 410.19 255.362 412.603C256.514 416.668 254.965 420.494 251.261 422.586C250.24 423.162 249.97 423.918 250.032 424.953L250.051 424.938L250.051 424.945Z" fill="#CDE998"/>
</g>
<path d="M169.167 710.484C168.175 692.971 166.686 675.515 163.725 658.229C163.587 657.413 163.712 656.261 162.817 656.013C162.068 655.803 161.562 656.781 161.089 657.352C155.242 664.442 147.578 668.434 139.305 671.453C131.658 674.241 124.162 677.461 116.428 679.996C113.664 680.852 110.848 681.517 107.999 681.986C104.511 682.618 101.959 684.512 99.8845 687.365C98.3075 689.529 96.9941 691.907 95.1327 693.844C94.8064 694.18 94.4843 694.752 93.9489 694.424C93.5766 694.193 93.6979 693.648 93.7607 693.22C93.8302 692.579 93.9335 691.943 94.0702 691.314C95.4882 685.725 93.2963 681.274 90.0002 677.164C86.0557 672.247 83.4162 666.789 82.4374 660.319C81.9355 656.999 80.2707 653.84 79.8649 650.419C78.7481 640.947 78.313 631.58 83.1192 622.806C84.5875 620.127 86.8462 618.452 88.8959 616.48C93.3073 612.275 98.1029 608.531 103.214 605.302C104.385 604.556 105.042 603.53 105.603 602.221C108.146 596.266 110.865 590.389 113.952 584.722C117.629 577.976 123.552 573.618 129.508 569.338C130.525 568.605 131.57 567.911 132.595 567.191C135.774 564.962 139.083 564.499 142.772 565.869C147.729 567.71 152.51 569.791 156.45 573.565C156.777 573.88 157.099 574.464 157.651 574.098C158.115 573.788 157.973 573.186 157.952 572.706C157.81 568.845 157.714 564.979 157.471 561.127C157.007 553.775 156.438 546.432 155.932 539.08C155.342 530.512 154.146 522.012 153.301 513.474C152.706 506.953 152.471 500.403 152.598 493.854C153.966 494.866 154.07 496.24 154.614 497.305C155.85 499.758 156.488 502.491 156.471 505.263C156.563 512.855 157.755 520.359 158.718 527.876C159.998 537.885 160.7 547.946 161.487 558.007C162.022 564.861 162.051 571.733 162.641 578.579C162.687 579.128 162.507 579.896 163.143 580.084C163.833 580.284 164.289 579.582 164.578 579.067C168.213 572.562 174.274 569.115 180.201 565.481C181.623 564.608 182.991 563.958 184.639 564.805C185.317 565.149 186.07 565.127 186.404 564.307C187.005 562.864 187.523 561.385 187.956 559.879C188.253 558.836 187.358 558.404 186.701 557.894C182.623 554.739 178.423 551.733 174.504 548.369C169.915 544.429 169.568 544.041 174.926 540.097C176.943 538.614 179.306 537.763 181.632 536.868C181.452 536.262 181.046 536.454 180.787 536.524C178.097 537.226 175.357 537.252 172.605 537.3C170.288 537.34 168.054 537.911 166.899 540.359C166.494 541.218 166.071 540.904 165.599 540.638C164.331 539.927 163.08 539.181 161.821 538.452C160.968 537.959 161.223 537.239 161.533 536.594C162.061 535.579 162.851 534.739 163.812 534.168C167.887 531.506 172.35 529.168 177.051 529.277C181.77 529.39 187.007 528.67 191.014 532.872C192.562 534.495 195.067 533.984 197.121 534.246C198.305 534.399 197.891 532.994 197.406 532.331C196.181 530.677 194.608 529.339 192.809 528.422C189.119 526.519 185.275 524.914 182.088 522.095C181.573 521.642 181.142 521.703 180.611 522.074C179.879 522.606 179.105 523.074 178.298 523.47C175.428 524.787 172.923 524.081 171.015 521.524C167.82 517.248 165.444 512.658 164.544 507.178C163.812 502.719 161.516 498.919 158.383 495.73C157.684 495.019 157.044 494.456 155.919 494.46C154.748 494.465 153.74 493.684 152.836 492.894C148.85 489.412 144.562 488.679 139.882 491.306C138.731 491.952 137.389 492.331 136.418 493.186C132.223 496.895 127.111 497.54 121.979 498.042C111.978 499.067 101.882 498.081 92.2381 495.136C90.3983 494.553 88.6064 493.816 86.8797 492.933C79.2877 489.129 71.2271 486.271 64.4466 480.817C63.9379 480.451 63.3956 480.138 62.8278 479.884C56.0305 476.428 49.8356 471.952 43.4901 467.706C39.4368 464.993 35.9942 461.419 31.7527 459.011C31.4181 458.819 30.9831 458.618 31.1295 457.912C33.2502 457.868 34.8188 459.286 36.4334 460.333C46.3345 466.768 57.2226 469.831 68.7216 470.996C75.6219 471.752 82.5863 471.593 89.448 470.521C92.042 470.154 94.553 469.311 96.8644 468.029C99.4034 466.555 99.646 464.321 97.4626 462.301C95.1536 460.163 92.2004 459.775 89.3309 459.866C77.8111 460.237 66.4753 458.409 55.0893 457.131C47.8654 456.319 40.608 455.83 33.3631 455.202C32.9522 455.169 32.5391 455.174 32.1292 455.22C29.222 455.529 28.5402 455.058 27.0887 452.362C24.4033 447.379 21.5923 442.467 18.9027 437.488C18.0117 435.839 16.8029 435.276 15.0293 435.32C11.3274 435.407 7.59622 435.028 4.17876 437.078C2.69823 438.015 1.29989 439.087 0 440.281C2.12075 434.932 6.93532 430.194 12.2518 430.839C15.4141 431.223 18.3882 429.033 21.4125 427.89C27.3062 425.665 32.2589 421.747 37.3579 418.134C41.6182 415.044 46.7455 413.526 51.927 413.819C55.0141 413.963 58.0885 413.479 61.1839 413.736C62.4869 413.77 63.7672 414.099 64.936 414.701C71.2857 418.326 77.9826 421.075 84.8593 423.405C87.9338 424.447 90.4185 426.524 92.6814 428.837C97.0484 433.3 101.319 437.864 105.649 442.366C106.862 443.627 108.125 444.849 110.467 445.084C109.229 442.528 107.56 440.691 106.121 438.71C100.069 430.355 92.305 423.841 84.692 417.174C80.7768 413.749 75.9204 412.563 71.1016 411.359C70.4658 411.201 69.5581 411.311 69.5038 410.381C69.4619 409.683 70.1772 409.295 70.7461 409.099C74.9792 407.646 78.9572 405.451 83.3368 404.404C88.0679 403.217 93.0433 403.705 97.4793 405.791C105.715 409.744 114.445 411.921 123.016 414.679C124.137 419.496 126.701 423.501 129.282 427.584C133.603 434.421 136.318 442.083 138.748 449.836C139.606 452.479 140.712 455.027 142.049 457.445C143.073 459.343 144.416 459.26 145.403 457.34C146.156 455.874 146.796 454.299 146.349 452.619C145.14 448.073 145.027 443.448 145.244 438.789C145.322 437.89 145.141 436.988 144.726 436.197C144.31 435.406 143.678 434.762 142.91 434.347C141.317 433.4 140.141 432.043 139.016 430.591C136.059 426.769 133.737 422.384 129.964 419.277C127.801 417.497 126.174 414.818 123.004 414.705C126.066 412.541 129.487 412.619 132.88 413.226C144.077 415.22 154.451 419.84 164.691 424.683C169.735 427.07 174.362 430.403 179.277 433.099C183.158 435.228 187.279 436.913 190.688 439.892C195.389 443.998 198.815 449.138 201.806 454.67C204.186 459.072 206.169 463.518 206.788 468.644C208.306 481.219 198.56 487.807 188.889 486.384C186.986 486.105 185.083 485.813 183.2 485.42C181.523 485.071 180.109 485.822 178.633 486.38C174.763 487.837 170.831 489.072 166.774 490.189C168.882 490.778 170.923 489.875 172.99 490.123C180.9 491.07 185.279 497.619 185.727 504.67C186.024 509.307 185.903 508.889 190.387 508.684C197.485 508.356 204.391 506.799 211.393 505.891C212.029 505.808 212.937 505.512 213.23 506.332C213.485 507.047 212.552 507.27 212.171 507.737C210.615 509.652 209.089 511.589 208.311 514.028C207.931 515.111 207.863 516.286 208.114 517.41C208.15 517.624 208.242 517.824 208.38 517.987C208.518 518.15 208.697 518.27 208.896 518.334C209.394 518.47 209.653 518.09 209.833 517.693C211.791 513.404 215.447 511.17 219.274 509.107C220.428 508.483 221.483 507.663 222.595 506.956C223.75 506.223 224.95 505.804 226.306 506.38C226.676 506.574 227.088 506.663 227.502 506.637C230.928 505.926 234.479 506.362 237.88 505.385C242.243 504.129 246.568 502.798 251.227 503.522C252.641 503.74 254.185 503.038 255.666 502.754C261.71 501.594 267.445 502.423 272.678 505.887C275.861 507.99 279.098 510.075 281.37 513.356C281.847 514.046 282.407 514.691 282.52 515.459C274.146 512.619 266.161 514.412 258.359 517.855C254.687 519.473 251.023 521.105 247.204 522.287C243.908 523.336 240.865 525.103 238.273 527.471C237.311 528.326 235.897 529.355 236.512 530.786C237.148 532.27 238.842 531.659 240.072 531.519C242.339 531.266 244.439 530.306 246.572 529.512C256.316 525.816 266.261 522.723 276.354 520.25C284.202 518.378 290.522 520.695 296.102 526.271C297.29 527.462 298.482 528.649 299.633 529.879C300.706 531.021 301.464 532.444 301.829 533.998C299.766 533.409 298.076 532.505 296.232 532.074C287.799 530.106 279.387 529.888 270.933 531.978C266.997 532.95 262.894 533.108 259.045 534.504C257.966 534.896 256.05 535.014 256.264 536.467C256.46 537.806 258.259 537.183 259.347 537.239C264.856 537.518 270.298 536.445 275.777 536.24C284.172 535.926 292.605 534.595 300.929 537.178C306.409 538.88 310.847 542.344 312.738 547.671C314.281 552.017 317.209 555.49 318.393 560.036C319.38 563.836 320.376 567.597 320.919 571.489C320.995 572.038 321.141 572.776 320.652 573.107C320.008 573.539 319.506 572.867 319.062 572.475C318.326 571.833 317.707 571.035 316.95 570.433C314.587 568.552 311.792 567.907 309.178 569.207C306.011 570.777 303.535 569.595 300.661 568.417C296.884 566.868 294.32 563.365 290.656 561.942C283.26 559.076 277.191 553.374 269.415 551.393C268.202 551.083 266.914 550.856 266.357 552.23C265.826 553.539 267.035 554.233 267.888 554.944C271.071 557.606 275.054 558.5 278.659 560.237C285.942 563.744 293.417 566.833 300.377 571.048C301.26 571.585 302.247 571.929 303.146 572.44C303.652 572.728 304.418 572.963 304.221 573.797C304.041 574.556 303.314 574.608 302.707 574.652C300.448 574.818 298.189 575.005 295.931 575.084C290.171 575.28 284.394 574.835 278.642 575.542C277.2 575.69 275.746 575.456 274.414 574.861C272.054 573.888 269.716 572.837 267.164 572.462C266.406 572.355 265.701 571.994 265.157 571.432C264.719 570.929 264.155 570.565 263.529 570.379C262.903 570.193 262.24 570.193 261.614 570.38C262.241 571.759 262.601 573.225 261.948 574.761C261.509 575.795 260.99 576.432 259.769 576.079C258.514 575.712 257.222 575.507 255.954 575.175C252.161 574.187 248.32 573.41 244.447 572.85C240.502 572.287 237.043 570.302 233.697 568.134C232.325 567.248 230.928 566.406 229.301 565.389C230.585 569.229 233.099 572.008 234.567 575.655C232.609 575.49 231.195 574.425 229.648 573.814C223.226 571.292 216.817 568.734 210.423 566.14C208.248 565.263 206.056 564.408 203.964 563.343C199.79 561.223 198.309 556.441 199.995 552.056C201.292 548.679 202.212 545.141 203.186 541.637C203.529 540.402 203.128 539.661 201.597 539.709C197.489 539.835 197.498 539.77 196.343 543.954C195.791 545.948 195.314 547.968 194.323 549.8C193.816 550.747 193.643 551.849 193.833 552.915C194.227 555.559 193.331 558.173 193.628 560.843C193.758 561.995 192.859 561.576 192.357 561.24C191.148 560.433 190.612 561.092 190.232 562.2C190.15 562.473 190.052 562.741 189.939 563.003C188.751 565.524 188.956 567.483 190.901 569.857C196.137 576.158 198.957 584.255 198.819 592.592C198.797 598.274 197.646 603.89 195.44 609.084C193.654 613.424 192.178 617.895 191.022 622.461C187.898 634.141 181.1 642.706 171.287 648.875C167.736 651.109 167.514 651.589 168.225 655.786C170.384 668.552 172.396 681.34 173.659 694.237C174.19 699.642 174.525 705.07 174.952 710.489H169.179L169.167 710.484ZM101.42 629.132C101.42 627.959 101.474 626.811 101.403 625.673C101.332 624.556 100.859 624.263 99.9723 625.088C98.3477 626.516 96.8135 628.052 95.3794 629.686C92.008 633.753 89.31 638.338 86.0975 642.527C83.1569 646.362 82.7972 651.061 81.9062 655.589C81.8464 655.87 81.8727 656.163 81.9815 656.427C82.2199 656.929 82.4458 657.627 82.8515 657.81C83.412 658.059 83.7383 657.291 84.0939 656.907C85.102 655.825 84.9346 654.215 85.6667 652.989C89.561 646.48 93.7439 640.179 99.2278 635.014C101.064 633.286 102.055 631.628 101.415 629.128L101.42 629.132ZM312.022 549.853C310.671 547.374 308.061 545.852 304.409 544.652C298.465 542.697 292.375 542.837 286.276 542.924C283.746 542.959 281.198 542.676 278.693 543.26C278.128 543.391 277.258 543.26 277.241 544.111C277.224 544.857 278.044 544.992 278.596 545.215C281.056 546.21 283.675 546.406 286.26 546.646C291.509 547.126 296.771 547.449 302.029 547.863C305.309 548.121 308.488 548.98 312.027 549.861L312.022 549.853ZM105.176 629.442C110.032 625.511 114.91 622.178 118.929 617.741C119.699 616.894 120.402 615.873 119.712 614.673C119.021 613.474 117.88 613.36 116.629 613.605C110.07 614.87 104.866 621.842 105.176 629.442ZM239.779 509.172C239.503 508.762 239.206 508.753 238.971 508.884C235.052 511.127 230.539 511.943 226.69 514.268C224.268 515.73 222.834 518.265 222.039 521.092C221.867 521.694 221.78 522.449 222.344 522.889C222.926 523.343 223.562 522.972 224.047 522.597C224.935 521.932 225.781 521.206 226.577 520.424C229.97 516.986 233.454 513.67 237.42 510.93C238.214 510.381 239.348 510.211 239.779 509.172ZM248.074 556.323C246.907 554.246 245.815 552.117 244.547 550.106C243.84 548.984 242.887 547.968 241.465 547.811C241.125 547.737 240.773 547.768 240.449 547.898C240.126 548.027 239.845 548.252 239.641 548.544C239.222 549.22 239.699 549.778 240.105 550.254C242.292 552.873 245.015 554.947 248.074 556.323ZM222.742 552.902C222.089 550.027 221.541 547.418 220.884 544.835C220.713 544.168 220.219 543.496 219.37 543.679C218.467 543.871 218.295 544.661 218.212 545.485C217.927 548.199 219.763 551.419 222.742 552.902Z" fill="#577526"/>
<path d="M149.639 302.371C151.807 301.653 153.968 300.905 156.147 300.231C157.812 299.735 159.373 298.906 160.745 297.791C162.51 296.34 164.335 294.971 166.073 293.486C169.055 290.936 172.513 289.672 176.238 289.103C177.454 288.917 178.667 288.729 179.744 288.091C185.467 284.714 191.628 284.092 198.03 284.467C202.517 284.733 206.878 285.792 211.247 286.644C216.178 287.607 221.201 288.158 226.041 289.575C234.11 291.936 242.347 292.837 250.681 293.317C253.914 293.519 257.158 293.431 260.378 293.054C261.428 292.927 262.953 293.048 263.161 291.643C263.353 290.355 261.843 290.436 261.037 290.035C253.314 286.194 245.136 283.645 237.07 280.784C229.577 278.128 222.053 275.553 214.626 272.692C210.831 271.19 206.926 270.018 202.948 269.188C200.331 268.666 197.949 267.413 195.723 265.914C192.863 263.987 189.831 262.856 186.393 263.036C185.834 263.083 185.272 262.986 184.756 262.753C181.16 260.892 177.481 259.114 175.135 255.448C173.672 253.164 171.81 251.354 169.398 250.362C166.729 249.266 165.015 247.186 163.499 244.802C160.566 240.192 157.357 235.778 154.97 230.786C153.677 228.085 151.352 226.362 149.125 224.582C148.568 224.136 148.071 223.614 147.558 223.138C147.885 222.464 148.318 222.79 148.667 222.839C157.388 224.049 166.061 224.115 174.667 221.757C182.012 219.743 189.096 220.407 196.302 223.112C200.327 224.624 203.426 227.224 206.813 229.601C213.243 234.109 218.82 239.763 225.063 244.514C225.906 245.202 226.667 245.995 227.33 246.875C229.769 249.891 232.344 252.71 235.393 255.101C238.455 257.5 240.766 260.768 243.167 263.873C245.931 267.443 248.649 271.016 252.347 273.612C253.445 274.389 254.429 275.332 255.267 276.411C257.721 279.559 261.161 281.448 263.959 284.154C264.556 284.733 265.518 285.806 266.287 285.025C266.991 284.311 266.113 283.257 265.669 282.444C261.143 274.121 256.108 266.175 249.955 259.077C245.713 254.188 241.669 249.109 237.452 244.194C233.995 240.168 230.745 235.9 227.429 231.719C224.791 228.392 221.477 226.115 218.116 223.832C216.227 222.543 214.821 220.6 214.141 218.334C212.557 213.475 210.459 209.034 206.623 205.566C204.541 203.682 203.673 200.763 203.049 197.911C202.027 193.244 202.428 188.529 202.675 183.824C202.866 180.171 202.878 176.535 201.858 172.988C201.748 172.605 201.451 172.134 201.87 171.806C202.229 171.522 202.532 171.9 202.797 172.121C206.678 175.341 211.215 176.689 216.014 177.353C220.35 177.951 224.351 179.657 228.149 181.827C232.427 184.271 236.604 186.917 240.833 189.457C243.57 191.1 245.669 193.358 247.485 196.107C252.394 203.525 254.692 211.976 256.589 220.614C258.593 229.737 259.952 239.03 262.514 248.006C264.649 255.491 265.966 263.192 268.195 270.646C269.157 273.856 270.386 276.983 270.988 280.312C271.039 280.52 271.12 280.719 271.228 280.901C271.467 281.355 271.606 282.038 272.227 281.944C272.81 281.856 272.907 281.197 272.998 280.677C273.862 275.719 274.796 270.755 274.771 265.699C274.732 256.801 274.735 247.851 273.158 239.103C271.607 230.482 270.586 221.753 268.445 213.245C266.993 207.465 265.399 201.688 265.466 195.591C265.443 193.393 265.854 191.212 266.672 189.187C267.226 187.874 267.726 188.059 268.722 188.691C273.031 191.432 275.911 195.535 278.538 199.888C279.617 201.678 280.836 203.238 282.696 204.214C283.84 204.813 284.642 205.863 285.245 207.099C287.323 211.383 289.641 215.556 289.926 220.555C290.06 222.915 290.186 225.271 289.817 227.612C288.759 234.324 287.479 241.004 286.616 247.739C285.742 254.564 284.073 261.185 282.424 267.806C281.379 271.999 279.638 275.966 277.959 279.93C277.589 280.805 276.844 282.01 277.68 282.544C278.643 283.16 279.132 281.684 279.617 281.009C283.153 276.101 285.431 270.48 287.723 264.863C289.411 260.73 290.12 256.362 290.976 252.002C292.077 246.385 292.583 240.663 293.891 235.087C294.004 234.593 294.221 234.132 294.525 233.738C294.83 233.344 295.214 233.028 295.65 232.812C295.865 232.689 296.219 232.478 296.33 232.564C297.52 233.485 298.739 233.044 299.973 232.747C300.739 232.562 300.967 233.095 300.991 233.764C301.109 236.866 301.76 239.757 303.463 242.384C304.387 243.809 304.495 245.614 304.635 247.328C304.717 248.618 305.135 249.858 305.843 250.911C306.923 252.501 307.063 254.285 306.656 256.131C305.665 260.629 303.898 264.657 300.887 268.152C298.472 270.958 295.739 273.321 293.007 275.718C292.43 276.158 291.886 276.643 291.378 277.17C288.336 280.824 284.648 283.688 281.051 286.663C280.652 286.993 280.149 287.322 280.465 287.964C280.735 288.516 281.26 288.366 281.686 288.224C287.199 286.378 292.851 284.947 298.058 282.179C300.874 280.681 303.647 279.089 306.749 278.329C308.932 277.796 311.083 277.655 313.031 279.141C313.341 279.325 313.62 279.559 313.86 279.835C316.332 283.618 320.095 284.845 324.095 285.577C325.379 285.812 325.468 286.401 324.79 287.42C323.534 289.302 322.3 291.202 321.05 293.092C320.956 293.283 320.82 293.448 320.654 293.572C317.265 295.306 314.83 298.609 310.52 298.997C306.992 299.315 303.397 300.091 299.841 300.398C295.162 300.804 290.586 299.629 286.077 298.224C282.879 297.181 279.83 295.688 277.012 293.786C274.798 292.342 273.22 293.151 272.778 295.882C272.538 297.36 272.348 298.847 272.208 300.342C271.79 304.936 269.55 308.654 267.376 312.514C264.336 317.909 259.347 321.294 255.685 326.01C253.719 328.539 251.705 331.023 249.689 333.51C248.993 334.37 248.247 335.213 247.255 335.676C242.979 337.669 239.047 340.426 234.604 342.038C233.74 342.352 232.869 342.826 231.99 342.864C227.697 343.054 223.589 344.368 219.386 345.086C218.816 345.182 218.087 345.582 217.683 344.968C217.32 344.417 217.969 343.912 218.181 343.39C218.479 342.653 218.934 341.964 219.118 341.198C219.942 337.751 222.182 335.285 224.455 332.951C225.966 331.398 227.464 329.927 228.373 327.896C228.865 326.798 229.577 325.8 230.608 325.33C233.852 323.854 236.31 321.253 239.002 318.995C241.047 317.23 243.209 315.623 245.471 314.185C250.939 310.805 255.525 306.18 260.535 302.154C261.262 301.57 262 301 262.729 300.414C263.131 300.09 263.656 299.766 263.366 299.129C263.071 298.481 262.479 298.708 262.019 298.874C258.902 300.008 255.771 301.105 252.687 302.34C247.27 304.509 241.893 306.884 236.299 308.383C230.369 309.976 224.773 312.519 218.931 314.336C211.77 316.537 204.478 318.224 197.105 319.386C193.203 320.015 189.293 319.383 185.541 318.137C183.583 317.488 181.639 316.97 179.59 317.002C177.754 317.022 175.954 316.479 174.407 315.44C171.074 313.307 167.665 311.337 164.561 308.79C161.989 306.678 158.798 305.696 155.703 304.66C153.688 303.988 151.65 303.391 149.623 302.76L149.639 302.371Z" fill="#9EC557"/>
<path d="M212.358 159.002C210.611 160.131 209.232 161.659 207.857 163.185C206.334 164.875 204.659 166.448 203.358 168.315C201.801 170.551 199.757 172.19 197.912 174.078C196.383 175.64 194.539 176.633 192.554 177.306C189.811 178.233 186.984 178.532 184.094 178.48C182.321 178.449 180.564 178.191 178.796 178.19C177.01 178.182 175.253 178.665 173.698 179.592C169.444 182.137 164.942 183.045 160.116 182.203C158.942 182.002 157.798 181.642 156.711 181.132C154.971 180.307 153.229 179.91 151.379 180.803C150.833 181.016 150.255 181.115 149.674 181.097C148.708 181.131 148.092 180.073 148.342 178.762C148.724 176.718 149.802 174.895 151.372 173.64C153.015 172.242 154.889 171.18 156.9 170.509C160.291 169.406 163.814 168.816 167.364 168.758C170.345 168.726 173.263 168.154 176.14 167.329C178.712 166.592 181.424 166.579 184.006 167.292C187.817 168.299 191.18 167.255 194.246 164.728C196.023 163.263 197.653 161.624 199.393 160.12C202.146 157.739 205.411 156.505 208.744 155.406C210.499 154.826 212.254 154.247 213.908 153.363C216.343 152.061 217.777 149.768 219.157 147.45C221.32 143.74 223.711 140.185 226.315 136.808C227.365 135.475 228.585 134.355 229.741 133.158C230.026 132.843 230.371 132.596 230.753 132.433C231.135 132.271 231.546 132.196 231.957 132.213C233.225 132.275 233.841 133.236 233.286 134.44C232.902 135.273 232.425 136.055 231.866 136.769C230.09 139.026 228.209 141.191 226.467 143.474C224.336 146.266 222.128 148.998 220.419 152.127C219.977 152.901 219.722 153.78 219.676 154.684C219.572 157.851 219.576 160.983 220.949 163.984C222.129 166.57 223.656 168.918 225.016 171.379C227.14 175.164 228.136 179.536 227.874 183.923C227.698 187.166 226.77 190.289 226.469 193.514C226.359 194.327 226.354 195.151 226.455 195.965C227.166 200.376 226.972 204.633 224.777 208.651C223.558 210.88 222.264 213.014 220.614 214.905C219.077 216.671 219.226 218.86 219.215 221.037C219.2 224.164 218.451 227.058 216.01 229.046C215.595 229.363 215.119 229.578 214.616 229.677C214.112 229.775 213.594 229.754 213.099 229.614C212.519 229.448 212.134 228.913 212.444 228.267C213.339 226.414 212.684 224.691 211.983 223.064C210.175 218.87 209.764 214.616 211.064 210.204C211.166 209.86 211.226 209.503 211.302 209.151C211.472 208.349 211.596 207.722 210.813 206.983C209.553 205.789 209.679 204.089 210.832 202.643C210.946 202.535 211.032 202.398 211.081 202.245C211.13 202.091 211.141 201.927 211.114 201.768C210.536 199.401 210.272 196.909 208.737 194.912C208.636 194.767 208.527 194.629 208.411 194.498C208.312 194.427 208.205 194.37 208.092 194.328C207.789 195.288 207.609 196.287 207.557 197.299C207.526 197.773 207.771 197.988 208.124 198.216C209.505 199.104 209.957 200.681 209.279 202.115C208.737 203.259 207.217 203.754 205.873 203.257C205.475 203.13 205.124 202.877 204.866 202.532C204.609 202.187 204.457 201.767 204.432 201.329C204.332 200.188 204.45 198.98 205.49 198.357C206.507 197.75 206.754 196.93 206.799 195.785C206.86 194.17 207.109 192.562 207.288 190.952C207.308 190.776 207.426 190.583 207.255 190.458C207.054 190.312 206.87 190.448 206.702 190.584C204.855 192.104 203.411 194.019 201.974 195.944C201.692 196.323 201.786 196.581 202.047 196.881C203.075 198.054 203.269 199.338 202.512 200.754C202.288 201.173 202.416 201.612 202.571 202.012C203.534 204.535 204.09 207.186 204.734 209.803C205.403 212.521 205.418 215.278 205.052 218.065C204.607 221.387 204.005 224.684 203.247 227.942C202.966 229.167 202.596 230.369 202.215 231.564C201.9 232.523 201.82 233.552 201.982 234.554C202.554 237.878 202.168 241.305 200.872 244.388C200.434 245.429 200.04 246.653 199.022 247.443C197.56 248.58 196.721 250.321 195.728 251.872C194.776 253.356 195.003 255.194 194.941 256.901C194.84 259.694 194.669 262.456 193.59 265.062C192.859 266.829 191.585 267.959 189.925 268.61C188.836 269.037 188.252 268.727 188.025 267.551C187.79 266.55 187.695 265.518 187.742 264.488C187.999 261.159 187.843 257.865 186.37 254.757C184.7 251.237 183.761 247.458 183.301 243.571C182.678 238.328 183.416 233.315 185.853 228.635C186.823 226.861 187.694 225.027 188.463 223.145C189.515 220.422 189.81 217.546 189.807 214.656C189.802 209.54 191.082 204.837 193.438 200.414C194.023 199.316 194.494 198.152 194.986 197.002C195.115 196.705 195.355 196.369 195.08 195.982C194.598 196.039 194.453 196.489 194.215 196.808C189.915 202.549 185.551 208.235 180.583 213.35C179.244 214.788 177.816 216.13 176.308 217.368C174.995 218.401 174.449 219.801 174.426 221.58C174.374 225.836 174.985 229.967 175.907 234.102C177.119 239.532 177.865 245.07 177.016 250.628C176.449 254.341 175.827 258.058 174.839 261.696C174.257 263.842 173.719 266.009 173.185 268.172C172.989 268.86 172.746 269.531 172.458 270.181C171.788 271.867 171.214 273.622 170.328 275.175C169.442 276.717 168.333 278.102 167.041 279.279C164.706 281.41 162.938 283.985 161.427 286.784C160.688 288.208 159.835 289.562 158.876 290.83C158.219 291.709 157.394 292.432 156.456 292.952C154.452 294.024 152.914 293.269 152.424 290.936C152.369 290.69 152.34 290.438 152.339 290.186C152.371 287.037 151.67 283.977 151.281 280.881C150.731 276.501 151.845 272.551 153.984 268.822C155.663 265.894 157.476 263.054 159.015 260.031C159.906 258.28 160.899 256.587 161.382 254.658C162.113 251.878 162.467 249.001 162.435 246.114C162.397 244.265 162.942 242.559 163.721 240.934C164.024 240.299 164.103 239.856 163.567 239.225C163.33 238.957 163.157 238.635 163.059 238.284C162.962 237.933 162.944 237.562 163.007 237.203C163.07 236.843 163.212 236.505 163.421 236.214C163.631 235.924 163.902 235.69 164.213 235.531C165.419 234.944 165.736 234.001 165.824 232.79C165.895 231.835 165.96 230.882 165.534 229.696C164.695 231.966 163.411 233.708 162.519 235.677C161.942 236.948 162.22 238.381 162.043 239.732C162.027 240.165 161.975 240.595 161.888 241.018C161.489 242.307 161.158 243.442 162.007 244.826C162.733 246.013 161.75 247.731 160.444 248.174C159.095 248.631 158.068 247.977 157.607 246.363C157.229 245.037 157.961 243.725 159.39 243.344C159.936 243.2 160.123 242.955 160.292 242.391C160.664 241.148 161.079 239.93 160.97 238.595C160.95 238.349 161.04 238.033 160.766 237.925C160.477 237.809 160.365 238.113 160.232 238.315C159.755 239.044 159.311 239.667 159.677 240.746C160.081 241.938 159.058 243.189 157.846 243.356C156.615 243.526 155.693 242.722 155.545 241.344C155.527 241.166 155.538 240.988 155.535 240.742C155.04 240.729 154.636 241.08 154.14 240.96C153.616 240.848 153.146 240.544 152.812 240.102C152.477 239.66 152.3 239.108 152.311 238.543C152.337 237.361 153.157 236.34 154.309 236.368C155.46 236.396 156.217 235.864 156.986 235.076C158.094 233.937 159.452 233.172 160.837 232.449C162.527 231.566 163.946 230.384 164.316 228.254C164.341 228.115 164.348 227.973 164.365 227.831C164.016 227.611 163.842 227.926 163.647 228.067C160.305 230.469 157.036 232.991 153.618 235.267C149.525 237.99 146.532 241.711 144.211 246.109C143.633 247.205 143.322 248.473 142.674 249.51C141.556 251.3 140.24 252.947 139.061 254.698C138.073 256.186 136.877 257.505 135.512 258.609C133.837 259.907 132.006 260.965 130.068 261.755C128.537 262.396 126.954 262.82 125.396 263.344C121.806 264.595 118.35 266.24 115.085 268.253C111.56 270.371 107.745 271.228 103.753 271.534C100.79 271.761 97.8954 272.386 95.1595 273.701C93.911 274.3 92.5804 274.643 91.1844 274.379C90.6535 274.279 90.1529 274.045 89.7256 273.696C89.2983 273.347 88.957 272.894 88.7309 272.376C88.5048 271.857 88.4006 271.289 88.4272 270.719C88.4539 270.149 88.6105 269.595 88.8838 269.104C89.502 267.93 90.391 266.941 91.4682 266.23C93.3578 265.006 95.0716 263.502 96.5577 261.764C98.9914 258.986 101.488 256.284 104.278 253.898C107.312 251.303 110.817 249.625 114.398 248.095C118.165 246.485 121.862 244.685 125.215 242.258C127.49 240.553 129.909 239.075 132.442 237.842C136.437 235.977 140.643 235.218 144.978 235.104C146.624 235.103 148.251 234.725 149.745 233.996C152.025 232.811 154.215 231.432 156.41 230.074C158.975 228.499 161.423 226.719 163.732 224.749C164.224 224.326 164.794 223.982 165.168 223.132C161.926 223.956 158.663 223.604 155.795 225.721C152.533 228.129 148.911 229.746 144.74 229.699C143.066 229.68 141.515 229.073 139.815 229.123C137.465 229.167 135.145 229.677 132.975 230.627C130.433 231.784 127.732 232.503 124.975 232.757C122.171 232.985 119.577 231.983 117.111 230.735C114.273 229.261 111.035 228.9 107.974 229.716C105.265 230.382 102.76 229.626 100.687 227.567C99.6411 226.528 99.8002 225.843 101.16 225.321C102.237 224.951 103.192 224.263 103.913 223.339C105.138 221.756 106.497 220.296 107.973 218.976C109.259 217.769 111.021 217.099 112.619 216.302C116.245 214.496 120.105 213.939 124.078 214.105C125.476 214.162 126.88 214.388 128.269 214.316C131.081 214.167 133.887 213.862 136.694 213.628C141.401 213.199 146.136 214.051 150.451 216.103C151.784 216.735 153.051 217.539 154.461 218.066C155.297 218.38 156.168 219.192 157.077 219.525C161.006 220.956 165.05 221.42 168.997 219.838C170.479 219.244 171.792 218.009 172.866 216.629C172.57 216.351 172.351 216.558 172.139 216.6C170.612 216.897 169.769 216.335 169.217 214.636C168.839 213.472 169.526 211.739 170.591 211.219C170.803 211.1 171.044 211.052 171.283 211.08C172.856 211.464 173.815 210.802 174.894 209.519C175.828 208.409 176.754 207.279 177.645 206.122C177.81 205.911 178.111 205.651 177.919 205.377C177.66 205.005 177.369 205.365 177.114 205.495C175.422 206.364 173.722 207.144 171.813 207.381C170.557 207.537 169.795 208.645 169.022 209.566C168.164 210.586 167.468 211.756 166.664 212.831C166.517 213.004 166.417 213.215 166.375 213.443C166.333 213.671 166.35 213.907 166.425 214.126C166.941 215.931 166.426 216.897 164.75 217.335C163.158 217.751 162.018 216.973 161.662 215.234C161.466 214.273 161.651 213.436 162.385 212.794C162.747 212.455 163.197 212.241 163.677 212.178C164.158 212.116 164.645 212.21 165.074 212.446C165.684 212.759 165.938 212.579 166.34 212.132C167.186 211.143 167.937 210.067 168.579 208.918C168.705 208.707 168.907 208.48 168.733 208.235C168.516 207.928 168.242 208.107 168.001 208.241C166.962 208.863 165.864 209.369 164.726 209.75C164.253 209.889 164.164 210.323 164 210.717C163.713 211.379 163.213 211.912 162.59 212.22C161.966 212.528 161.258 212.592 160.593 212.401C159.387 211.999 158.669 210.663 158.867 209.205C158.907 208.732 159.09 208.287 159.389 207.934C159.688 207.581 160.086 207.339 160.525 207.245C161.677 206.919 162.818 207.021 163.476 208.098C164.075 209.075 164.732 208.94 165.351 208.486C167.796 206.685 170.567 205.897 173.443 205.367C173.704 205.319 174.164 205.364 174.127 204.914C174.1 204.581 173.731 204.444 173.435 204.344C171.486 203.663 169.435 203.368 167.385 203.474C167.052 203.494 166.784 203.562 166.642 203.918C166.18 205.075 165.191 205.438 164.163 205.537C163.185 205.633 162.321 206.017 161.417 206.331C156.45 208.043 151.38 208.197 146.247 207.396C144.119 207.065 141.988 206.741 139.849 206.52C137.189 206.245 134.652 205.323 132.016 204.941C129.808 204.622 127.62 204.481 125.492 205.45C124.897 205.722 124.185 206.132 123.591 205.446C123.021 204.789 123.24 204.028 123.506 203.3C123.811 202.469 123.947 201.402 124.422 200.843C125.214 199.913 126.068 198.92 127.179 198.319C131.295 196.1 135.301 193.658 139.559 191.734C142.429 190.435 145.365 190.34 148.391 190.794C151.269 191.226 154.19 191.684 156.984 190.476C160.033 189.157 163.281 188.639 166.426 187.713C167.037 187.532 167.834 187.64 168.543 187.59C173.068 187.272 177.535 187.906 181.971 188.701C183.23 188.927 184.512 189.203 185.775 189.443C187.967 189.86 190.105 189.173 192.196 188.536C193.427 188.131 194.636 187.653 195.816 187.103C196.586 186.763 197.135 186.093 197.657 185.425C198.861 183.901 199.919 182.255 200.816 180.51C203.352 175.521 206.448 170.881 208.866 165.818C209.969 163.512 211.194 161.271 212.362 159L212.358 159.002ZM169.047 202.343C170.45 202.488 171.71 202.5 172.926 202.853C173.688 203.075 174.594 203.063 175.191 203.516C176.105 204.208 176.834 204.195 177.826 203.78C180.445 202.682 182.976 201.286 185.832 200.927C186.107 200.901 186.364 200.771 186.555 200.56C187.681 199.274 188.861 198.034 189.923 196.692C190.665 195.753 191.482 194.844 191.917 193.609C190.634 194.376 189.209 194.714 187.922 195.398C185.268 196.805 182.382 197.66 179.42 197.914C178.344 198.013 177.261 197.932 176.179 198.149C174.191 198.548 172.648 199.809 171.007 200.883C170.385 201.287 169.686 201.596 169.047 202.344L169.047 202.343ZM216.453 159.495C216.34 159.622 216.236 159.757 216.14 159.899C214.246 163.086 212.902 166.611 210.716 169.634C209.567 171.227 209.823 173.207 209.798 175.127C209.748 178.754 211.227 181.749 212.913 184.702C213.016 184.879 213.114 185.125 213.353 185.101C213.404 185.092 213.453 185.072 213.496 185.041C213.54 185.011 213.577 184.972 213.605 184.926C213.633 184.88 213.652 184.828 213.661 184.774C213.67 184.72 213.668 184.664 213.655 184.611C213.257 183.27 214.266 182.241 214.335 181.037C214.461 178.817 214.66 176.561 214.435 174.365C214.142 171.491 214.643 168.829 215.62 166.234C216.436 164.07 216.519 161.818 216.454 159.494L216.453 159.495ZM208.052 175.203L207.804 175.144C207.645 175.32 207.501 175.51 207.373 175.713C205.612 179.04 203.744 182.301 201.891 185.571C201.309 186.602 200.609 187.567 200.247 188.774C199.653 190.753 199.902 192.685 200.159 194.647C200.209 195.024 200.282 195.388 200.676 195.492C201.074 195.598 201.205 195.227 201.332 194.949C202.375 192.627 203.846 190.677 205.949 189.371C207.983 188.108 208.429 186.191 208.226 183.921C208.213 183.706 208.211 183.49 208.22 183.275C208.267 180.582 207.897 177.901 208.051 175.203L208.052 175.203ZM171.674 221.846C169.989 223.285 168.406 224.334 167.063 225.72C166.466 226.336 166.25 226.95 166.487 227.841C167.059 229.987 167.038 232.19 166.809 234.384C166.771 234.753 166.38 235.113 166.917 235.347C167.365 235.543 167.587 235.122 167.823 234.827C169.236 233.063 170.235 231.069 170.58 228.774C170.91 226.579 171.032 224.352 171.674 221.849L171.674 221.846ZM184.673 203.107C183.078 203.722 181.39 203.988 180.137 205.409C178.582 207.174 177.245 209.158 175.488 210.713C174.439 211.642 173.604 212.567 174.426 214.121C174.531 214.319 174.286 214.607 174.507 214.753C175.887 213.982 176.51 212.46 177.714 211.497C180.55 209.225 182.433 206.006 184.673 203.109L184.673 203.107ZM210.292 182.843C210.166 184.98 209.417 186.939 209.066 188.982C208.757 190.787 208.664 192.589 209.986 194.347C210.304 191.854 211.264 189.748 211.936 187.541C212.086 186.993 212.052 186.405 211.841 185.879C211.45 184.795 210.673 183.945 210.294 182.843L210.292 182.843ZM156.628 238.382C156.662 238.584 156.672 238.97 156.871 238.888C157.476 238.643 158.278 239.032 158.702 238.493C159.742 237.168 160.673 235.746 161.628 234.348C161.751 234.166 161.932 233.876 161.714 233.661C161.512 233.461 161.262 233.638 161.052 233.743C159.565 234.468 158.213 235.469 157.059 236.698C156.853 236.914 156.705 237.184 156.629 237.48C156.553 237.776 156.552 238.088 156.626 238.385L156.628 238.382Z" fill="#2F3F0F"/>
<path d="M265.606 77.0292C264.245 78.0106 262.711 78.5694 261.18 79.1253C259.484 79.7408 257.825 80.5153 256.071 80.8975C253.971 81.3546 252.149 82.3947 250.209 83.1947C248.604 83.8586 247.311 84.9615 246.205 86.284C244.679 88.1112 243.581 90.218 242.716 92.4923C242.184 93.8874 241.822 95.347 241.27 96.7284C240.719 98.1265 239.821 99.3346 238.666 100.234C235.5 102.692 233.439 105.9 232.539 109.956C232.318 110.94 232.22 111.956 232.249 112.978C232.301 114.617 232.044 116.112 230.821 117.254C230.498 117.608 230.245 118.026 230.077 118.486C229.751 119.228 230.322 120.069 231.347 120.318C232.942 120.714 234.595 120.49 235.991 119.69C237.514 118.882 238.866 117.778 239.978 116.436C241.834 114.162 243.36 111.61 244.511 108.858C245.464 106.541 246.789 104.456 248.283 102.489C249.618 100.73 250.474 98.6167 250.766 96.3584C251.229 93.0403 253.033 90.7677 255.816 89.231C257.428 88.3403 259.12 87.6239 260.75 86.7752C263.329 85.4331 265.24 83.3022 267.074 81.072C268.04 79.8981 269.007 78.7242 270.161 77.7324C271.862 76.273 273.966 75.9309 276.07 75.6397C279.424 75.2097 282.738 74.5488 285.989 73.6612C287.28 73.2937 288.469 72.7212 289.695 72.2246C290.011 72.1089 290.297 71.9233 290.534 71.6802C290.77 71.437 290.953 71.1419 291.069 70.8143C291.42 69.8034 290.919 68.9958 289.876 69.021C289.154 69.038 288.441 69.145 287.751 69.3396C285.566 69.9605 283.416 70.695 281.223 71.2808C278.542 71.9972 275.88 72.7942 273.087 73.0669C272.39 73.1497 271.676 73.0509 271.009 72.7795C268.689 71.7857 266.43 70.7197 264.691 68.6294C263.193 66.8299 261.975 64.8402 260.622 62.9428C258.552 60.0003 255.707 57.7386 252.457 56.4539C250.061 55.4904 247.516 55.1558 245.094 54.2958C244.473 54.1068 243.876 53.8308 243.319 53.4756C240.357 51.4233 237.223 50.1303 233.636 50.4808C231.646 50.6756 229.701 50.9626 227.82 51.6089C226.066 52.2103 224.531 51.3515 222.956 50.6203C220.693 49.5714 218.37 49.1738 216.173 50.4056C215.814 50.6218 215.51 50.9207 215.282 51.2806C215.053 51.6405 214.907 52.0524 214.853 52.4866C214.792 52.9958 215.058 53.478 215.621 53.4547C217.239 53.3848 218.278 54.4812 219.234 55.5806C221.698 58.4159 224.64 60.1812 228.232 60.6632C228.512 60.7002 228.789 60.7744 229.067 60.8344C229.699 60.9738 230.191 61.09 230.48 61.9524C230.948 63.3415 232.215 63.8199 233.619 63.4101C233.733 63.3579 233.859 63.3376 233.985 63.351C234.11 63.3645 234.232 63.4114 234.339 63.4872C235.868 64.7418 237.584 65.7936 238.547 67.6701C238.62 67.7981 238.685 67.9299 238.744 68.0649C238.765 68.1664 238.772 68.2696 238.767 68.372C237.979 68.2832 237.202 68.0846 236.455 67.7816C236.103 67.6448 236.024 67.381 235.97 67.0279C235.76 65.6474 234.762 64.7597 233.515 64.8027C232.52 64.8374 231.688 65.8562 231.627 67.0751C231.595 67.4285 231.668 67.7887 231.836 68.1069C232.005 68.4251 232.261 68.6859 232.569 68.8541C233.362 69.3195 234.271 69.6379 235.045 69.0363C235.801 68.4488 236.471 68.534 237.311 68.8875C238.497 69.3875 239.735 69.7388 240.953 70.146C241.087 70.19 241.263 70.1629 241.3 70.3387C241.342 70.5451 241.187 70.6432 241.036 70.728C239.362 71.6546 237.529 72.1327 235.69 72.6014C235.328 72.6932 235.171 72.5321 235.036 72.2265C234.51 71.0259 233.643 70.4383 232.385 70.5489C232.012 70.582 231.736 70.3327 231.495 70.0759C229.974 68.468 228.234 67.134 226.545 65.7427C224.791 64.2977 222.805 63.3503 220.679 62.6907C218.141 61.9101 215.573 61.2617 212.984 60.7479C212.012 60.5516 211.028 60.4331 210.047 60.3244C209.256 60.245 208.488 59.9585 207.815 59.4917C205.594 57.9167 202.998 57.0558 200.368 57.0211C199.479 57.0101 198.472 56.9024 197.584 57.4288C196.307 58.1851 194.787 58.2491 193.357 58.4989C191.988 58.7384 190.733 57.9373 189.48 57.4066C187.433 56.5375 185.385 55.7339 183.166 55.6918C181.662 55.6632 180.449 56.2752 179.46 57.3502C178.812 58.0554 178.853 58.6173 179.631 59.1936C180.281 59.7163 180.996 60.1407 181.754 60.4535C184.239 61.3827 186.568 62.6228 188.352 64.8283C190.372 67.3267 192.807 69.3429 195.47 71.0215C199.062 73.2872 202.911 74.412 207.051 74.0969C208.636 73.9419 210.231 73.8834 211.831 73.9218C214.125 74.0246 216.294 74.7698 218.38 75.7532C222.072 77.4932 225.867 78.0901 229.797 77.751C230.772 77.6668 231.76 77.694 232.744 77.7C232.998 77.7005 233.316 77.6264 233.509 77.9731C233.318 78.33 232.948 78.2905 232.643 78.3681C227.155 79.7774 221.686 81.256 216.442 83.3998C214.986 83.9583 213.571 84.6182 212.206 85.3752C211.05 86.0499 209.869 86.0016 208.577 85.4151C205.488 84.0123 202.696 82.1329 199.998 80.0097C196.456 77.22 192.69 74.7577 188.412 73.5349C185.554 72.7171 182.676 71.9416 179.741 71.4785C178.01 71.2045 176.277 70.8895 174.548 70.5727C173.991 70.4922 173.43 70.4541 172.871 70.4586C171.444 70.4099 169.998 70.262 168.6 70.4266C167.21 70.5952 165.864 70.9915 164.61 71.6011C162.343 72.7014 159.931 73.2083 157.438 73.4386C156.179 73.5322 154.935 73.7392 153.72 74.0575C152.88 74.2728 152.101 74.6714 151.432 75.2277C150.033 76.4292 150.097 77.8861 151.629 79.0602C151.789 79.1868 151.962 79.2947 152.144 79.3817C154.428 80.4257 156.418 82.0114 158.532 83.3658C161.522 85.2815 164.722 85.7523 168.083 85.347C170.721 85.0301 173.338 84.5773 176.002 84.4015C177.544 84.2997 179.076 84.0987 180.62 84.3769C182.856 84.7496 185.043 85.4488 187.118 86.4537C188.441 87.1112 189.843 87.2646 191.26 87.2076C191.813 87.1866 192.157 87.2755 192.446 87.908C192.565 88.1834 192.743 88.4286 192.967 88.6238C193.19 88.819 193.452 88.9587 193.731 89.0316C194.01 89.1045 194.299 89.1086 194.574 89.0436C194.849 88.9786 195.103 88.8462 195.314 88.6572C196.115 87.9147 196.895 87.9865 197.796 88.3294C198.508 88.5978 199.217 88.8708 199.94 89.6059C198.039 89.4905 196.38 89.902 194.68 89.9307C193.582 89.9497 192.634 89.2462 191.603 88.926C191.286 88.7918 190.959 88.6863 190.626 88.6108C189.571 88.485 188.648 88.3579 187.914 87.2258C187.284 86.2556 185.736 86.4403 185.009 87.3095C184.258 88.2082 184.409 89.2326 185.43 90.1398C186.27 90.885 187.446 90.7589 188.167 89.7721C188.441 89.3945 188.677 89.3319 189.137 89.3913C190.151 89.5224 191.159 89.6116 192.09 90.1503C192.261 90.2489 192.517 90.2855 192.509 90.5365C192.503 90.8015 192.249 90.7862 192.061 90.8215C191.386 90.9464 190.797 91.0813 190.133 90.43C189.398 89.7101 188.175 90.0841 187.676 90.9741C187.169 91.8777 187.462 92.8703 188.41 93.4541C188.533 93.5284 188.665 93.5803 188.842 93.6656C188.697 94.0565 188.317 94.2536 188.248 94.6814C188.166 95.1287 188.239 95.599 188.454 96.01C188.668 96.421 189.012 96.7466 189.423 96.9299C190.284 97.3104 191.278 97.0168 191.617 96.1082C191.957 95.1996 192.577 94.7885 193.386 94.456C194.555 93.9765 195.531 93.1754 196.486 92.3399C197.65 91.3196 198.947 90.6125 200.601 91.0463C200.709 91.0743 200.814 91.1167 200.921 91.1518C200.971 91.4986 200.69 91.5279 200.527 91.6322C197.749 93.4274 194.907 95.1245 192.197 97.0211C188.952 99.2934 185.331 100.368 181.43 100.688C180.459 100.768 179.446 100.58 178.495 100.734C176.853 101 175.253 101.469 173.621 101.795C172.238 102.062 170.912 102.549 169.688 103.239C168.228 104.108 166.893 105.178 165.717 106.424C164.776 107.402 163.976 108.494 163.111 109.533C161.086 111.912 158.819 114.053 156.346 115.92C153.716 117.954 151.906 120.642 150.438 123.656C149.349 125.893 147.994 127.942 146.19 129.632C145.368 130.404 144.705 131.327 144.459 132.506C144.365 132.955 144.378 133.425 144.497 133.878C144.615 134.33 144.836 134.75 145.139 135.102C145.443 135.455 145.821 135.729 146.241 135.902C146.66 136.074 147.109 136.14 147.549 136.093C148.59 136.009 149.581 135.65 150.432 135.051C151.905 133.99 153.526 133.162 155.245 132.591C158.011 131.634 160.742 130.601 163.336 129.232C166.157 127.743 168.463 125.575 170.686 123.297C173.025 120.902 175.479 118.626 178.278 116.83C180.22 115.633 182.043 114.245 183.724 112.685C186.318 110.198 188.18 107.17 189.616 103.824C190.131 102.539 190.912 101.397 191.904 100.477C193.472 99.0984 195.152 97.8566 196.818 96.6032C198.756 95.1343 200.806 93.8267 202.949 92.6918C203.408 92.4512 203.835 92.1229 204.565 92.1194C202.958 94.3718 202.192 97.0393 199.769 98.561C197.012 100.291 194.713 102.571 193.444 105.844C192.935 107.158 192.889 108.575 192.322 109.886C191.556 111.706 190.463 113.345 189.1 114.717C187.471 116.31 186.108 118.175 185.063 120.243C184.023 122.355 183.937 124.721 184.068 127.07C184.246 129.787 183.495 132.438 181.95 134.552C180.623 136.442 180.387 138.655 181.227 140.972C181.65 142.142 182.194 142.25 182.996 141.366C183.599 140.649 184.394 140.137 185.287 139.888C186.812 139.468 188.291 138.903 189.705 138.198C190.978 137.603 192.012 136.455 193.086 135.477C195.522 133.258 197.13 130.432 198.251 127.273C198.646 126.162 198.921 124.989 199.408 123.928C200.393 121.783 201.489 119.695 202.535 117.582C204.315 114.052 205.178 110.064 205.044 105.999C205.005 104.743 204.82 103.481 204.879 102.2C204.913 101.441 204.599 100.485 204.643 99.6619C204.836 96.1084 205.765 92.7923 208.139 90.2469C209.031 89.2907 210.333 88.6847 211.665 88.3145C211.772 88.6397 211.555 88.7401 211.458 88.8918C210.767 89.9837 210.91 90.8331 211.964 91.8406C212.686 92.5306 214.153 92.5822 214.86 91.9267C215.012 91.8016 215.122 91.63 215.177 91.4341C215.391 90.0753 216.168 89.5511 217.431 89.1436C218.525 88.7909 219.63 88.4509 220.743 88.1474C220.948 88.0906 221.229 87.9441 221.367 88.1869C221.554 88.5148 221.204 88.6203 221.03 88.7754C219.875 89.8016 218.78 90.8651 218.013 92.2756C217.508 93.2031 216.47 93.4221 215.564 93.7133C214.559 94.0376 213.497 94.1841 212.47 94.4467C212.3 94.5029 212.116 94.509 211.938 94.4646C211.76 94.4202 211.595 94.3268 211.46 94.1944C210.318 93.1782 209.46 93.2525 208.621 94.4128C207.822 95.515 208.028 96.6697 209.173 97.5377C209.805 98.017 210.468 98.1565 211.16 97.8012C211.518 97.6337 211.814 97.3546 212.008 97.0007C212.203 96.6468 212.288 96.2348 212.251 95.8189C212.215 95.2365 212.425 95.0995 212.873 94.9371C213.852 94.6116 214.863 94.3912 215.893 94.2791C216.085 94.2522 216.312 94.1719 216.435 94.3908C216.589 94.6646 216.374 94.8176 216.202 94.9607C215.428 95.5609 214.72 96.2463 214.089 97.0059C213.841 97.3284 213.5 97.2505 213.164 97.2444C212.597 97.244 212.056 97.4536 211.639 97.8362C211.221 98.2188 210.954 98.7495 210.885 99.3341C210.798 100.412 211.539 101.427 212.653 101.767C213.007 101.896 213.386 101.904 213.734 101.79C214.082 101.677 214.381 101.448 214.586 101.137C215.181 100.348 215.463 99.4223 214.892 98.5424C214.373 97.7434 214.676 97.2764 215.197 96.9469C217.261 95.6488 218.695 93.7516 219.976 91.6857C220.092 91.4982 220.203 91.1233 220.517 91.3057C220.749 91.4396 220.733 91.774 220.712 92.0388C220.596 93.7929 220.168 95.4948 219.451 97.0591C219.333 97.3123 219.2 97.4986 218.899 97.4891C217.919 97.457 217.348 98.1064 216.955 98.8752C216.58 99.6066 216.033 100.151 215.525 100.751C212.737 104.048 211.043 107.956 210.018 112.237C209.593 114.011 209.161 115.785 208.653 117.53C208.02 119.701 207.894 121.996 207.347 124.183C206.887 126.016 206.306 127.773 204.941 129.106C204.559 129.479 204.041 129.896 204.351 130.592C204.647 131.26 205.265 131.347 205.874 131.387C206.569 131.431 207.382 131.687 207.933 131.506C208.853 131.202 209.836 130.873 210.617 130.209C213.505 127.748 216.519 125.448 219.238 122.775C221.072 120.975 222.057 118.714 222.675 116.197C223.262 113.803 223.843 111.366 225.588 109.594C227.492 107.66 228.881 105.299 230.532 103.158C230.853 102.741 231.024 102.082 231.282 101.545C232.924 98.1193 233.862 94.4158 234.673 90.6818C234.903 89.6214 235.104 88.5273 235.325 87.4594C235.708 85.6051 236.872 84.1693 237.985 82.7523C238.662 81.928 239.385 81.1466 240.15 80.4118C240.636 79.9256 241.291 79.724 241.937 79.5432C243.413 79.1201 244.932 78.8523 246.472 78.7436C250.866 78.4564 255.183 77.6136 259.594 77.4429C261.603 77.3644 263.604 77.1686 265.608 77.0266L265.606 77.0292ZM220.787 96.1451C221.12 95.0002 221.505 94.012 221.63 92.9426C221.707 92.2725 221.999 91.5688 221.859 90.9489C221.644 90.0004 221.881 89.4351 222.491 88.801C224.101 87.1285 225.899 85.6257 227.051 83.5168C227.156 83.3108 227.33 83.1546 227.542 83.0771C228.822 82.6338 230.086 82.1336 231.386 81.7594C232.296 81.4982 233.207 81.1687 234.235 81.2486C233.281 81.9898 232.592 82.9883 231.696 83.7614C229.851 85.3564 228.332 87.3205 227.224 89.5468C226.817 90.354 226.537 91.2271 226.042 91.9986C225.133 93.4158 223.741 94.1927 222.453 95.11C221.967 95.4583 221.525 95.8998 220.786 96.1453L220.787 96.1451ZM266.528 73.6639C266.402 73.709 266.272 73.7448 266.14 73.7711C263.246 74.1689 260.281 74.0225 257.416 74.7032C255.908 75.0605 254.558 74.1881 253.163 73.5561C250.529 72.364 248.829 70.1931 247.223 67.8737C247.127 67.7336 246.98 67.573 247.072 67.3948C247.095 67.358 247.125 67.3268 247.16 67.3031C247.195 67.2795 247.235 67.2639 247.277 67.2574C247.319 67.2508 247.363 67.2535 247.405 67.2651C247.446 67.2768 247.486 67.2972 247.521 67.3251C248.364 68.0914 249.423 67.6522 250.313 68.0071C251.956 68.662 253.647 69.2726 255.162 70.1929C257.145 71.3977 259.223 71.9099 261.403 72.0278C263.22 72.1249 264.872 72.824 266.529 73.6635L266.528 73.6639ZM252.563 74.8938L252.529 75.1077C252.352 75.1722 252.17 75.2203 251.983 75.2513C249.031 75.4976 246.093 75.849 243.153 76.1867C242.227 76.2915 241.312 76.5106 240.327 76.384C238.713 76.1756 237.396 75.3259 236.059 74.4594C235.802 74.2922 235.563 74.1118 235.61 73.7689C235.659 73.4215 235.968 73.4452 236.208 73.4412C238.21 73.4144 240.078 72.9273 241.677 71.728C243.224 70.5678 244.747 70.8702 246.323 71.7991C246.474 71.882 246.629 71.9568 246.788 72.0231C248.747 72.9006 250.567 74.0989 252.563 74.8946L252.563 74.8938ZM207.525 87.4745C205.96 88.3023 204.708 89.1823 203.288 89.7614C202.657 90.0185 202.146 89.9782 201.577 89.4912C200.206 88.3159 198.609 87.5846 196.953 87.0191C196.675 86.9237 196.293 87.1068 196.292 86.6079C196.29 86.1914 196.663 86.1611 196.95 86.0768C198.665 85.5717 200.417 85.4682 202.182 85.9776C203.869 86.4649 205.515 87.1251 207.523 87.4734L207.525 87.4745ZM225.115 83.6826C224.173 84.719 223.453 85.9474 222.036 86.4438C220.276 87.0585 218.426 87.4303 216.755 88.274C215.756 88.7784 214.828 89.1167 213.963 87.9474C213.852 87.7978 213.568 87.8918 213.532 87.6691C214.519 86.853 215.813 86.8833 216.884 86.2695C219.41 84.8258 222.322 84.4483 225.113 83.6815L225.115 83.6826ZM247.747 70.5515C246.165 69.9247 244.516 69.8451 242.931 69.4258C241.532 69.0544 240.201 68.5159 239.345 66.8863C241.245 67.4838 243.064 67.4492 244.868 67.6734C245.311 67.7425 245.724 67.968 246.038 68.3117C246.699 68.9845 247.07 69.8803 247.747 70.5499L247.747 70.5515ZM190.887 93.6133C190.752 93.518 190.477 93.3797 190.598 93.2516C190.964 92.8623 190.933 92.1045 191.455 91.9562C192.736 91.5937 194.054 91.3486 195.361 91.0776C195.531 91.0427 195.797 91 195.885 91.2432C195.966 91.4686 195.759 91.6037 195.618 91.7321C194.63 92.6477 193.485 93.3643 192.238 93.8484C192.017 93.9355 191.776 93.9597 191.539 93.9185C191.302 93.8772 191.076 93.7721 190.884 93.6135L190.887 93.6133Z" fill="#475E1C"/>
<path d="M153.842 178.523C153.333 176.69 152.42 175.097 151.508 173.508C150.497 171.749 149.615 169.879 148.413 168.28C146.973 166.365 146.121 164.147 145.025 162.053C144.118 160.317 143.74 158.428 143.65 156.485C143.528 153.801 143.928 151.185 144.625 148.593C145.05 147.002 145.655 145.479 146.057 143.885C146.468 142.278 146.479 140.584 146.087 138.97C145.01 134.555 145.301 130.29 147.069 126.134C147.496 125.122 148.044 124.173 148.699 123.311C149.755 121.932 150.468 120.453 150.17 118.582C150.124 118.042 150.175 117.497 150.321 116.978C150.513 116.1 151.501 115.787 152.495 116.313C154.048 117.125 155.265 118.515 155.916 120.217C156.665 122.017 157.092 123.949 157.175 125.914C157.291 129.223 156.966 132.533 156.209 135.745C155.559 138.438 155.357 141.198 155.368 143.98C155.376 146.467 154.772 148.913 153.616 151.076C151.945 154.279 152.021 157.55 153.353 160.891C154.125 162.828 155.07 164.671 155.882 166.584C157.168 169.61 157.418 172.835 157.544 176.091C157.612 177.805 157.679 179.519 158.013 181.211C158.506 183.704 160.02 185.521 161.566 187.296C164.051 190.095 166.36 193.064 168.478 196.184C169.309 197.435 169.931 198.79 170.63 200.107C170.817 200.435 170.937 200.803 170.981 201.184C171.025 201.566 170.992 201.953 170.885 202.32C170.549 203.448 169.638 203.783 168.799 203.007C168.217 202.47 167.698 201.861 167.252 201.194C165.845 199.077 164.535 196.885 163.099 194.793C161.343 192.234 159.652 189.618 157.53 187.362C157.009 186.785 156.362 186.354 155.647 186.106C153.131 185.287 150.619 184.573 147.902 185.122C145.561 185.594 143.332 186.432 141.051 187.094C137.535 188.14 133.804 188.036 130.345 186.795C127.784 185.894 125.49 184.342 122.972 183.333C122.346 183.047 121.686 182.853 121.01 182.758C117.312 182.388 113.943 181.238 111.218 178.34C109.706 176.732 108.288 175.076 107.145 173.157C106.078 171.367 104.289 170.999 102.545 170.492C100.042 169.761 97.8902 168.424 96.8493 165.769C96.6889 165.322 96.624 164.844 96.6592 164.368C96.6944 163.891 96.8289 163.429 97.053 163.015C97.3178 162.531 97.8334 162.306 98.2814 162.734C99.5649 163.965 101.095 163.769 102.558 163.51C106.33 162.842 109.835 163.445 113.078 165.627C113.331 165.798 113.603 165.934 113.868 166.083C114.473 166.421 114.948 166.676 115.718 166.14C116.961 165.278 118.295 165.781 119.194 167.151C119.254 167.278 119.345 167.387 119.457 167.466C119.568 167.546 119.697 167.594 119.831 167.605C121.86 167.627 123.918 167.96 125.868 167.034C126.006 166.976 126.141 166.91 126.273 166.836C126.352 166.763 126.423 166.679 126.482 166.587C125.781 166.093 125.02 165.702 124.221 165.424C123.848 165.288 123.62 165.459 123.357 165.724C122.332 166.766 120.965 166.812 119.969 165.872C119.174 165.122 119.122 163.639 119.824 162.541C120.016 162.212 120.299 161.954 120.633 161.801C120.968 161.648 121.339 161.607 121.697 161.685C122.634 161.856 123.576 162.239 123.84 163.319C124.096 164.374 124.698 164.785 125.606 165.088C126.887 165.513 128.12 166.106 129.371 166.635C129.507 166.693 129.636 166.845 129.774 166.719C129.937 166.572 129.87 166.375 129.798 166.192C128.998 164.18 127.79 162.44 126.571 160.704C126.331 160.363 126.103 160.388 125.803 160.555C124.63 161.212 123.556 161.093 122.593 160.087C122.308 159.789 121.927 159.804 121.57 159.851C119.329 160.141 117.078 160.035 114.833 160.016C112.502 159.996 110.288 159.378 108.136 158.41C105.573 157.248 103.066 155.95 100.625 154.521C99.7062 153.987 98.8263 153.378 97.9543 152.762C97.2565 152.258 96.4498 151.95 95.6094 151.867C92.8144 151.621 90.154 150.487 87.9751 148.614C87.2398 147.981 86.3473 147.345 85.944 146.247C85.3639 144.669 84.1572 143.514 83.1388 142.264C82.1642 141.066 80.6392 140.85 79.2843 140.403C77.0678 139.672 74.8921 138.885 73.0462 137.316C71.7952 136.253 71.178 134.846 71.0313 133.201C70.9355 132.122 71.3165 131.666 72.3106 131.731C73.1666 131.75 74.0155 131.9 74.8306 132.178C77.4423 133.173 80.1192 133.787 82.9448 133.171C86.1452 132.472 89.3885 132.492 92.6095 132.967C96.9551 133.608 100.807 135.421 104.008 138.689C105.212 139.969 106.484 141.174 107.819 142.298C109.765 143.87 112.004 144.795 114.322 145.454C118.425 146.621 121.907 148.852 124.92 151.988C125.668 152.766 126.495 153.458 127.306 154.165C127.515 154.349 127.73 154.642 128.102 154.483C128.166 154.035 127.838 153.802 127.636 153.514C124.006 148.325 120.434 143.09 117.458 137.442C116.609 135.905 115.856 134.311 115.205 132.669C114.673 131.249 113.675 130.437 112.253 130.009C108.853 128.986 105.402 128.591 101.877 128.474C97.2486 128.323 92.6383 127.726 88.3745 125.688C85.5249 124.327 82.6851 122.914 79.9918 121.191C78.4027 120.175 76.7872 119.194 75.1738 118.217C74.6668 117.883 74.1834 117.51 73.7275 117.102C72.5275 116.112 71.2501 115.193 70.205 114.039C69.1691 112.887 68.3099 111.571 67.6585 110.137C66.479 107.545 64.8146 105.362 62.9118 103.359C61.9372 102.367 61.045 101.288 60.2451 100.133C59.6893 99.3396 59.2964 98.4311 59.0918 97.4663C58.6864 95.415 59.6399 94.2025 61.6211 94.2956C61.831 94.3022 62.0395 94.3341 62.2426 94.3906C64.7605 95.1405 67.3724 95.2097 69.9432 95.5687C73.5796 96.0766 76.4951 97.9851 79.0007 100.767C80.9687 102.95 82.8348 105.235 84.9107 107.314C86.1127 108.518 87.2453 109.801 88.6835 110.677C90.747 111.973 92.9731 112.951 95.2955 113.584C96.7868 113.972 98.0315 114.854 99.1581 115.929C99.599 116.347 99.9364 116.52 100.564 116.182C100.832 116.03 101.13 115.947 101.433 115.94C101.737 115.932 102.038 116.001 102.312 116.14C102.586 116.279 102.825 116.484 103.011 116.74C103.196 116.995 103.322 117.293 103.379 117.61C103.577 118.831 104.261 119.333 105.212 119.689C105.962 119.972 106.712 120.249 107.759 120.136C106.129 118.861 105.023 117.305 103.646 116.049C102.757 115.239 101.545 115.161 100.502 114.692C100.159 114.578 99.8254 114.433 99.506 114.258C98.5627 113.603 97.7276 113.045 96.4258 113.492C95.3094 113.875 94.1543 112.596 94.0951 111.318C94.0341 109.997 94.7912 109.221 96.1893 109.176C97.3384 109.139 98.2246 110.099 98.2063 111.474C98.1981 111.999 98.3529 112.224 98.7664 112.505C99.6791 113.125 100.561 113.778 101.657 113.986C101.859 114.024 102.091 114.178 102.24 113.955C102.399 113.722 102.181 113.551 102.048 113.385C101.572 112.788 101.173 112.245 100.225 112.328C99.1778 112.419 98.4058 111.21 98.5464 110.08C98.6892 108.932 99.5426 108.286 100.681 108.467C100.828 108.492 100.969 108.543 101.166 108.597C101.289 108.154 101.099 107.709 101.307 107.289C101.516 106.843 101.866 106.489 102.296 106.289C102.726 106.089 103.209 106.056 103.66 106.196C104.601 106.49 105.234 107.462 104.951 108.493C104.668 109.524 104.923 110.329 105.381 111.202C106.043 112.462 106.349 113.86 106.616 115.274C106.94 116.998 107.567 118.548 109.191 119.37C109.297 119.424 109.409 119.463 109.519 119.51C109.774 119.246 109.562 119.018 109.493 118.81C108.323 115.248 107.042 111.724 105.991 108.124C104.734 103.812 102.428 100.262 99.4268 97.163C98.6792 96.3915 97.7329 95.8208 97.0474 94.9995C95.8658 93.5816 94.843 92.0188 93.706 90.5554C92.7368 89.3246 91.9502 87.9441 91.3734 86.4617C90.7123 84.6545 90.2787 82.7628 90.0839 80.8354C89.9169 79.3089 89.9352 77.7855 89.8679 76.2618C89.6778 72.7401 89.1411 69.2491 88.2668 65.8458C87.3662 62.1843 87.5435 58.5508 88.2016 54.8829C88.6905 52.1617 88.8453 49.41 88.4104 46.6435C88.2127 45.3813 88.2394 44.1038 88.7669 42.9063C88.9671 42.4507 89.2683 42.0533 89.6449 41.7482C90.0214 41.4432 90.462 41.2394 90.929 41.1544C91.3959 41.0694 91.8754 41.1057 92.3262 41.2603C92.7771 41.4148 93.1859 41.6829 93.5178 42.0416C94.3191 42.8676 94.9106 43.8951 95.2372 45.0287C95.7905 47.0117 96.6082 48.9005 97.6656 50.6378C99.3421 53.4671 100.943 56.3355 102.225 59.3959C103.618 62.7245 104.17 66.2673 104.586 69.8445C105.024 73.6076 105.63 77.3512 106.817 80.9284C107.669 83.3687 108.307 85.8874 108.721 88.4524C109.312 92.4792 108.968 96.4434 108.078 100.375C107.706 101.859 107.641 103.411 107.886 104.925C108.32 107.251 108.931 109.54 109.522 111.828C110.204 114.501 111.078 117.114 112.134 119.646C112.362 120.187 112.509 120.779 113.106 121.311C113.179 118.2 114.2 115.341 113.152 112.271C111.96 108.78 111.484 105.147 112.466 101.399C112.86 99.8948 113.698 98.6368 114.043 97.0934C114.54 94.9657 114.656 92.7582 114.386 90.5852C114.034 88.03 114.069 85.4316 114.49 82.8881C114.942 80.3095 116.333 78.2021 117.892 76.2655C119.717 74.0458 120.74 71.211 120.779 68.2659C120.858 65.6722 122.032 63.5882 124.152 62.1922C125.222 61.4876 125.735 61.788 125.846 63.1324C125.899 64.1883 126.234 65.2064 126.812 66.0676C127.804 67.5336 128.667 69.0927 129.391 70.7256C130.067 72.1609 130.206 73.9015 130.483 75.5239C131.11 79.2048 130.683 82.8113 129.65 86.3528C129.287 87.6001 128.788 88.8126 128.531 90.0815C128.014 92.6493 127.623 95.2474 127.174 97.8302C126.453 102.17 124.697 106.242 122.075 109.659C121.266 110.716 120.335 111.674 119.592 112.824C119.151 113.504 118.303 114.104 117.83 114.846C115.793 118.058 114.505 121.597 114.88 125.515C115.021 126.987 115.713 128.453 116.577 129.737C116.866 129.534 116.75 129.289 116.764 129.088C116.872 127.644 117.514 127.013 119.001 126.905C120.02 126.831 121.255 127.848 121.43 128.926C121.477 129.144 121.461 129.372 121.385 129.581C120.721 130.91 121.035 131.926 121.819 133.193C122.497 134.289 123.194 135.382 123.919 136.45C124.052 136.647 124.192 136.977 124.455 136.867C124.812 136.719 124.589 136.375 124.543 136.115C124.229 134.392 123.989 132.68 124.231 130.906C124.39 129.739 123.674 128.799 123.111 127.891C122.487 126.884 121.707 125.989 121.027 125.018C120.922 124.847 120.775 124.708 120.601 124.618C120.428 124.528 120.235 124.489 120.043 124.506C118.478 124.558 117.82 123.873 117.849 122.262C117.875 120.732 118.757 119.883 120.232 119.96C121.047 120.004 121.677 120.362 122.025 121.171C122.215 121.574 122.285 122.03 122.226 122.477C122.167 122.923 121.982 123.341 121.695 123.674C121.306 124.151 121.393 124.422 121.661 124.886C122.262 125.876 122.955 126.798 123.73 127.64C123.871 127.802 124.007 128.036 124.244 127.935C124.539 127.81 124.458 127.523 124.405 127.274C124.141 126.196 123.984 125.091 123.936 123.978C123.932 123.52 123.604 123.34 123.325 123.102C122.859 122.692 122.545 122.119 122.439 121.487C122.333 120.854 122.442 120.202 122.747 119.646C123.342 118.652 124.576 118.31 125.701 118.823C126.07 118.968 126.386 119.235 126.601 119.585C126.817 119.935 126.92 120.349 126.896 120.766C126.896 121.879 126.556 122.883 125.544 123.23C124.625 123.546 124.584 124.168 124.808 124.83C125.699 127.446 125.703 130.124 125.477 132.836C125.456 133.083 125.316 133.487 125.685 133.556C125.958 133.608 126.152 133.308 126.299 133.064C127.287 131.463 127.988 129.682 128.366 127.812C128.426 127.507 128.432 127.25 128.179 127.04C127.356 126.359 127.289 125.384 127.442 124.436C127.586 123.532 127.474 122.665 127.427 121.779C127.179 116.912 128.204 112.308 130.009 107.866C130.756 106.024 131.498 104.178 132.16 102.302C132.983 99.9674 134.297 97.8925 135.2 95.6054C135.956 93.6882 136.565 91.7492 136.269 89.6095C136.186 89.0108 136.019 88.2759 136.703 87.8977C137.359 87.5346 137.919 87.9063 138.444 88.3128C139.04 88.7776 139.866 89.1449 140.206 89.7004C140.772 90.6275 141.375 91.6241 141.605 92.763C142.453 96.9801 143.504 101.149 144.083 105.427C144.474 108.311 143.885 110.978 142.836 113.601C141.838 116.095 140.809 118.622 141.145 121.416C141.511 124.466 141.191 127.512 141.222 130.557C141.228 131.15 140.962 131.843 140.841 132.494C140.071 136.644 138.551 140.524 136.91 144.338C136.443 145.422 135.932 146.513 135.453 147.596C134.622 149.476 134.689 151.56 134.726 153.59C134.772 154.792 134.882 155.991 135.056 157.18C135.153 157.951 135.566 158.6 135.984 159.223C136.933 160.657 138.013 161.988 139.209 163.196C142.636 166.624 145.655 170.476 149.167 173.815C150.767 175.337 152.286 176.954 153.843 178.527L153.842 178.523ZM128.897 129.568C128.463 130.799 128.168 131.932 127.61 132.947C127.259 133.582 127.064 134.401 126.565 134.836C125.803 135.5 125.649 136.161 125.757 137.15C126.044 139.761 126.59 142.361 126.231 145.017C126.19 145.271 126.236 145.532 126.362 145.752C127.138 147.062 127.865 148.409 128.701 149.673C129.285 150.557 129.829 151.502 130.722 152.176C130.397 150.845 130.449 149.483 130.192 148.167C129.664 145.453 129.632 142.656 130.099 139.93C130.264 138.937 130.574 137.98 130.645 136.955C130.775 135.073 130.113 133.393 129.624 131.669C129.441 131.016 129.351 130.314 128.897 129.567L128.897 129.568ZM152.52 182.1C152.443 181.969 152.359 181.844 152.267 181.726C150.14 179.288 147.618 177.27 145.689 174.608C144.672 173.207 143.026 172.985 141.492 172.522C138.595 171.647 135.859 172.293 133.109 173.136C132.944 173.188 132.724 173.22 132.689 173.441C132.685 173.489 132.69 173.538 132.704 173.584C132.719 173.63 132.742 173.672 132.772 173.708C132.803 173.744 132.84 173.773 132.882 173.793C132.923 173.814 132.968 173.825 133.014 173.826C134.179 173.774 134.776 174.919 135.725 175.256C137.477 175.879 139.241 176.575 141.052 176.875C143.424 177.269 145.445 178.33 147.305 179.805C148.855 181.036 150.642 181.627 152.52 182.101L152.52 182.1ZM141.826 170.931L141.93 170.722C141.825 170.538 141.705 170.364 141.572 170.203C139.302 167.854 137.11 165.424 134.908 163.005C134.213 162.244 133.598 161.393 132.712 160.789C131.259 159.802 129.654 159.583 128.022 159.365C127.708 159.324 127.401 159.307 127.228 159.637C127.052 159.972 127.32 160.175 127.515 160.353C129.141 161.825 130.371 163.597 130.942 165.791C131.494 167.913 132.93 168.754 134.796 169.091C134.971 169.129 135.145 169.177 135.316 169.234C137.465 169.893 139.698 170.174 141.827 170.931L141.826 170.931ZM112.663 127.467C111.891 125.62 111.408 123.953 110.601 122.425C110.243 121.746 109.799 121.411 109.031 121.42C107.181 121.445 105.418 120.921 103.711 120.212C103.424 120.093 103.224 119.658 102.915 120.088C102.656 120.447 102.943 120.743 103.127 121.024C104.221 122.701 105.594 124.059 107.356 124.895C109.041 125.695 110.799 126.315 112.661 127.467L112.663 127.467ZM124.746 143.473C124.613 141.895 124.783 140.313 123.927 138.858C122.864 137.054 121.576 135.394 120.726 133.455C120.219 132.296 119.667 131.332 118.235 131.717C118.052 131.766 117.876 131.479 117.709 131.645C118.015 133.065 119.095 133.975 119.594 135.281C120.773 138.357 122.929 140.791 124.744 143.473L124.746 143.473ZM135.193 171.2C133.508 170.597 132.107 169.473 130.548 168.689C129.171 167.997 127.747 167.5 126.037 168.289C127.965 169.147 129.436 170.494 131.053 171.605C131.459 171.866 131.938 171.97 132.408 171.9C133.365 171.797 134.223 171.291 135.192 171.202L135.193 171.2ZM102.811 110.122C102.642 110.107 102.33 110.027 102.35 110.225C102.41 110.826 101.916 111.46 102.253 111.965C103.08 113.206 104.009 114.371 104.913 115.551C105.031 115.704 105.223 115.934 105.445 115.787C105.651 115.651 105.565 115.385 105.528 115.171C105.284 113.665 104.788 112.217 104.064 110.896C103.937 110.661 103.754 110.466 103.534 110.33C103.314 110.194 103.064 110.121 102.809 110.12L102.811 110.122Z" fill="#577627"/>
<path d="M239.271 564.774C238.38 565.316 237.477 565.835 236.601 566.405C234.669 567.669 233.285 567.171 232.135 565.136C230.559 562.345 226.895 561.132 223.994 562.416C222.57 563.044 221.203 563.808 219.912 564.699C217.15 566.618 214.391 566.363 211.703 564.731C211.208 564.38 210.639 564.161 210.046 564.092C209.453 564.023 208.853 564.105 208.296 564.332C196.737 569.012 184.825 572.874 174.506 580.468C172.764 581.754 171.306 583.267 170.564 585.327C169.267 588.781 167.334 591.929 164.877 594.591C162.909 596.765 161.643 599.54 161.262 602.518C160.962 604.851 160.224 607.098 159.092 609.128C157.95 611.175 157.078 613.214 157.19 615.738C157.283 617.828 155.61 619.078 154.183 620.19C153.089 621.067 151.858 621.733 150.546 622.159C144.972 623.855 142.944 628.783 140.989 633.703C139.07 638.538 139.173 643.734 139.05 648.866C138.922 654.065 137.393 658.081 132.41 660.563C125.443 664.032 123.84 673.214 128.545 679.734C129.979 681.746 131.147 683.954 132.016 686.298C132.996 688.868 135.727 689.886 138.014 690.397C143.831 691.702 149.222 694.237 154.765 696.29C160.814 698.531 166.744 701.05 173.091 702.327C175.718 702.875 178.445 702.362 180.73 700.889C185.055 698.257 189.462 698.756 193.806 700.594C195.228 701.175 196.723 701.537 198.243 701.668C202.986 702.175 207.752 702.148 212.452 703.519C215.053 704.277 218.054 703.565 220.873 703.452C227.379 703.199 232.856 700.241 237.797 696.045C240.168 694.13 242.821 692.636 245.649 691.624C249.077 690.218 252.359 688.445 255.443 686.334C260.52 682.95 265.59 679.608 271.26 677.416C273.661 676.486 275.472 674.665 277.259 672.864C280.114 669.987 282.985 667.151 286.57 665.282C288.32 664.368 288.833 662.703 289.059 660.838C289.674 655.738 290.97 650.981 294.58 647.175C296.999 644.62 297.532 641.623 295.854 638.256C294.941 636.427 295.22 634.204 294.325 632.289C292.352 628.165 289.52 624.564 286.043 621.755C285.508 621.31 284.946 621.02 284.874 620.131C284.563 616.333 283.267 615.094 279.727 615.483C277.05 615.778 274.458 615.459 271.819 615.075C267.485 614.438 263.23 615.256 259.19 616.794C256.782 617.703 254.297 618.369 251.769 618.782C247.118 619.571 242.507 620.618 237.874 621.528C236.785 621.772 235.77 622.293 234.917 623.046C233.904 623.876 232.61 624.137 231.58 623.243C230.564 622.365 231.284 621.163 231.724 620.264C234.396 614.725 238.863 610.379 244.314 608.013C251.435 604.913 255.53 599.041 259.042 592.466C260.82 589.13 260.316 585.425 259.072 581.95C258.519 580.358 258.438 578.626 258.84 576.984C259.422 573.795 259.787 570.567 259.933 567.324C260.013 566.399 259.764 565.475 259.235 564.732C258.707 563.989 257.935 563.479 257.07 563.301C251.015 561.852 244.925 560.545 239.271 564.774Z" fill="#303E10"/>
<defs>
<clipPath id="clip0_711_146">
<rect width="183" height="301" fill="white" transform="translate(3 479) rotate(-90)"/>
</clipPath>
</defs>
</svg>
