<svg width="312" height="711" viewBox="0 0 312 711" fill="none" xmlns="http://www.w3.org/2000/svg">
<g clip-path="url(#clip0_751_22)">
<path d="M317.968 319.858L317.968 356.171C317.519 355.94 317.093 355.664 316.699 355.348C313.886 353.185 311.476 350.539 309.578 347.532C308.615 346.027 307.741 344.466 306.962 342.858C306.818 342.561 306.667 342.155 306.271 342.222C305.801 342.3 305.882 342.766 305.854 343.113C305.769 344.415 305.602 345.711 305.356 346.992C305.036 348.382 304.799 349.789 304.647 351.208C304.472 352.999 304.84 354.802 305.703 356.38C306.745 358.21 308.147 359.807 309.823 361.075C310.577 361.668 311.289 362.332 312.278 362.536C312.462 362.595 312.632 362.69 312.779 362.815C313.237 363.131 313.76 363.337 314.308 363.419C315.521 363.648 316.748 363.578 317.972 363.571L317.972 366.186C317.688 366.235 317.404 366.292 317.12 366.334C316.808 366.364 316.508 366.472 316.247 366.648C315.714 367.021 315.163 367.367 314.595 367.683C313.896 368.113 313.263 368.644 312.719 369.261C312.112 369.949 311.474 370.613 310.927 371.347C309.672 373.02 309.142 374.867 309.83 376.939C310.026 377.536 310.275 378.115 310.481 378.708C311.096 380.518 311.574 382.372 311.912 384.254C312.129 385.419 312.291 386.595 312.434 387.774C312.796 390.746 313.35 393.684 313.136 396.724C312.827 401.133 311.852 405.324 309.875 409.274C308.802 411.417 307.515 413.433 306.347 415.522C305.97 416.17 305.53 416.778 305.032 417.337C303.149 419.536 301.301 421.765 299.621 424.126C298.991 425.043 298.217 425.85 297.328 426.516C296.451 427.155 295.571 427.786 294.649 428.355C293.376 429.135 292.086 429.891 290.848 430.721C288.967 431.981 286.998 433.103 284.957 434.079C283.048 434.999 281.233 436.104 279.535 437.376C277.756 438.74 275.88 439.97 273.921 441.054C273.308 441.392 272.753 441.826 272.276 442.339C271.575 443.07 270.859 443.79 270.148 444.507C269.672 444.987 269.138 445.406 268.559 445.753C267.728 446.248 267.136 445.997 266.887 445.047C266.816 444.765 266.778 444.476 266.775 444.186C266.738 443.436 266.77 442.684 266.869 441.94C267.154 440.076 267.174 438.234 266.599 436.408C266.01 434.534 265.768 432.581 265.442 430.65C265.333 430.029 265.314 429.395 265.386 428.769C265.516 427.731 265.467 426.689 265.495 425.652C265.523 424.631 265.351 423.622 265.4 422.608C265.442 421.736 265.484 420.868 265.474 419.996C265.47 418.568 265.559 417.141 265.74 415.724C265.863 414.69 265.973 413.656 266.07 412.621C266.094 412.367 266.112 412.053 265.8 411.936C265.53 411.838 265.365 412.071 265.179 412.219C265.16 412.233 265.142 412.25 265.127 412.268C264.401 413.218 263.44 413.913 262.549 414.687C260.912 416.109 259.291 417.553 257.616 418.93C255.989 420.265 254.302 421.496 252.359 422.333C251.818 422.595 251.298 422.901 250.806 423.247C248.896 424.461 246.997 425.694 244.881 426.533C243.791 426.985 242.743 427.53 241.746 428.164C240.824 428.733 239.926 429.343 238.91 429.742C237.612 430.25 236.311 430.755 234.968 431.148C232.52 431.861 230.066 432.546 227.587 433.139C226.812 433.313 226.053 433.552 225.318 433.852C222.377 435.111 219.547 436.62 216.86 438.363C216.411 438.69 215.909 438.936 215.377 439.09C214.655 439.252 214.448 439.093 214.427 438.359C214.406 437.66 214.648 437.023 214.897 436.396C215.988 433.627 217.341 430.969 218.936 428.46C220.458 426.1 221.624 423.527 222.397 420.824C223.319 417.53 224.648 414.388 225.728 411.158C226.563 408.658 227.559 406.219 228.323 403.691C228.838 401.983 229.413 400.277 230.451 398.788C231.266 397.619 232.047 396.426 232.853 395.254C233.507 394.237 234.251 393.283 235.077 392.401C236.458 391.021 237.836 389.637 239.123 388.165C240.599 386.478 242.153 384.857 243.591 383.131C244.72 381.775 245.846 380.405 247.424 379.547C248.967 378.707 250.432 377.726 252.017 376.963C252.428 376.765 252.848 376.578 253.273 376.416C255.408 375.593 257.631 375.06 259.816 374.389C262.288 373.63 264.806 373.412 267.366 373.45C269.143 373.475 270.921 373.422 272.695 373.316C273.15 373.284 273.598 373.179 274.021 373.006C275.538 372.389 276.968 371.572 278.271 370.577C279.134 369.921 280.061 369.354 281.038 368.885C281.693 368.578 281.953 368.25 281.827 367.908C281.637 367.403 281.175 367.385 280.74 367.371C277.205 367.251 273.677 367.403 270.15 367.558C268.232 367.643 266.31 367.71 264.392 367.742C261.317 367.792 258.248 368.007 255.176 368.106C254.335 368.134 253.462 368.314 252.83 368.911C252.572 369.164 252.254 369.346 251.906 369.442C251.559 369.538 251.193 369.543 250.842 369.458C248.903 369.109 246.964 369.221 245.028 369.49C243.679 369.677 243.272 370.065 242.984 371.428C242.767 372.469 242.63 373.532 242.307 374.549C240.775 379.371 239.088 384.134 236.76 388.638C235.545 390.954 233.978 393.064 232.117 394.894C230.283 396.719 228.218 398.265 226.206 399.879C224.512 401.238 222.651 402.353 220.767 403.43C217.755 405.156 214.652 406.689 211.349 407.779C209.708 408.323 208.014 408.729 206.439 409.471C204.398 410.431 202.192 410.858 200.053 411.497C199.822 411.564 199.584 411.61 199.345 411.635C198.458 411.727 197.591 411.935 196.711 412.062C195.07 412.298 193.453 412.687 191.801 412.842C189.791 413.038 187.808 413.458 185.89 414.095C184.069 414.72 182.321 415.543 180.676 416.549C179.78 417.118 178.799 417.537 177.77 417.789C177.118 417.926 176.862 417.594 177.072 416.959C177.113 416.845 177.161 416.734 177.216 416.626C177.78 415.451 178.334 414.268 178.916 413.1C180.189 410.547 181.469 407.998 182.419 405.298C182.805 404.203 183.187 403.106 183.636 402.036C184.871 399.037 186.416 396.179 188.247 393.508C189.622 391.524 190.87 389.454 192.161 387.414C193.567 385.183 195.023 382.994 196.926 381.148C197.375 380.714 197.873 380.325 198.315 379.881C200.555 377.611 203.039 375.62 205.429 373.526C207.156 372.056 209.029 370.77 211.019 369.688C212.316 368.962 213.6 368.174 215.038 367.736C217.557 366.929 220.134 366.314 222.745 365.897C224.863 365.586 226.974 365.251 229.123 365.325C229.867 365.349 230.61 365.427 231.354 365.455C233.37 365.523 235.38 365.733 237.367 366.084C238.773 366.334 240.102 366.836 241.445 367.28C242.351 367.608 243.306 367.776 244.268 367.778C245.566 367.754 246.863 367.778 248.161 367.785C248.329 367.785 248.497 367.768 248.666 367.757C249.156 367.729 249.086 367.33 249.164 367.012C249.241 366.687 249.132 366.476 248.827 366.401C247.733 366.137 246.807 365.508 245.829 364.993C244.759 364.42 243.539 364.193 242.336 364.343C241.068 364.468 239.793 364.497 238.521 364.428C237.634 364.396 236.75 364.304 235.86 364.297C232.688 364.279 229.524 363.973 226.406 363.383C223.12 362.755 219.94 361.657 216.963 360.121C215.767 359.504 214.593 358.836 213.379 358.254C208.831 356.062 205.071 352.891 201.857 349.008C200.408 347.26 199.093 345.407 197.6 343.702C196.712 342.68 195.943 341.559 195.306 340.362C193.398 336.807 191.54 333.228 190.074 329.454C189.068 326.863 187.935 324.324 186.722 321.821C186.075 320.441 185.249 319.153 184.267 317.99C182.791 316.298 181.461 314.483 180.291 312.564C179.706 311.561 178.99 310.641 178.162 309.828C178.073 309.747 177.993 309.656 177.924 309.557C177.745 309.288 177.79 309.111 178.078 308.978C178.391 308.846 178.739 308.823 179.067 308.911C180.15 309.139 181.205 309.483 182.216 309.938C185.13 311.207 188.183 312.125 191.312 312.674C194.267 313.21 197.234 313.669 200.095 314.637C202.168 315.336 204.289 315.883 206.262 316.861C208.527 317.984 210.817 319.051 213.132 320.063C214.082 320.476 214.991 320.98 215.846 321.567C218.742 323.558 221.568 325.659 224.423 327.71C226.165 328.963 227.768 330.393 229.399 331.784C229.585 331.943 229.735 332.2 230.097 332.126C230.05 331.658 229.823 331.283 229.655 330.891C229.143 329.69 228.539 328.524 228.136 327.282C227.575 325.556 227.13 323.795 226.723 322.026C226.502 321.059 226.187 320.116 226.033 319.131C225.59 316.286 224.962 313.475 224.661 310.605C224.556 309.621 224.381 308.643 224.237 307.661C223.886 305.268 223.732 302.846 223.224 300.473C222.914 299.155 222.696 297.816 222.572 296.467C222.467 295.019 222.116 293.593 222.116 292.139C222.094 290.735 221.912 289.339 221.573 287.977C221.215 286.42 220.822 284.874 220.38 283.338C220.208 282.781 220.15 282.195 220.212 281.615C220.296 280.944 220.668 280.69 221.32 280.838C221.788 280.963 222.221 281.191 222.59 281.506C223.687 282.371 224.799 283.218 225.871 284.114C229.101 286.759 232.653 288.978 236.441 290.719C238.247 291.569 240.102 292.318 241.774 293.433C242.356 293.822 242.967 294.16 243.549 294.542C245.362 295.728 247.185 296.904 248.875 298.267C251.558 300.428 254.173 302.672 256.891 304.791C257.615 305.312 258.278 305.915 258.865 306.588C259.609 307.51 260.357 308.426 261.109 309.338C261.478 309.787 261.825 310.252 262.228 310.666C262.614 311.061 262.887 310.966 263.045 310.433C263.072 310.34 263.093 310.245 263.108 310.15C263.486 308.127 263.649 306.07 263.596 304.012C263.575 303.433 263.483 302.854 263.487 302.275C263.506 301.016 263.426 299.758 263.248 298.511C263.211 298.247 263.194 297.98 263.199 297.714C263.224 295.892 262.94 294.095 262.831 292.284C262.677 289.703 262.007 287.228 261.313 284.757C261.019 283.684 260.638 282.636 260.173 281.626C259.678 280.577 259.199 279.521 258.735 278.456C258.535 277.997 258.265 277.542 258.432 277.001L258.865 277.001C261.113 278.233 262.901 280.024 264.668 281.838C265.356 282.544 265.927 283.384 266.678 284.012C268.41 285.469 270.175 286.9 272.176 287.976C274.623 289.321 276.95 290.878 279.13 292.629C280.132 293.419 281.083 294.281 282.149 294.983C284.039 296.233 285.571 297.889 287.04 299.569C288.58 301.331 290.196 303.022 291.725 304.791C293.185 306.431 294.513 308.185 295.698 310.037C296.715 311.678 297.683 313.352 298.787 314.94C299.478 315.989 300.093 317.086 300.628 318.223C302.038 321.037 302.929 324.073 304.296 326.901C304.447 327.211 304.479 327.706 304.927 327.677C305.323 327.656 305.352 327.197 305.446 326.887C305.937 325.316 306.554 323.791 307.179 322.269C307.513 321.387 307.919 320.535 308.392 319.72C308.538 319.455 308.746 319.229 308.997 319.062C309.249 318.895 309.537 318.791 309.837 318.76C310.194 318.717 310.556 318.707 310.913 318.657C313.396 318.326 315.73 318.883 318 319.847L317.968 319.858ZM286.402 365.734L286.402 365.759C287.773 365.759 289.141 365.755 290.512 365.759C292.654 365.766 294.772 365.399 296.908 365.339C299.885 365.258 302.858 365.064 305.828 364.866C306.958 364.832 308.08 364.671 309.174 364.386C310.058 364.124 310.212 363.651 309.721 362.861C309.502 362.542 309.251 362.247 308.97 361.982C307.953 360.923 306.747 360.06 305.864 358.857C305.208 357.964 304.485 357.117 303.791 356.249C303.533 355.867 303.203 355.541 302.82 355.288C301.6 354.617 300.39 353.957 298.949 353.809C297.51 353.703 296.084 353.473 294.685 353.12C292.683 352.558 290.824 351.648 288.923 350.836C287.791 350.353 286.812 349.583 285.725 349.022C284.249 348.255 282.822 347.408 281.405 346.547C278.979 345.071 276.514 343.655 274.298 341.859C273.775 341.435 273.225 341.039 272.67 340.655C272.316 340.411 272.109 340.489 271.945 340.881C271.891 341.016 271.854 341.157 271.836 341.301C271.334 344.658 270.475 347.934 269.581 351.2C269.073 353.067 268.543 354.928 268.179 356.831C268.06 357.34 268.067 357.872 268.201 358.378C268.334 358.884 268.589 359.349 268.943 359.733C270.222 361.213 271.719 362.487 273.382 363.51C273.894 363.83 274.454 364.062 275.041 364.199C275.4 364.25 275.739 364.4 276.018 364.633C276.537 365.116 277.175 365.303 277.842 365.43C278.955 365.621 280.082 365.716 281.211 365.716C282.94 365.755 284.672 365.727 286.401 365.727L286.402 365.734ZM294.075 367.199C291.872 367.196 289.982 367.41 288.092 367.549C287.2 367.61 286.332 367.87 285.55 368.308C284.912 368.645 284.247 368.926 283.562 369.148C281.949 369.734 280.392 370.44 279.063 371.552C277.485 372.872 276.605 374.504 276.959 376.65C277.036 377.126 277.033 377.614 277.092 378.094C277.384 380.547 277.601 383.005 277.279 385.476C277.23 385.85 277.1 386.296 277.545 386.514C277.983 386.729 278.25 386.337 278.537 386.1C279.544 385.274 280.396 384.279 281.42 383.47C283.629 381.723 285.74 379.838 288.355 378.691C288.42 378.659 288.483 378.624 288.544 378.585C290.592 377.459 292.686 376.431 294.923 375.732C296.003 375.397 297.072 375.03 298.138 374.659C298.952 374.365 299.795 374.156 300.651 374.034C301.913 373.868 303.176 373.699 304.444 373.582C305.42 373.52 306.372 373.255 307.242 372.805C308.111 372.355 308.879 371.729 309.497 370.966C310.479 369.77 311.493 368.612 312.727 367.666C313.004 367.455 313.232 367.182 313.141 366.801C313.089 366.611 312.982 366.442 312.832 366.316C312.682 366.191 312.497 366.114 312.303 366.098C311.995 366.048 311.682 366.033 311.37 366.051C308.348 366.157 305.322 366.298 302.313 366.609C300.735 366.771 299.143 366.718 297.568 366.919C296.306 367.082 295.047 367.29 294.069 367.195L294.075 367.199ZM259.598 366.334C262.162 366.366 264.967 366.172 267.779 366.154C269.024 366.147 270.272 366.059 271.521 366.031C271.713 366.028 271.904 366.006 272.092 365.964C272.962 365.763 273.109 365.29 272.502 364.647C272.051 364.212 271.545 363.837 270.998 363.531C270.179 363.027 269.4 362.458 268.67 361.83C267.152 360.513 265.518 359.373 263.498 358.935C262.747 358.773 262.008 358.546 261.275 358.324C257.526 357.187 253.802 355.962 250.068 354.78C247.826 354.044 245.712 352.961 243.801 351.57C242.501 350.697 241.285 349.703 240.169 348.601C240.042 348.47 239.902 348.262 239.688 348.417C239.527 348.535 239.618 348.728 239.642 348.894C239.652 348.964 239.673 349.035 239.688 349.105C240.491 352.497 241.592 355.806 242.528 359.156C242.774 359.995 243.194 360.772 243.759 361.436C244.721 362.553 245.866 363.496 247.143 364.225C248.254 364.869 249.531 365.167 250.811 365.079C251.361 365.024 251.912 365.179 252.354 365.513C252.811 365.877 253.385 366.06 253.967 366.028C254.376 366.016 254.784 366.062 255.18 366.166C255.719 366.292 256.272 366.35 256.825 366.339C257.666 366.335 258.508 366.339 259.594 366.339L259.598 366.334Z" fill="#CDE897"/>
</g>
<path d="M199.167 703.996C198.175 687.38 196.686 670.819 193.725 654.419C193.587 653.644 193.712 652.552 192.817 652.316C192.068 652.117 191.562 653.044 191.089 653.587C185.242 660.313 177.578 664.101 169.305 666.965C161.658 669.61 154.162 672.665 146.428 675.07C143.664 675.882 140.848 676.513 137.999 676.957C134.511 677.558 131.959 679.354 129.884 682.061C128.308 684.114 126.994 686.37 125.133 688.208C124.806 688.527 124.484 689.069 123.949 688.759C123.577 688.539 123.698 688.022 123.761 687.616C123.83 687.008 123.934 686.404 124.07 685.807C125.488 680.505 123.296 676.283 120 672.383C116.056 667.718 113.416 662.54 112.437 656.401C111.935 653.251 110.271 650.254 109.865 647.009C108.748 638.022 108.313 629.135 113.119 620.811C114.587 618.269 116.846 616.68 118.896 614.809C123.307 610.82 128.103 607.268 133.214 604.204C134.385 603.496 135.042 602.523 135.603 601.281C138.146 595.631 140.865 590.055 143.952 584.678C147.629 578.279 153.552 574.144 159.508 570.083C160.525 569.387 161.57 568.729 162.595 568.046C165.774 565.931 169.083 565.492 172.772 566.792C177.729 568.539 182.51 570.513 186.45 574.094C186.777 574.392 187.099 574.947 187.651 574.599C188.115 574.305 187.973 573.734 187.952 573.278C187.81 569.615 187.714 565.948 187.471 562.293C187.007 555.318 186.438 548.351 185.932 541.376C185.342 533.247 184.146 525.183 183.301 517.082C182.706 510.896 182.471 504.681 182.598 498.467C183.966 499.428 184.07 500.732 184.614 501.742C185.85 504.069 186.488 506.662 186.471 509.292C186.563 516.494 187.755 523.614 188.718 530.746C189.998 540.242 190.7 549.787 191.487 559.333C192.022 565.836 192.051 572.355 192.641 578.85C192.687 579.372 192.507 580.1 193.143 580.278C193.833 580.469 194.289 579.802 194.578 579.314C198.213 573.142 204.274 569.872 210.201 566.424C211.623 565.596 212.991 564.979 214.639 565.782C215.317 566.109 216.07 566.088 216.404 565.31C217.005 563.941 217.523 562.538 217.956 561.109C218.253 560.119 217.358 559.71 216.701 559.225C212.623 556.232 208.423 553.38 204.504 550.189C199.915 546.451 199.568 546.083 204.926 542.341C206.943 540.933 209.306 540.126 211.632 539.278C211.452 538.702 211.046 538.884 210.787 538.951C208.097 539.617 205.357 539.642 202.605 539.687C200.288 539.725 198.054 540.267 196.899 542.589C196.494 543.405 196.071 543.107 195.599 542.854C194.331 542.179 193.08 541.471 191.821 540.78C190.968 540.312 191.223 539.629 191.533 539.017C192.061 538.055 192.851 537.257 193.812 536.715C197.887 534.19 202.35 531.972 207.051 532.075C211.77 532.183 217.007 531.5 221.014 535.486C222.562 537.026 225.067 536.541 227.121 536.79C228.305 536.935 227.891 535.602 227.406 534.973C226.181 533.404 224.608 532.134 222.809 531.264C219.119 529.459 215.275 527.936 212.088 525.262C211.573 524.831 211.142 524.889 210.611 525.241C209.879 525.747 209.105 526.19 208.298 526.566C205.428 527.816 202.923 527.145 201.015 524.719C197.82 520.663 195.444 516.308 194.544 511.109C193.812 506.879 191.516 503.273 188.383 500.247C187.684 499.573 187.044 499.039 185.919 499.043C184.748 499.047 183.74 498.306 182.836 497.557C178.85 494.254 174.562 493.558 169.882 496.05C168.731 496.663 167.389 497.023 166.418 497.834C162.223 501.353 157.111 501.965 151.979 502.441C141.978 503.414 131.882 502.478 122.238 499.684C120.398 499.131 118.606 498.432 116.88 497.594C109.288 493.984 101.227 491.273 94.4466 486.099C93.9379 485.751 93.3956 485.455 92.8278 485.213C86.0305 481.935 79.8356 477.688 73.4901 473.66C69.4368 471.085 65.9942 467.695 61.7527 465.41C61.4181 465.228 60.9831 465.038 61.1295 464.367C63.2502 464.326 64.8188 465.671 66.4334 466.665C76.3345 472.77 87.2226 475.676 98.7216 476.781C105.622 477.499 112.586 477.347 119.448 476.33C122.042 475.983 124.553 475.182 126.864 473.966C129.403 472.567 129.646 470.448 127.463 468.531C125.154 466.503 122.2 466.135 119.331 466.222C107.811 466.574 96.4753 464.839 85.0893 463.626C77.8654 462.856 70.608 462.393 63.3631 461.797C62.9522 461.765 62.5391 461.77 62.1292 461.813C59.222 462.107 58.5402 461.66 57.0887 459.102C54.4033 454.375 51.5923 449.714 48.9027 444.991C48.0117 443.426 46.8029 442.892 45.0293 442.934C41.3274 443.016 37.5962 442.656 34.1788 444.602C32.6982 445.491 31.2999 446.508 30 447.64C32.1208 442.565 36.9353 438.07 42.2518 438.682C45.4141 439.047 48.3882 436.969 51.4125 435.884C57.3062 433.773 62.2589 430.056 67.3579 426.629C71.6182 423.697 76.7455 422.256 81.927 422.535C85.0141 422.671 88.0885 422.212 91.1839 422.456C92.4869 422.488 93.7672 422.8 94.936 423.371C101.286 426.811 107.983 429.418 114.859 431.629C117.934 432.618 120.418 434.589 122.681 436.782C127.048 441.017 131.319 445.347 135.649 449.619C136.862 450.815 138.125 451.974 140.467 452.197C139.229 449.772 137.56 448.029 136.121 446.15C130.069 438.223 122.305 432.043 114.692 425.718C110.777 422.468 105.92 421.343 101.102 420.2C100.466 420.051 99.5581 420.155 99.5038 419.273C99.4619 418.611 100.177 418.242 100.746 418.056C104.979 416.677 108.957 414.595 113.337 413.602C118.068 412.476 123.043 412.939 127.479 414.918C135.715 418.669 144.445 420.734 153.016 423.35C154.137 427.92 156.701 431.72 159.282 435.594C163.603 442.081 166.318 449.35 168.748 456.705C169.606 459.213 170.712 461.631 172.049 463.924C173.073 465.725 174.416 465.646 175.403 463.825C176.156 462.434 176.796 460.94 176.349 459.346C175.14 455.033 175.027 450.645 175.244 446.224C175.322 445.372 175.141 444.516 174.726 443.766C174.31 443.015 173.678 442.404 172.91 442.01C171.317 441.112 170.141 439.825 169.016 438.446C166.059 434.82 163.737 430.66 159.964 427.713C157.801 426.024 156.174 423.483 153.004 423.375C156.066 421.322 159.487 421.396 162.88 421.972C174.077 423.863 184.451 428.247 194.691 432.842C199.735 435.106 204.362 438.268 209.277 440.827C213.158 442.847 217.279 444.444 220.688 447.272C225.389 451.167 228.815 456.043 231.806 461.292C234.186 465.468 236.169 469.686 236.788 474.55C238.306 486.48 228.56 492.73 218.889 491.381C216.986 491.116 215.083 490.839 213.2 490.466C211.523 490.135 210.109 490.847 208.633 491.377C204.763 492.759 200.831 493.931 196.774 494.99C198.882 495.549 200.923 494.692 202.99 494.928C210.9 495.827 215.279 502.04 215.727 508.729C216.024 513.129 215.903 512.732 220.387 512.537C227.485 512.227 234.391 510.749 241.393 509.888C242.029 509.809 242.937 509.528 243.23 510.306C243.485 510.985 242.552 511.196 242.171 511.639C240.615 513.456 239.089 515.294 238.311 517.608C237.931 518.636 237.863 519.75 238.114 520.816C238.15 521.019 238.242 521.209 238.38 521.364C238.518 521.519 238.697 521.633 238.896 521.693C239.394 521.822 239.653 521.462 239.833 521.085C241.791 517.016 245.447 514.897 249.274 512.939C250.428 512.347 251.483 511.569 252.595 510.898C253.75 510.203 254.95 509.805 256.306 510.352C256.676 510.536 257.088 510.62 257.502 510.596C260.928 509.921 264.479 510.335 267.88 509.408C272.243 508.216 276.568 506.953 281.227 507.64C282.641 507.847 284.185 507.181 285.666 506.912C291.71 505.811 297.445 506.597 302.678 509.884C305.861 511.879 309.098 513.858 311.37 516.97C311.847 517.624 312.407 518.237 312.52 518.966C304.146 516.271 296.161 517.972 288.359 521.238C284.687 522.774 281.023 524.322 277.204 525.444C273.908 526.439 270.865 528.115 268.273 530.361C267.311 531.173 265.897 532.15 266.512 533.507C267.148 534.915 268.842 534.335 270.072 534.203C272.339 533.963 274.439 533.052 276.572 532.299C286.316 528.792 296.261 525.857 306.354 523.511C314.202 521.735 320.522 523.933 326.102 529.223C327.29 530.353 328.482 531.479 329.633 532.646C330.706 533.73 331.464 535.08 331.829 536.554C329.766 535.995 328.076 535.138 326.232 534.728C317.799 532.862 309.387 532.655 300.933 534.637C296.997 535.56 292.894 535.709 289.045 537.034C287.966 537.407 286.05 537.518 286.264 538.897C286.46 540.168 288.259 539.576 289.347 539.629C294.856 539.894 300.298 538.876 305.777 538.682C314.172 538.383 322.605 537.121 330.929 539.571C336.409 541.186 340.847 544.473 342.738 549.527C344.281 553.65 347.209 556.944 348.393 561.258C349.38 564.863 350.376 568.431 350.919 572.124C350.995 572.645 351.141 573.345 350.652 573.659C350.008 574.069 349.506 573.432 349.062 573.059C348.326 572.451 347.707 571.693 346.95 571.122C344.587 569.338 341.792 568.725 339.178 569.959C336.011 571.449 333.535 570.327 330.661 569.209C326.884 567.74 324.32 564.416 320.656 563.067C313.26 560.347 307.191 554.937 299.415 553.058C298.202 552.764 296.914 552.548 296.357 553.852C295.826 555.094 297.035 555.752 297.888 556.427C301.071 558.952 305.054 559.801 308.659 561.448C315.942 564.776 323.417 567.707 330.377 571.705C331.26 572.215 332.247 572.542 333.146 573.026C333.652 573.299 334.418 573.523 334.221 574.313C334.041 575.034 333.314 575.083 332.707 575.125C330.448 575.282 328.189 575.46 325.931 575.534C320.171 575.721 314.394 575.298 308.642 575.969C307.2 576.11 305.746 575.888 304.414 575.323C302.054 574.4 299.716 573.403 297.164 573.047C296.406 572.946 295.701 572.603 295.157 572.07C294.719 571.593 294.155 571.247 293.529 571.07C292.903 570.894 292.24 570.895 291.614 571.072C292.241 572.38 292.601 573.771 291.948 575.228C291.509 576.209 290.99 576.813 289.769 576.478C288.514 576.13 287.222 575.936 285.954 575.621C282.161 574.683 278.32 573.947 274.447 573.415C270.502 572.881 267.043 570.998 263.697 568.94C262.325 568.1 260.928 567.301 259.301 566.337C260.585 569.979 263.099 572.616 264.567 576.077C262.609 575.919 261.195 574.909 259.648 574.33C253.226 571.937 246.817 569.51 240.423 567.049C238.248 566.217 236.056 565.405 233.964 564.395C229.79 562.384 228.309 557.847 229.995 553.687C231.292 550.483 232.212 547.126 233.186 543.802C233.529 542.63 233.128 541.927 231.597 541.972C227.489 542.092 227.498 542.03 226.343 546C225.791 547.892 225.314 549.808 224.323 551.547C223.816 552.445 223.643 553.491 223.833 554.502C224.227 557.011 223.331 559.49 223.628 562.023C223.758 563.116 222.859 562.719 222.357 562.4C221.148 561.634 220.612 562.259 220.232 563.311C220.15 563.57 220.052 563.825 219.939 564.072C218.751 566.465 218.956 568.324 220.901 570.575C226.137 576.554 228.957 584.236 228.819 592.146C228.797 597.536 227.646 602.864 225.44 607.793C223.654 611.91 222.178 616.152 221.022 620.484C217.898 631.565 211.1 639.691 201.287 645.544C197.736 647.663 197.514 648.118 198.225 652.1C200.384 664.212 202.396 676.345 203.659 688.581C204.19 693.71 204.525 698.859 204.952 704H199.179L199.167 703.996ZM131.42 626.813C131.42 625.7 131.474 624.611 131.403 623.53C131.332 622.471 130.859 622.193 129.972 622.976C128.348 624.33 126.814 625.788 125.379 627.339C122.008 631.197 119.31 635.547 116.098 639.521C113.157 643.159 112.797 647.618 111.906 651.914C111.846 652.18 111.873 652.458 111.981 652.709C112.22 653.185 112.446 653.847 112.852 654.021C113.412 654.257 113.738 653.529 114.094 653.164C115.102 652.138 114.935 650.61 115.667 649.447C119.561 643.271 123.744 637.294 129.228 632.393C131.064 630.754 132.055 629.181 131.415 626.809L131.42 626.813ZM342.022 551.596C340.671 549.245 338.061 547.801 334.409 546.662C328.465 544.808 322.375 544.94 316.276 545.023C313.746 545.056 311.198 544.787 308.693 545.342C308.128 545.466 307.258 545.342 307.241 546.149C307.224 546.857 308.044 546.985 308.596 547.196C311.056 548.14 313.675 548.326 316.26 548.554C321.509 549.009 326.771 549.316 332.029 549.709C335.309 549.953 338.488 550.768 342.027 551.605L342.022 551.596ZM135.176 627.107C140.032 623.377 144.91 620.215 148.929 616.005C149.699 615.202 150.402 614.233 149.712 613.095C149.021 611.957 147.88 611.849 146.629 612.081C140.07 613.281 134.866 619.896 135.176 627.107ZM269.779 513.001C269.503 512.612 269.206 512.603 268.971 512.728C265.052 514.855 260.539 515.629 256.69 517.836C254.268 519.222 252.834 521.627 252.039 524.31C251.867 524.881 251.78 525.597 252.344 526.015C252.926 526.446 253.562 526.094 254.047 525.738C254.935 525.107 255.781 524.418 256.577 523.676C259.97 520.414 263.454 517.269 267.42 514.669C268.214 514.147 269.348 513.986 269.779 513.001ZM278.074 557.735C276.907 555.765 275.815 553.745 274.547 551.836C273.84 550.773 272.887 549.808 271.465 549.659C271.125 549.59 270.773 549.618 270.449 549.741C270.126 549.865 269.845 550.078 269.641 550.355C269.222 550.996 269.699 551.526 270.105 551.977C272.292 554.462 275.015 556.43 278.074 557.735ZM252.742 554.49C252.089 551.762 251.541 549.287 250.884 546.836C250.713 546.203 250.219 545.565 249.37 545.739C248.467 545.921 248.295 546.671 248.212 547.453C247.927 550.028 249.763 553.082 252.742 554.49Z" fill="#577526"/>
<path d="M164.639 277.152C166.807 276.471 168.968 275.761 171.147 275.121C172.812 274.651 174.373 273.865 175.745 272.806C177.51 271.43 179.335 270.132 181.073 268.722C184.055 266.303 187.513 265.104 191.238 264.564C192.454 264.387 193.667 264.209 194.744 263.604C200.467 260.4 206.628 259.81 213.03 260.166C217.517 260.418 221.878 261.422 226.247 262.231C231.178 263.145 236.201 263.667 241.041 265.012C249.11 267.252 257.347 268.106 265.681 268.562C268.914 268.753 272.158 268.67 275.378 268.312C276.428 268.192 277.953 268.307 278.161 266.974C278.353 265.752 276.843 265.829 276.037 265.448C268.314 261.804 260.136 259.386 252.07 256.672C244.577 254.151 237.053 251.709 229.626 248.994C225.831 247.569 221.926 246.457 217.948 245.669C215.331 245.174 212.949 243.986 210.723 242.563C207.863 240.735 204.831 239.662 201.393 239.833C200.834 239.877 200.272 239.785 199.756 239.564C196.16 237.799 192.481 236.112 190.135 232.634C188.672 230.467 186.81 228.75 184.398 227.809C181.729 226.769 180.015 224.795 178.499 222.533C175.566 218.16 172.357 213.972 169.97 209.236C168.677 206.673 166.352 205.038 164.125 203.35C163.568 202.926 163.07 202.431 162.558 201.98C162.885 201.34 163.318 201.65 163.667 201.696C172.388 202.844 181.061 202.907 189.667 200.669C197.012 198.759 204.096 199.388 211.302 201.955C215.327 203.39 218.426 205.856 221.813 208.111C228.243 212.388 233.82 217.752 240.063 222.26C240.906 222.913 241.667 223.665 242.33 224.5C244.769 227.361 247.344 230.036 250.393 232.305C253.455 234.58 255.766 237.681 258.167 240.627C260.931 244.014 263.649 247.404 267.347 249.867C268.445 250.604 269.429 251.499 270.267 252.523C272.721 255.509 276.161 257.301 278.959 259.869C279.556 260.418 280.518 261.436 281.287 260.695C281.991 260.018 281.113 259.017 280.669 258.246C276.143 250.349 271.108 242.811 264.955 236.077C260.713 231.438 256.669 226.62 252.452 221.956C248.995 218.137 245.745 214.088 242.429 210.121C239.791 206.965 236.477 204.804 233.116 202.638C231.227 201.415 229.821 199.572 229.141 197.422C227.557 192.811 225.459 188.599 221.623 185.308C219.541 183.521 218.673 180.751 218.049 178.046C217.027 173.618 217.428 169.144 217.675 164.68C217.866 161.214 217.878 157.765 216.858 154.4C216.748 154.037 216.451 153.59 216.87 153.278C217.229 153.009 217.532 153.368 217.797 153.577C221.678 156.633 226.215 157.912 231.014 158.541C235.35 159.109 239.351 160.727 243.149 162.786C247.427 165.104 251.604 167.615 255.833 170.024C258.57 171.584 260.669 173.726 262.485 176.334C267.394 183.372 269.692 191.39 271.589 199.585C273.593 208.241 274.952 217.057 277.514 225.573C279.649 232.675 280.966 239.981 283.195 247.053C284.157 250.098 285.386 253.065 285.988 256.224C286.039 256.421 286.12 256.609 286.228 256.782C286.467 257.213 286.606 257.861 287.227 257.772C287.81 257.688 287.907 257.064 287.998 256.57C288.862 251.866 289.796 247.157 289.771 242.36C289.732 233.918 289.735 225.426 288.158 217.127C286.607 208.947 285.586 200.665 283.445 192.594C281.993 187.11 280.399 181.629 280.466 175.845C280.443 173.759 280.854 171.69 281.672 169.769C282.226 168.523 282.726 168.698 283.722 169.298C288.031 171.899 290.911 175.791 293.538 179.921C294.617 181.62 295.836 183.1 297.696 184.025C298.84 184.594 299.642 185.59 300.245 186.763C302.323 190.827 304.641 194.786 304.926 199.529C305.06 201.768 305.186 204.003 304.817 206.224C303.759 212.593 302.479 218.93 301.616 225.32C300.742 231.795 299.073 238.076 297.424 244.359C296.379 248.337 294.638 252.1 292.959 255.861C292.589 256.691 291.844 257.834 292.68 258.341C293.643 258.926 294.132 257.525 294.617 256.885C298.153 252.228 300.431 246.895 302.723 241.567C304.411 237.645 305.12 233.501 305.976 229.364C307.077 224.036 307.583 218.607 308.891 213.316C309.004 212.848 309.221 212.41 309.525 212.036C309.83 211.663 310.214 211.362 310.65 211.157C310.865 211.041 311.219 210.841 311.33 210.922C312.52 211.796 313.739 211.378 314.973 211.096C315.739 210.921 315.967 211.427 315.991 212.061C316.109 215.004 316.76 217.747 318.463 220.24C319.387 221.591 319.495 223.304 319.635 224.93C319.717 226.154 320.135 227.33 320.843 228.329C321.923 229.838 322.063 231.531 321.656 233.282C320.665 237.549 318.898 241.371 315.887 244.687C313.471 247.349 310.739 249.591 308.007 251.865C307.43 252.282 306.886 252.743 306.378 253.242C303.336 256.71 299.648 259.427 296.051 262.249C295.652 262.562 295.149 262.874 295.465 263.483C295.735 264.007 296.26 263.865 296.686 263.73C302.199 261.979 307.851 260.621 313.058 257.994C315.874 256.573 318.647 255.063 321.749 254.343C323.932 253.836 326.083 253.702 328.031 255.113C328.341 255.287 328.62 255.509 328.86 255.771C331.332 259.361 335.095 260.525 339.095 261.218C340.379 261.441 340.468 262 339.79 262.967C338.534 264.753 337.3 266.555 336.05 268.349C335.956 268.53 335.82 268.686 335.654 268.804C332.265 270.449 329.83 273.583 325.52 273.951C321.992 274.253 318.397 274.988 314.841 275.28C310.162 275.665 305.586 274.551 301.077 273.217C297.879 272.228 294.83 270.812 292.012 269.006C289.798 267.636 288.22 268.404 287.778 270.995C287.538 272.398 287.348 273.809 287.208 275.227C286.79 279.585 284.55 283.113 282.376 286.775C279.336 291.894 274.347 295.105 270.685 299.579C268.719 301.979 266.705 304.336 264.689 306.695C263.993 307.511 263.247 308.311 262.255 308.75C257.979 310.641 254.047 313.256 249.604 314.786C248.74 315.084 247.869 315.533 246.99 315.569C242.697 315.75 238.589 316.997 234.386 317.678C233.816 317.769 233.087 318.149 232.682 317.566C232.32 317.043 232.969 316.564 233.181 316.069C233.479 315.37 233.934 314.716 234.118 313.989C234.942 310.719 237.182 308.379 239.455 306.165C240.966 304.691 242.464 303.296 243.373 301.369C243.865 300.327 244.577 299.38 245.608 298.935C248.852 297.534 251.31 295.067 254.002 292.924C256.047 291.25 258.209 289.724 260.471 288.36C265.939 285.154 270.525 280.765 275.535 276.946C276.262 276.392 277 275.851 277.729 275.295C278.131 274.988 278.656 274.681 278.366 274.076C278.071 273.461 277.479 273.677 277.019 273.834C273.902 274.91 270.771 275.951 267.687 277.123C262.27 279.181 256.893 281.434 251.299 282.856C245.369 284.367 239.773 286.78 233.931 288.503C226.77 290.592 219.478 292.192 212.105 293.294C208.203 293.892 204.293 293.292 200.541 292.11C198.583 291.494 196.639 291.003 194.59 291.033C192.754 291.052 190.954 290.537 189.407 289.551C186.073 287.528 182.665 285.658 179.561 283.242C176.989 281.238 173.798 280.306 170.703 279.324C168.688 278.686 166.65 278.119 164.623 277.521L164.639 277.152Z" fill="#9EC557"/>
<path d="M227.358 150.851C225.611 151.921 224.232 153.371 222.857 154.819C221.334 156.423 219.659 157.915 218.358 159.686C216.801 161.807 214.757 163.362 212.912 165.153C211.383 166.636 209.539 167.578 207.554 168.216C204.811 169.096 201.984 169.379 199.094 169.33C197.321 169.301 195.564 169.056 193.796 169.055C192.01 169.047 190.253 169.505 188.698 170.385C184.444 172.799 179.943 173.661 175.116 172.862C173.942 172.672 172.798 172.33 171.711 171.846C169.971 171.064 168.229 170.687 166.379 171.534C165.833 171.736 165.255 171.83 164.674 171.813C163.708 171.845 163.092 170.841 163.342 169.598C163.724 167.658 164.802 165.929 166.372 164.738C168.015 163.412 169.889 162.405 171.9 161.768C175.291 160.721 178.814 160.162 182.364 160.106C185.345 160.076 188.263 159.533 191.14 158.75C193.713 158.051 196.424 158.039 199.006 158.716C202.817 159.671 206.18 158.68 209.246 156.283C211.023 154.893 212.653 153.338 214.393 151.911C217.146 149.652 220.411 148.481 223.745 147.438C225.499 146.889 227.254 146.339 228.908 145.5C231.343 144.265 232.777 142.089 234.157 139.89C236.32 136.37 238.711 132.998 241.315 129.794C242.365 128.529 243.585 127.467 244.741 126.33C245.026 126.032 245.371 125.798 245.753 125.643C246.135 125.489 246.546 125.418 246.957 125.435C248.225 125.493 248.841 126.405 248.286 127.547C247.902 128.338 247.425 129.08 246.866 129.757C245.09 131.898 243.209 133.952 241.467 136.118C239.336 138.767 237.128 141.359 235.419 144.328C234.977 145.062 234.722 145.896 234.676 146.754C234.572 149.759 234.576 152.73 235.949 155.577C237.129 158.031 238.657 160.258 240.016 162.593C242.14 166.184 243.136 170.332 242.874 174.494C242.698 177.571 241.77 180.534 241.47 183.594C241.359 184.365 241.354 185.147 241.455 185.919C242.166 190.104 241.972 194.143 239.777 197.955C238.559 200.07 237.264 202.095 235.614 203.889C234.077 205.564 234.226 207.64 234.215 209.706C234.2 212.673 233.451 215.419 231.01 217.304C230.595 217.605 230.119 217.81 229.616 217.903C229.112 217.996 228.594 217.976 228.099 217.844C227.519 217.686 227.134 217.179 227.444 216.565C228.339 214.807 227.684 213.172 226.983 211.63C225.175 207.65 224.764 203.614 226.064 199.429C226.166 199.102 226.226 198.763 226.302 198.43C226.472 197.668 226.596 197.073 225.813 196.372C224.553 195.239 224.679 193.627 225.832 192.255C225.946 192.152 226.032 192.022 226.081 191.877C226.13 191.731 226.142 191.576 226.114 191.425C225.536 189.179 225.272 186.815 223.737 184.92C223.636 184.783 223.527 184.652 223.411 184.527C223.312 184.46 223.205 184.405 223.092 184.366C222.789 185.277 222.609 186.225 222.557 187.185C222.526 187.634 222.771 187.838 223.124 188.055C224.505 188.897 224.957 190.393 224.279 191.754C223.737 192.839 222.217 193.309 220.873 192.837C220.475 192.717 220.124 192.477 219.866 192.15C219.609 191.822 219.457 191.424 219.432 191.008C219.332 189.926 219.45 188.78 220.49 188.189C221.507 187.613 221.754 186.834 221.799 185.748C221.861 184.216 222.109 182.691 222.288 181.163C222.308 180.996 222.426 180.813 222.256 180.695C222.055 180.556 221.87 180.684 221.702 180.814C219.855 182.256 218.411 184.072 216.974 185.899C216.692 186.259 216.786 186.504 217.047 186.788C218.075 187.901 218.269 189.12 217.512 190.462C217.288 190.86 217.416 191.276 217.571 191.656C218.534 194.05 219.09 196.565 219.734 199.048C220.403 201.627 220.418 204.243 220.052 206.886C219.607 210.038 219.005 213.166 218.247 216.257C217.966 217.419 217.596 218.56 217.215 219.693C216.9 220.603 216.82 221.579 216.982 222.53C217.555 225.684 217.168 228.935 215.872 231.86C215.434 232.848 215.04 234.009 214.023 234.759C212.56 235.837 211.721 237.49 210.728 238.961C209.776 240.369 210.003 242.113 209.941 243.732C209.84 246.382 209.669 249.002 208.59 251.475C207.859 253.151 206.585 254.223 204.925 254.841C203.836 255.246 203.252 254.952 203.025 253.837C202.791 252.887 202.695 251.908 202.742 250.931C202.999 247.772 202.843 244.646 201.37 241.698C199.7 238.359 198.761 234.773 198.301 231.085C197.678 226.111 198.416 221.355 200.853 216.915C201.823 215.231 202.694 213.492 203.463 211.706C204.515 209.122 204.81 206.394 204.807 203.652C204.802 198.799 206.082 194.336 208.438 190.14C209.023 189.099 209.494 187.994 209.986 186.902C210.115 186.621 210.355 186.302 210.08 185.935C209.598 185.989 209.453 186.416 209.215 186.718C204.915 192.166 200.551 197.561 195.583 202.413C194.244 203.777 192.816 205.05 191.308 206.225C189.995 207.206 189.449 208.533 189.427 210.222C189.374 214.259 189.985 218.178 190.907 222.101C192.119 227.253 192.865 232.508 192.016 237.78C191.449 241.303 190.827 244.83 189.839 248.282C189.257 250.318 188.719 252.373 188.185 254.425C187.989 255.078 187.746 255.715 187.458 256.331C186.788 257.931 186.214 259.596 185.328 261.07C184.442 262.533 183.333 263.846 182.041 264.963C179.706 266.984 177.938 269.428 176.427 272.084C175.688 273.435 174.835 274.719 173.876 275.923C173.219 276.756 172.394 277.442 171.456 277.936C169.452 278.952 167.914 278.236 167.424 276.023C167.369 275.79 167.34 275.551 167.339 275.311C167.371 272.323 166.67 269.421 166.281 266.483C165.731 262.328 166.845 258.58 168.984 255.042C170.663 252.264 172.476 249.57 174.015 246.702C174.906 245.041 175.9 243.434 176.382 241.604C177.113 238.966 177.467 236.237 177.435 233.498C177.397 231.744 177.942 230.125 178.721 228.584C179.024 227.981 179.103 227.56 178.567 226.962C178.331 226.708 178.157 226.402 178.059 226.069C177.962 225.736 177.944 225.384 178.007 225.043C178.07 224.702 178.212 224.381 178.421 224.105C178.631 223.83 178.902 223.608 179.213 223.457C180.419 222.9 180.736 222.006 180.824 220.857C180.895 219.951 180.96 219.046 180.534 217.922C179.695 220.075 178.411 221.728 177.519 223.596C176.942 224.802 177.22 226.161 177.043 227.443C177.027 227.854 176.975 228.262 176.888 228.663C176.489 229.886 176.158 230.963 177.007 232.276C177.733 233.402 176.75 235.032 175.444 235.452C174.095 235.886 173.068 235.265 172.607 233.734C172.229 232.476 172.961 231.231 174.39 230.87C174.936 230.734 175.123 230.5 175.292 229.966C175.664 228.786 176.079 227.631 175.97 226.364C175.95 226.13 176.04 225.831 175.766 225.729C175.477 225.618 175.365 225.906 175.232 226.099C174.755 226.79 174.311 227.382 174.677 228.405C175.081 229.536 174.058 230.723 172.846 230.882C171.615 231.042 170.693 230.28 170.545 228.972C170.527 228.803 170.538 228.634 170.536 228.401C170.04 228.389 169.636 228.722 169.14 228.608C168.616 228.501 168.146 228.213 167.812 227.794C167.478 227.374 167.3 226.851 167.311 226.314C167.337 225.194 168.157 224.225 169.309 224.251C170.46 224.278 171.217 223.773 171.986 223.025C173.094 221.945 174.452 221.219 175.837 220.533C177.527 219.696 178.946 218.574 179.316 216.553C179.341 216.421 179.348 216.287 179.365 216.152C179.016 215.943 178.842 216.242 178.647 216.376C175.305 218.655 172.036 221.047 168.618 223.206C164.525 225.79 161.532 229.321 159.211 233.493C158.633 234.533 158.322 235.736 157.674 236.72C156.556 238.418 155.24 239.981 154.061 241.642C153.073 243.053 151.877 244.305 150.512 245.353C148.837 246.584 147.006 247.587 145.068 248.337C143.537 248.945 141.954 249.347 140.396 249.845C136.806 251.031 133.35 252.592 130.085 254.502C126.56 256.512 122.745 257.324 118.753 257.615C115.79 257.831 112.895 258.423 110.16 259.671C108.911 260.239 107.58 260.564 106.184 260.314C105.653 260.22 105.153 259.997 104.726 259.666C104.298 259.335 103.957 258.905 103.731 258.414C103.505 257.922 103.401 257.382 103.427 256.842C103.454 256.301 103.611 255.775 103.884 255.31C104.502 254.196 105.391 253.258 106.468 252.583C108.358 251.422 110.072 249.995 111.558 248.346C113.991 245.71 116.488 243.146 119.278 240.883C122.312 238.421 125.817 236.829 129.398 235.378C133.165 233.85 136.862 232.142 140.215 229.84C142.49 228.222 144.909 226.819 147.442 225.65C151.437 223.88 155.643 223.16 159.978 223.052C161.624 223.051 163.251 222.693 164.745 222.001C167.025 220.877 169.215 219.568 171.41 218.28C173.975 216.785 176.423 215.096 178.732 213.228C179.224 212.826 179.794 212.5 180.168 211.693C176.926 212.475 173.663 212.142 170.795 214.15C167.533 216.434 163.911 217.968 159.74 217.924C158.066 217.906 156.515 217.33 154.815 217.377C152.465 217.419 150.145 217.904 147.975 218.805C145.433 219.902 142.732 220.584 139.975 220.826C137.171 221.042 134.577 220.091 132.111 218.907C129.273 217.509 126.035 217.166 122.974 217.94C120.265 218.572 117.76 217.855 115.687 215.901C114.641 214.916 114.8 214.266 116.16 213.77C117.237 213.419 118.192 212.767 118.913 211.89C120.138 210.388 121.497 209.003 122.973 207.75C124.259 206.605 126.021 205.97 127.619 205.214C131.245 203.501 135.105 202.971 139.078 203.129C140.476 203.183 141.88 203.398 143.269 203.329C146.081 203.188 148.887 202.899 151.694 202.677C156.401 202.27 161.136 203.078 165.451 205.025C166.784 205.624 168.051 206.387 169.461 206.888C170.297 207.185 171.168 207.956 172.077 208.272C176.006 209.629 180.05 210.069 183.997 208.568C185.479 208.005 186.792 206.833 187.866 205.524C187.57 205.261 187.351 205.457 187.139 205.497C185.612 205.778 184.769 205.245 184.217 203.633C183.839 202.529 184.526 200.884 185.591 200.392C185.803 200.279 186.044 200.233 186.283 200.259C187.856 200.624 188.815 199.995 189.894 198.778C190.828 197.725 191.754 196.653 192.645 195.556C192.81 195.355 193.111 195.108 192.919 194.849C192.66 194.496 192.369 194.837 192.114 194.96C190.422 195.785 188.722 196.525 186.813 196.75C185.557 196.898 184.795 197.949 184.022 198.823C183.164 199.791 182.468 200.9 181.664 201.921C181.517 202.084 181.417 202.285 181.375 202.501C181.333 202.717 181.35 202.941 181.425 203.149C181.941 204.862 181.426 205.778 179.751 206.193C178.158 206.589 177.018 205.851 176.662 204.201C176.466 203.289 176.651 202.495 177.385 201.886C177.747 201.564 178.197 201.36 178.677 201.301C179.158 201.243 179.645 201.331 180.074 201.556C180.684 201.853 180.938 201.681 181.34 201.257C182.186 200.319 182.937 199.298 183.579 198.209C183.705 198.008 183.907 197.793 183.733 197.56C183.516 197.269 183.242 197.438 183.001 197.566C181.962 198.156 180.864 198.636 179.726 198.997C179.253 199.129 179.164 199.541 179 199.915C178.713 200.543 178.213 201.049 177.59 201.341C176.966 201.633 176.258 201.694 175.593 201.512C174.387 201.132 173.669 199.864 173.867 198.48C173.907 198.032 174.09 197.609 174.389 197.274C174.688 196.94 175.086 196.71 175.525 196.621C176.677 196.312 177.818 196.409 178.477 197.43C179.075 198.357 179.732 198.229 180.351 197.798C182.796 196.09 185.567 195.342 188.443 194.839C188.704 194.793 189.164 194.836 189.127 194.409C189.1 194.093 188.731 193.963 188.435 193.869C186.486 193.222 184.435 192.942 182.385 193.043C182.052 193.062 181.784 193.127 181.642 193.464C181.18 194.562 180.191 194.906 179.163 195.001C178.185 195.092 177.321 195.456 176.417 195.753C171.45 197.378 166.38 197.524 161.247 196.764C159.119 196.45 156.988 196.143 154.849 195.933C152.189 195.672 149.652 194.797 147.016 194.435C144.808 194.133 142.62 193.998 140.492 194.918C139.897 195.176 139.185 195.565 138.591 194.914C138.021 194.291 138.24 193.569 138.506 192.878C138.811 192.09 138.947 191.077 139.422 190.547C140.214 189.665 141.068 188.723 142.179 188.153C146.295 186.047 150.301 183.73 154.559 181.904C157.429 180.673 160.365 180.583 163.391 181.013C166.269 181.422 169.19 181.858 171.984 180.711C175.033 179.46 178.281 178.969 181.426 178.09C182.037 177.919 182.834 178.021 183.543 177.973C188.068 177.672 192.535 178.273 196.971 179.027C198.231 179.241 199.512 179.503 200.775 179.731C202.968 180.127 205.105 179.475 207.196 178.871C208.427 178.487 209.636 178.033 210.816 177.511C211.586 177.189 212.135 176.553 212.657 175.919C213.861 174.474 214.919 172.912 215.816 171.256C218.352 166.523 221.448 162.121 223.866 157.317C224.969 155.13 226.194 153.003 227.362 150.849L227.358 150.851ZM184.047 191.97C185.45 192.107 186.71 192.119 187.926 192.454C188.688 192.665 189.594 192.653 190.191 193.083C191.105 193.739 191.834 193.727 192.826 193.333C195.445 192.292 197.976 190.968 200.832 190.626C201.107 190.602 201.364 190.478 201.555 190.279C202.681 189.058 203.861 187.882 204.923 186.609C205.665 185.718 206.482 184.856 206.917 183.683C205.634 184.411 204.209 184.732 202.922 185.381C200.268 186.716 197.382 187.527 194.42 187.769C193.344 187.862 192.261 187.785 191.179 187.991C189.191 188.369 187.648 189.566 186.007 190.585C185.385 190.968 184.686 191.262 184.047 191.971L184.047 191.97ZM231.453 151.318C231.34 151.439 231.236 151.566 231.14 151.701C229.246 154.725 227.902 158.069 225.716 160.938C224.567 162.448 224.823 164.327 224.798 166.149C224.748 169.59 226.227 172.431 227.913 175.233C228.016 175.401 228.114 175.635 228.353 175.612C228.404 175.603 228.453 175.584 228.496 175.555C228.54 175.527 228.577 175.489 228.605 175.446C228.633 175.402 228.653 175.353 228.661 175.302C228.67 175.25 228.668 175.197 228.655 175.147C228.257 173.875 229.266 172.898 229.335 171.756C229.461 169.65 229.66 167.509 229.435 165.426C229.142 162.699 229.643 160.174 230.62 157.712C231.436 155.659 231.519 153.522 231.454 151.318L231.453 151.318ZM223.052 166.221L222.804 166.165C222.645 166.332 222.501 166.512 222.373 166.705C220.612 169.862 218.744 172.956 216.891 176.058C216.309 177.036 215.609 177.951 215.247 179.097C214.653 180.974 214.902 182.807 215.159 184.669C215.209 185.027 215.282 185.371 215.676 185.47C216.074 185.571 216.206 185.219 216.332 184.955C217.375 182.752 218.846 180.902 220.949 179.663C222.983 178.465 223.429 176.646 223.226 174.493C223.214 174.288 223.211 174.084 223.22 173.879C223.267 171.324 222.897 168.781 223.051 166.221L223.052 166.221ZM186.674 210.474C184.989 211.839 183.406 212.834 182.063 214.149C181.466 214.733 181.25 215.316 181.487 216.162C182.059 218.197 182.038 220.288 181.809 222.369C181.771 222.719 181.38 223.06 181.917 223.282C182.365 223.469 182.587 223.069 182.823 222.789C184.236 221.116 185.235 219.224 185.58 217.046C185.91 214.964 186.032 212.852 186.674 210.476L186.674 210.474ZM199.673 192.695C198.078 193.279 196.39 193.531 195.137 194.879C193.583 196.554 192.245 198.435 190.488 199.912C189.439 200.793 188.604 201.67 189.426 203.144C189.531 203.333 189.286 203.606 189.507 203.744C190.887 203.013 191.51 201.568 192.714 200.655C195.55 198.5 197.433 195.445 199.673 192.697L199.673 192.695ZM225.292 173.47C225.166 175.497 224.417 177.356 224.066 179.294C223.757 181.006 223.664 182.716 224.986 184.384C225.305 182.018 226.264 180.021 226.936 177.927C227.086 177.406 227.052 176.849 226.841 176.35C226.45 175.322 225.673 174.515 225.294 173.469L225.292 173.47ZM171.628 226.162C171.662 226.353 171.672 226.72 171.871 226.642C172.476 226.41 173.278 226.778 173.702 226.267C174.742 225.01 175.673 223.661 176.628 222.335C176.751 222.162 176.932 221.887 176.714 221.683C176.512 221.493 176.262 221.662 176.052 221.761C174.565 222.449 173.213 223.398 172.059 224.564C171.853 224.769 171.705 225.025 171.629 225.306C171.553 225.587 171.552 225.883 171.626 226.165L171.628 226.162Z" fill="#2F3F0F"/>
<path d="M293.606 73.0817C292.245 74.0129 290.711 74.5431 289.18 75.0704C287.484 75.6544 285.825 76.3892 284.071 76.7518C281.971 77.1855 280.148 78.1723 278.209 78.9313C276.604 79.5612 275.311 80.6076 274.205 81.8623C272.679 83.5958 271.581 85.5947 270.716 87.7524C270.184 89.076 269.822 90.4608 269.27 91.7714C268.719 93.0978 267.821 94.244 266.666 95.0977C263.5 97.4298 261.439 100.473 260.539 104.321C260.318 105.255 260.22 106.219 260.249 107.188C260.301 108.743 260.044 110.162 258.821 111.245C258.498 111.581 258.245 111.977 258.077 112.414C257.751 113.118 258.322 113.916 259.347 114.152C260.942 114.527 262.595 114.315 263.991 113.556C265.514 112.789 266.866 111.743 267.978 110.469C269.834 108.311 271.36 105.891 272.511 103.279C273.464 101.081 274.789 99.1029 276.283 97.2367C277.618 95.5678 278.474 93.5629 278.766 91.4204C279.229 88.2723 281.033 86.1162 283.816 84.6582C285.428 83.8132 287.12 83.1335 288.75 82.3283C291.328 81.055 293.24 79.0333 295.074 76.9174C296.04 75.8037 297.007 74.6899 298.161 73.749C299.862 72.3644 301.965 72.0398 304.07 71.7635C307.424 71.3556 310.738 70.7285 313.989 69.8864C315.28 69.5377 316.469 68.9946 317.695 68.5234C318.011 68.4136 318.297 68.2376 318.534 68.0069C318.77 67.7762 318.953 67.4962 319.069 67.1854C319.42 66.2263 318.919 65.4601 317.876 65.484C317.154 65.5001 316.441 65.6016 315.751 65.7863C313.566 66.3753 311.416 67.0722 309.223 67.628C306.542 68.3077 303.88 69.0638 301.087 69.3225C300.39 69.4011 299.676 69.3074 299.009 69.0498C296.689 68.107 294.43 67.0956 292.691 65.1124C291.193 63.4052 289.974 61.5175 288.622 59.7173C286.552 56.9256 283.707 54.7799 280.457 53.5609C278.061 52.6469 275.516 52.3294 273.094 51.5134C272.473 51.3341 271.876 51.0723 271.319 50.7353C268.357 48.7881 265.223 47.5614 261.636 47.894C259.646 48.0788 257.701 48.3511 255.82 48.9642C254.066 49.5349 252.531 48.72 250.956 48.0263C248.693 47.0312 246.37 46.654 244.173 47.8226C243.814 48.0278 243.51 48.3114 243.282 48.6528C243.053 48.9942 242.907 49.385 242.853 49.797C242.792 50.2801 243.058 50.7376 243.621 50.7155C245.239 50.6491 246.278 51.6893 247.234 52.7325C249.698 55.4224 252.64 57.0972 256.232 57.5545C256.512 57.5896 256.789 57.66 257.067 57.717C257.699 57.8492 258.19 57.9595 258.48 58.7777C258.948 60.0955 260.215 60.5494 261.619 60.1607C261.733 60.1111 261.859 60.0918 261.984 60.1046C262.11 60.1174 262.232 60.1619 262.339 60.2338C263.868 61.4241 265.584 62.422 266.547 64.2023C266.62 64.3238 266.685 64.4489 266.744 64.5769C266.765 64.6732 266.772 64.7711 266.767 64.8683C265.979 64.784 265.202 64.5956 264.455 64.3081C264.103 64.1783 264.024 63.928 263.97 63.5931C263.76 62.2833 262.762 61.4411 261.515 61.4819C260.52 61.5148 259.688 62.4814 259.627 63.6378C259.595 63.9731 259.668 64.3149 259.836 64.6168C260.005 64.9186 260.261 65.1661 260.569 65.3257C261.361 65.7672 262.271 66.0693 263.045 65.4986C263.801 64.9411 264.471 65.022 265.311 65.3574C266.497 65.8318 267.735 66.165 268.953 66.5513C269.087 66.5931 269.263 66.5674 269.3 66.7341C269.342 66.93 269.187 67.023 269.036 67.1035C267.362 67.9826 265.529 68.4363 263.69 68.8809C263.328 68.968 263.171 68.8151 263.036 68.5252C262.51 67.3862 261.643 66.8286 260.385 66.9336C260.012 66.965 259.736 66.7285 259.495 66.4849C257.974 64.9593 256.234 63.6937 254.545 62.3737C252.791 61.0028 250.805 60.1039 248.679 59.4781C246.141 58.7375 243.573 58.1223 240.984 57.6349C240.012 57.4486 239.028 57.3362 238.047 57.2331C237.256 57.1578 236.488 56.886 235.815 56.4431C233.594 54.9488 230.998 54.132 228.368 54.0991C227.479 54.0886 226.472 53.9865 225.584 54.4859C224.307 55.2034 222.787 55.2642 221.357 55.5012C219.988 55.7284 218.733 54.9683 217.48 54.4648C215.433 53.6403 213.385 52.8779 211.166 52.8379C209.662 52.8108 208.449 53.3914 207.46 54.4114C206.812 55.0804 206.853 55.6135 207.631 56.1603C208.281 56.6562 208.996 57.0588 209.754 57.3556C212.239 58.2372 214.568 59.4137 216.352 61.5062C218.372 63.8765 220.807 65.7894 223.47 67.3819C227.061 69.5316 230.911 70.5987 235.051 70.2997C236.636 70.1527 238.231 70.0972 239.831 70.1336C242.125 70.2312 244.294 70.9382 246.38 71.8711C250.072 73.522 253.867 74.0883 257.797 73.7665C258.772 73.6867 259.76 73.7125 260.744 73.7182C260.998 73.7186 261.316 73.6484 261.509 73.9773C261.318 74.3159 260.947 74.2785 260.643 74.3521C255.155 75.6892 249.686 77.092 244.442 79.1259C242.986 79.6558 241.571 80.2818 240.206 81.0001C239.05 81.6401 237.869 81.5943 236.577 81.0379C233.488 79.707 230.696 77.9239 227.998 75.9095C224.456 73.2628 220.69 70.9267 216.412 69.7666C213.554 68.9906 210.676 68.255 207.741 67.8155C206.009 67.5556 204.277 67.2568 202.548 66.9562C201.991 66.8798 201.43 66.8437 200.871 66.848C199.444 66.8017 197.998 66.6614 196.6 66.8176C195.21 66.9775 193.864 67.3535 192.61 67.9318C190.343 68.9758 187.931 69.4567 185.438 69.6752C184.179 69.764 182.935 69.9604 181.72 70.2624C180.88 70.4666 180.101 70.8448 179.432 71.3726C178.033 72.5125 178.097 73.8948 179.629 75.0086C179.789 75.1288 179.962 75.2312 180.144 75.3137C182.428 76.3042 184.418 77.8086 186.532 79.0936C189.522 80.9111 192.722 81.3578 196.083 80.9733C198.721 80.6726 201.338 80.243 204.002 80.0762C205.544 79.9797 207.076 79.789 208.62 80.0529C210.856 80.4065 213.043 81.0699 215.118 82.0233C216.441 82.6471 217.843 82.7926 219.259 82.7385C219.813 82.7186 220.157 82.803 220.446 83.4031C220.565 83.6644 220.743 83.897 220.967 84.0822C221.19 84.2674 221.451 84.3999 221.731 84.4691C222.01 84.5383 222.299 84.5422 222.574 84.4804C222.849 84.4187 223.102 84.2932 223.314 84.1138C224.115 83.4094 224.895 83.4775 225.796 83.8029C226.508 84.0575 227.217 84.3165 227.94 85.0139C226.039 84.9044 224.38 85.2948 222.679 85.3221C221.582 85.3401 220.634 84.6726 219.603 84.3689C219.286 84.2415 218.959 84.1414 218.626 84.0698C217.571 83.9505 216.648 83.8299 215.914 82.7558C215.284 81.8353 213.736 82.0106 213.009 82.8353C212.258 83.6878 212.409 84.6598 213.43 85.5204C214.27 86.2275 215.446 86.1078 216.167 85.1716C216.441 84.8134 216.677 84.754 217.137 84.8103C218.151 84.9347 219.159 85.0193 220.09 85.5304C220.261 85.624 220.517 85.6587 220.509 85.8968C220.503 86.1483 220.249 86.1337 220.061 86.1672C219.386 86.2857 218.797 86.4137 218.133 85.7958C217.398 85.1128 216.175 85.4676 215.676 86.312C215.169 87.1693 215.462 88.111 216.41 88.6649C216.533 88.7354 216.665 88.7846 216.842 88.8656C216.697 89.2364 216.317 89.4234 216.248 89.8293C216.166 90.2537 216.239 90.6998 216.454 91.0898C216.668 91.4797 217.012 91.7887 217.423 91.9625C218.284 92.3236 219.278 92.0451 219.617 91.183C219.957 90.3209 220.577 89.9309 221.386 89.6155C222.555 89.1605 223.531 88.4005 224.486 87.6078C225.65 86.6398 226.947 85.9689 228.601 86.3805C228.709 86.4071 228.814 86.4473 228.921 86.4806C228.971 86.8097 228.69 86.8374 228.527 86.9363C225.749 88.6395 222.907 90.2497 220.197 92.0491C216.952 94.2049 213.331 95.2243 209.43 95.5283C208.459 95.6037 207.446 95.4259 206.495 95.5716C204.853 95.8242 203.253 96.2687 201.621 96.5785C200.238 96.8313 198.912 97.2934 197.688 97.9487C196.228 98.7724 194.893 99.7881 193.717 100.97C192.776 101.898 191.976 102.934 191.111 103.92C189.086 106.177 186.819 108.208 184.346 109.979C181.716 111.909 179.906 114.46 178.438 117.319C177.349 119.441 175.994 121.385 174.19 122.989C173.368 123.721 172.705 124.597 172.459 125.716C172.365 126.141 172.378 126.588 172.497 127.017C172.615 127.446 172.836 127.844 173.139 128.179C173.443 128.513 173.821 128.774 174.241 128.937C174.66 129.101 175.109 129.163 175.549 129.119C176.59 129.039 177.581 128.699 178.432 128.13C179.905 127.123 181.526 126.338 183.245 125.796C186.011 124.888 188.742 123.908 191.336 122.609C194.157 121.196 196.463 119.14 198.686 116.979C201.025 114.706 203.479 112.546 206.278 110.843C208.22 109.707 210.043 108.39 211.724 106.91C214.318 104.551 216.18 101.678 217.616 98.5037C218.131 97.2838 218.912 96.2004 219.904 95.3276C221.472 94.0199 223.152 92.8418 224.818 91.6526C226.756 90.259 228.806 89.0184 230.949 87.9416C231.408 87.7134 231.835 87.4019 232.565 87.3986C230.958 89.5356 230.192 92.0664 227.768 93.51C225.012 95.1518 222.713 97.3142 221.444 100.42C220.935 101.667 220.889 103.011 220.322 104.255C219.556 105.982 218.463 107.536 217.1 108.838C215.471 110.349 214.108 112.119 213.063 114.081C212.023 116.085 211.937 118.329 212.068 120.558C212.246 123.136 211.495 125.651 209.95 127.657C208.623 129.449 208.387 131.549 209.227 133.748C209.65 134.857 210.194 134.96 210.996 134.121C211.599 133.441 212.394 132.955 213.286 132.719C214.812 132.321 216.291 131.784 217.705 131.115C218.978 130.551 220.012 129.462 221.086 128.534C223.522 126.429 225.13 123.748 226.251 120.751C226.646 119.696 226.921 118.584 227.408 117.577C228.393 115.542 229.489 113.561 230.535 111.556C232.315 108.207 233.178 104.424 233.044 100.567C233.005 99.3751 232.82 98.1775 232.879 96.9625C232.913 96.2424 232.599 95.3352 232.643 94.5546C232.836 91.1831 233.765 88.0371 236.139 85.6221C237.031 84.7149 238.333 84.1399 239.665 83.7887C239.772 84.0972 239.555 84.1925 239.458 84.3365C238.767 85.3724 238.91 86.1782 239.964 87.1341C240.686 87.7887 242.152 87.8377 242.86 87.2158C243.012 87.0971 243.122 86.9343 243.177 86.7485C243.391 85.4593 244.168 84.9619 245.431 84.5753C246.525 84.2407 247.63 83.9181 248.743 83.6302C248.947 83.5763 249.229 83.4373 249.367 83.6677C249.554 83.9787 249.204 84.0788 249.03 84.226C247.875 85.1996 246.78 86.2086 246.013 87.5468C245.508 88.4268 244.47 88.6345 243.564 88.9108C242.559 89.2185 241.497 89.3575 240.47 89.6067C240.3 89.6599 240.116 89.6658 239.938 89.6236C239.76 89.5815 239.595 89.4929 239.46 89.3672C238.318 88.4031 237.46 88.4736 236.621 89.5745C235.822 90.6202 236.028 91.7157 237.173 92.5392C237.805 92.9939 238.468 93.1263 239.16 92.7892C239.518 92.6303 239.814 92.3655 240.008 92.0297C240.203 91.694 240.288 91.3031 240.251 90.9085C240.215 90.356 240.425 90.226 240.873 90.0719C241.852 89.7631 242.863 89.5539 243.893 89.4477C244.085 89.4221 244.312 89.3459 244.435 89.5536C244.589 89.8134 244.374 89.9585 244.202 90.0943C243.428 90.6637 242.72 91.314 242.089 92.0347C241.841 92.3406 241.5 92.2667 241.164 92.261C240.597 92.2606 240.056 92.4595 239.639 92.8224C239.221 93.1854 238.954 93.6889 238.885 94.2436C238.798 95.2662 239.539 96.2291 240.653 96.552C241.007 96.6739 241.386 96.6816 241.734 96.574C242.082 96.4664 242.381 96.2491 242.586 95.9543C243.181 95.2051 243.463 94.3272 242.892 93.4924C242.373 92.7343 242.676 92.2913 243.197 91.9787C245.261 90.7472 246.695 88.9472 247.976 86.9871C248.092 86.8093 248.203 86.4535 248.517 86.6266C248.749 86.7537 248.733 87.0709 248.712 87.3222C248.596 88.9863 248.168 90.601 247.451 92.0851C247.333 92.3254 247.2 92.5022 246.899 92.4931C245.919 92.4627 245.348 93.0787 244.955 93.8082C244.58 94.5021 244.033 95.0188 243.525 95.5877C240.737 98.7162 239.043 102.423 238.018 106.485C237.593 108.168 237.161 109.851 236.653 111.507C236.02 113.567 235.894 115.744 235.347 117.819C234.887 119.558 234.306 121.225 232.941 122.49C232.559 122.843 232.041 123.239 232.351 123.9C232.647 124.534 233.265 124.616 233.874 124.654C234.569 124.695 235.382 124.938 235.933 124.766C236.853 124.479 237.836 124.166 238.617 123.536C241.505 121.201 244.519 119.019 247.238 116.484C249.072 114.775 250.057 112.63 250.675 110.242C251.262 107.971 251.843 105.659 253.588 103.977C255.492 102.142 256.881 99.9025 258.532 97.8712C258.853 97.4761 259.024 96.8507 259.282 96.3416C260.924 93.091 261.862 89.5773 262.673 86.0347C262.903 85.0287 263.104 83.9906 263.325 82.9774C263.708 81.2182 264.872 79.856 265.985 78.5115C266.662 77.7295 267.385 76.9882 268.15 76.291C268.636 75.8297 269.291 75.6384 269.937 75.4669C271.413 75.0655 272.932 74.8114 274.472 74.7083C278.866 74.4358 283.183 73.6363 287.594 73.4743C289.603 73.3998 291.604 73.214 293.608 73.0793L293.606 73.0817ZM248.787 91.218C249.12 90.1318 249.505 89.1942 249.63 88.1796C249.707 87.5439 249.999 86.8763 249.859 86.2881C249.644 85.3882 249.881 84.8519 250.491 84.2503C252.101 82.6635 253.899 81.2377 255.051 79.2369C255.156 79.0414 255.33 78.8933 255.542 78.8197C256.822 78.3991 258.086 77.9246 259.386 77.5696C260.296 77.3218 261.207 77.0091 262.235 77.0849C261.281 77.7881 260.592 78.7355 259.696 79.469C257.851 80.9822 256.332 82.8457 255.224 84.9579C254.817 85.7236 254.537 86.552 254.042 87.284C253.133 88.6285 251.741 89.3656 250.453 90.236C249.967 90.5664 249.525 90.9853 248.786 91.2182L248.787 91.218ZM294.528 69.889C294.402 69.9318 294.272 69.9657 294.14 69.9906C291.246 70.3681 288.281 70.2292 285.416 70.875C283.907 71.214 282.558 70.3863 281.163 69.7867C278.529 68.6557 276.829 66.596 275.223 64.3955C275.127 64.2626 274.98 64.1103 275.072 63.9411C275.095 63.9062 275.125 63.8766 275.16 63.8542C275.195 63.8317 275.235 63.817 275.277 63.8108C275.319 63.8046 275.363 63.8071 275.405 63.8181C275.446 63.8292 275.486 63.8486 275.521 63.875C276.364 64.602 277.423 64.1854 278.313 64.5221C279.956 65.1434 281.647 65.7227 283.162 66.5959C285.145 67.7389 287.223 68.2249 289.403 68.3367C291.22 68.4288 292.872 69.0921 294.529 69.8886L294.528 69.889ZM280.563 71.0558L280.529 71.2587C280.352 71.32 280.17 71.3656 279.983 71.395C277.031 71.6287 274.093 71.9621 271.153 72.2824C270.227 72.3819 269.312 72.5898 268.327 72.4697C266.713 72.2719 265.396 71.4658 264.059 70.6436C263.802 70.485 263.563 70.3139 263.61 69.9886C263.659 69.659 263.968 69.6815 264.208 69.6776C266.21 69.6523 268.078 69.1901 269.677 68.0522C271.224 66.9515 272.747 67.2384 274.323 68.1197C274.474 68.1984 274.629 68.2693 274.788 68.3323C276.747 69.1648 278.567 70.3017 280.563 71.0566L280.563 71.0558ZM235.525 82.9918C233.96 83.7771 232.708 84.612 231.288 85.1614C230.657 85.4054 230.146 85.3671 229.577 84.9051C228.206 83.79 226.609 83.0962 224.953 82.5597C224.675 82.4692 224.293 82.6429 224.292 82.1695C224.29 81.7745 224.663 81.7457 224.95 81.6657C226.665 81.1864 228.417 81.0882 230.182 81.5716C231.869 82.0339 233.515 82.6602 235.523 82.9907L235.525 82.9918ZM253.115 79.3942C252.173 80.3775 251.453 81.5429 250.036 82.0138C248.276 82.5971 246.426 82.9498 244.755 83.7502C243.756 84.2288 242.828 84.5497 241.963 83.4405C241.852 83.2985 241.567 83.3876 241.532 83.1764C242.519 82.4021 243.813 82.4308 244.884 81.8485C247.41 80.4788 250.322 80.1206 253.113 79.3931L253.115 79.3942ZM275.747 66.9361C274.165 66.3414 272.516 66.2658 270.931 65.868C269.532 65.5157 268.201 65.0048 267.345 63.4587C269.245 64.0256 271.064 63.9927 272.868 64.2054C273.311 64.271 273.724 64.4849 274.038 64.8111C274.699 65.4493 275.07 66.2993 275.747 66.9345L275.747 66.9361ZM218.887 88.8159C218.752 88.7256 218.477 88.5944 218.598 88.4728C218.963 88.1034 218.933 87.3844 219.455 87.2437C220.736 86.8999 222.054 86.6673 223.361 86.4102C223.531 86.3771 223.797 86.3365 223.884 86.5673C223.966 86.7812 223.759 86.9093 223.618 87.0312C222.63 87.8998 221.485 88.5797 220.238 89.039C220.017 89.1217 219.776 89.1446 219.539 89.1055C219.301 89.0664 219.076 88.9666 218.884 88.8161L218.887 88.8159Z" fill="#475E1C"/>
<path d="M168.842 169.371C168.333 167.632 167.42 166.121 166.508 164.613C165.497 162.944 164.615 161.17 163.413 159.653C161.973 157.836 161.121 155.732 160.025 153.745C159.118 152.098 158.74 150.306 158.65 148.462C158.528 145.916 158.928 143.434 159.625 140.975C160.05 139.466 160.655 138.02 161.057 136.509C161.468 134.983 161.479 133.376 161.087 131.845C160.01 127.656 160.301 123.61 162.069 119.666C162.496 118.707 163.044 117.807 163.699 116.988C164.755 115.68 165.468 114.277 165.17 112.501C165.124 111.989 165.175 111.473 165.321 110.98C165.513 110.147 166.501 109.85 167.495 110.349C169.048 111.12 170.265 112.438 170.916 114.053C171.665 115.761 172.092 117.594 172.175 119.459C172.291 122.598 171.966 125.738 171.209 128.785C170.559 131.34 170.357 133.959 170.368 136.598C170.376 138.958 169.772 141.278 168.616 143.331C166.945 146.37 167.021 149.472 168.353 152.643C169.125 154.48 170.07 156.229 170.882 158.044C172.168 160.915 172.418 163.975 172.544 167.063C172.612 168.689 172.679 170.315 173.013 171.922C173.506 174.286 175.02 176.011 176.566 177.694C179.051 180.35 181.36 183.166 183.478 186.126C184.309 187.314 184.931 188.599 185.63 189.848C185.817 190.16 185.937 190.509 185.981 190.871C186.025 191.233 185.992 191.6 185.885 191.948C185.549 193.019 184.638 193.337 183.799 192.6C183.217 192.091 182.698 191.513 182.252 190.88C180.845 188.871 179.535 186.792 178.099 184.807C176.343 182.379 174.652 179.898 172.53 177.757C172.009 177.21 171.362 176.801 170.647 176.565C168.131 175.788 165.619 175.111 162.902 175.632C160.561 176.079 158.332 176.875 156.051 177.502C152.535 178.495 148.804 178.396 145.345 177.219C142.784 176.364 140.49 174.892 137.972 173.934C137.346 173.663 136.686 173.479 136.01 173.389C132.312 173.038 128.943 171.947 126.218 169.197C124.706 167.671 123.288 166.101 122.145 164.28C121.078 162.582 119.289 162.233 117.545 161.751C115.042 161.058 112.89 159.789 111.849 157.27C111.689 156.847 111.624 156.393 111.659 155.941C111.694 155.489 111.829 155.051 112.053 154.658C112.318 154.198 112.833 153.985 113.281 154.391C114.565 155.559 116.095 155.374 117.558 155.128C121.33 154.494 124.835 155.066 128.078 157.136C128.331 157.298 128.603 157.428 128.868 157.569C129.473 157.889 129.948 158.131 130.718 157.622C131.961 156.805 133.295 157.282 134.194 158.582C134.254 158.703 134.345 158.806 134.457 158.881C134.568 158.956 134.697 159.002 134.831 159.013C136.86 159.033 138.918 159.349 140.868 158.471C141.006 158.416 141.141 158.353 141.273 158.282C141.352 158.213 141.423 158.134 141.482 158.047C140.781 157.578 140.02 157.207 139.221 156.943C138.848 156.814 138.62 156.976 138.357 157.228C137.332 158.217 135.965 158.26 134.969 157.368C134.174 156.657 134.122 155.25 134.824 154.208C135.016 153.896 135.299 153.651 135.633 153.506C135.968 153.36 136.339 153.322 136.697 153.396C137.634 153.558 138.576 153.921 138.84 154.947C139.096 155.947 139.698 156.337 140.606 156.624C141.887 157.028 143.12 157.59 144.371 158.092C144.507 158.148 144.636 158.291 144.774 158.172C144.937 158.032 144.87 157.845 144.798 157.672C143.998 155.763 142.79 154.112 141.571 152.465C141.331 152.141 141.103 152.166 140.803 152.324C139.63 152.947 138.556 152.834 137.593 151.88C137.308 151.597 136.927 151.611 136.57 151.656C134.329 151.931 132.078 151.831 129.833 151.812C127.502 151.794 125.288 151.207 123.136 150.289C120.573 149.187 118.066 147.955 115.625 146.599C114.706 146.093 113.826 145.515 112.954 144.93C112.256 144.452 111.45 144.16 110.609 144.081C107.814 143.848 105.154 142.772 102.975 140.995C102.24 140.394 101.347 139.791 100.944 138.749C100.364 137.252 99.1572 136.157 98.1388 134.97C97.1642 133.834 95.6392 133.629 94.2843 133.204C92.0678 132.511 89.8921 131.765 88.0462 130.276C86.7952 129.267 86.178 127.932 86.0313 126.372C85.9355 125.348 86.3165 124.916 87.3106 124.977C88.1666 124.995 89.0155 125.138 89.8306 125.402C92.4423 126.345 95.1192 126.927 97.9448 126.343C101.145 125.68 104.389 125.699 107.61 126.15C111.955 126.757 115.807 128.478 119.008 131.578C120.212 132.793 121.484 133.937 122.819 135.003C124.765 136.494 127.004 137.371 129.322 137.997C133.425 139.104 136.907 141.22 139.92 144.196C140.668 144.934 141.495 145.591 142.306 146.261C142.515 146.435 142.73 146.714 143.102 146.563C143.166 146.138 142.838 145.917 142.636 145.644C139.006 140.72 135.434 135.754 132.458 130.395C131.609 128.937 130.856 127.425 130.205 125.867C129.673 124.52 128.675 123.749 127.253 123.343C123.853 122.373 120.402 121.998 116.877 121.887C112.249 121.743 107.638 121.177 103.374 119.244C100.525 117.952 97.6851 116.612 94.9918 114.977C93.4027 114.013 91.7872 113.082 90.1738 112.156C89.6668 111.839 89.1834 111.485 88.7275 111.097C87.5275 110.158 86.2501 109.287 85.205 108.192C84.1691 107.099 83.3099 105.85 82.6585 104.49C81.479 102.031 79.8146 99.9595 77.9118 98.0587C76.9372 97.1178 76.045 96.094 75.2451 94.9988C74.6893 94.2457 74.2964 93.3837 74.0918 92.4684C73.6864 90.5223 74.6399 89.3719 76.6211 89.4602C76.831 89.4665 77.0395 89.4967 77.2426 89.5504C79.7605 90.2618 82.3724 90.3275 84.9432 90.668C88.5796 91.1499 91.4951 92.9606 94.0007 95.6C95.9687 97.6712 97.8348 99.8388 99.9107 101.812C101.113 102.954 102.245 104.171 103.684 105.002C105.747 106.231 107.973 107.16 110.295 107.76C111.787 108.129 113.032 108.965 114.158 109.985C114.599 110.382 114.936 110.545 115.564 110.225C115.832 110.08 116.13 110.002 116.433 109.995C116.737 109.988 117.038 110.053 117.312 110.185C117.586 110.317 117.825 110.512 118.011 110.754C118.196 110.996 118.322 111.279 118.379 111.579C118.577 112.738 119.261 113.214 120.212 113.552C120.962 113.821 121.712 114.083 122.759 113.977C121.129 112.767 120.023 111.29 118.646 110.099C117.757 109.33 116.545 109.256 115.502 108.811C115.159 108.704 114.825 108.566 114.506 108.399C113.563 107.778 112.728 107.249 111.426 107.673C110.309 108.036 109.154 106.822 109.095 105.61C109.034 104.357 109.791 103.621 111.189 103.578C112.338 103.543 113.225 104.454 113.206 105.758C113.198 106.256 113.353 106.47 113.766 106.736C114.679 107.325 115.561 107.944 116.657 108.141C116.859 108.178 117.091 108.323 117.24 108.112C117.399 107.891 117.181 107.729 117.048 107.571C116.572 107.005 116.173 106.49 115.225 106.568C114.178 106.654 113.406 105.508 113.546 104.435C113.689 103.346 114.543 102.733 115.681 102.906C115.828 102.929 115.969 102.977 116.166 103.029C116.289 102.608 116.099 102.186 116.307 101.788C116.516 101.365 116.866 101.029 117.296 100.839C117.726 100.65 118.209 100.618 118.66 100.75C119.601 101.029 120.234 101.952 119.951 102.93C119.668 103.909 119.923 104.671 120.381 105.5C121.043 106.695 121.349 108.022 121.616 109.363C121.94 111 122.567 112.47 124.191 113.249C124.297 113.301 124.409 113.337 124.519 113.383C124.774 113.132 124.562 112.915 124.493 112.718C123.323 109.338 122.042 105.996 120.991 102.58C119.734 98.4884 117.428 95.1212 114.427 92.1807C113.679 91.4487 112.733 90.9072 112.047 90.128C110.866 88.7828 109.843 87.3001 108.706 85.9117C107.737 84.744 106.95 83.4343 106.373 82.0278C105.712 80.3133 105.279 78.5185 105.084 76.6898C104.917 75.2416 104.935 73.7962 104.868 72.3506C104.678 69.0094 104.141 65.6973 103.267 62.4684C102.366 58.9947 102.544 55.5473 103.202 52.0674C103.691 49.4857 103.845 46.875 103.41 44.2503C103.213 43.0527 103.239 41.8407 103.767 40.7046C103.967 40.2723 104.268 39.8954 104.645 39.6059C105.021 39.3164 105.462 39.1231 105.929 39.0425C106.396 38.9619 106.875 38.9963 107.326 39.1429C107.777 39.2895 108.186 39.5439 108.518 39.8843C109.319 40.6679 109.911 41.6428 110.237 42.7183C110.79 44.5996 111.608 46.3916 112.666 48.0399C114.342 50.7241 115.943 53.4455 117.225 56.3492C118.618 59.5071 119.17 62.8683 119.586 66.2622C120.024 69.8324 120.63 73.3842 121.817 76.7781C122.669 79.0933 123.307 81.483 123.721 83.9165C124.312 87.7369 123.968 91.4979 123.078 95.2279C122.706 96.6362 122.641 98.1087 122.886 99.5447C123.32 101.751 123.931 103.923 124.522 106.094C125.204 108.63 126.078 111.11 127.134 113.512C127.362 114.024 127.509 114.586 128.106 115.091C128.179 112.14 129.2 109.427 128.152 106.515C126.96 103.203 126.484 99.7556 127.466 96.1996C127.86 94.7725 128.698 93.5789 129.043 92.1146C129.54 90.096 129.656 88.0016 129.386 85.94C129.034 83.5157 129.069 81.0505 129.49 78.6374C129.942 76.1909 131.333 74.1915 132.892 72.3541C134.717 70.2482 135.74 67.5587 135.779 64.7645C135.858 62.3037 137.032 60.3265 139.152 59.0021C140.222 58.3336 140.735 58.6186 140.846 59.8942C140.899 60.8959 141.234 61.8618 141.812 62.6789C142.804 64.0697 143.667 65.549 144.391 67.0982C145.067 68.4599 145.206 70.1113 145.483 71.6506C146.11 75.1428 145.683 78.5645 144.65 81.9245C144.287 83.1078 143.788 84.2582 143.531 85.4621C143.014 87.8983 142.623 90.3632 142.174 92.8137C141.453 96.9309 139.697 100.794 137.075 104.036C136.266 105.039 135.335 105.948 134.592 107.039C134.151 107.685 133.303 108.253 132.83 108.958C130.793 112.005 129.505 115.362 129.88 119.08C130.021 120.477 130.713 121.867 131.577 123.085C131.866 122.892 131.75 122.66 131.764 122.47C131.872 121.1 132.514 120.501 134.001 120.399C135.02 120.328 136.255 121.293 136.43 122.316C136.477 122.523 136.461 122.739 136.385 122.937C135.721 124.199 136.035 125.162 136.819 126.364C137.497 127.404 138.194 128.441 138.919 129.454C139.052 129.641 139.192 129.955 139.455 129.85C139.812 129.71 139.589 129.383 139.543 129.136C139.229 127.501 138.989 125.878 139.231 124.194C139.39 123.087 138.674 122.195 138.111 121.334C137.487 120.378 136.707 119.529 136.027 118.608C135.922 118.445 135.775 118.314 135.601 118.229C135.428 118.143 135.235 118.106 135.043 118.122C133.478 118.172 132.82 117.522 132.849 115.994C132.875 114.542 133.757 113.736 135.232 113.81C136.047 113.851 136.677 114.191 137.025 114.958C137.215 115.341 137.285 115.773 137.226 116.197C137.167 116.621 136.982 117.017 136.695 117.333C136.306 117.786 136.393 118.042 136.661 118.483C137.262 119.422 137.955 120.297 138.73 121.096C138.871 121.249 139.007 121.471 139.244 121.376C139.539 121.257 139.458 120.984 139.405 120.749C139.141 119.725 138.984 118.677 138.936 117.621C138.932 117.187 138.604 117.016 138.325 116.791C137.859 116.401 137.545 115.858 137.439 115.258C137.333 114.658 137.442 114.039 137.747 113.512C138.342 112.568 139.576 112.244 140.701 112.73C141.07 112.868 141.386 113.121 141.601 113.453C141.817 113.785 141.92 114.178 141.896 114.574C141.896 115.63 141.556 116.583 140.544 116.912C139.625 117.211 139.584 117.802 139.808 118.43C140.699 120.911 140.703 123.452 140.477 126.026C140.456 126.259 140.316 126.643 140.685 126.709C140.958 126.758 141.152 126.473 141.299 126.242C142.287 124.723 142.988 123.034 143.366 121.259C143.426 120.969 143.432 120.725 143.179 120.527C142.356 119.88 142.289 118.956 142.442 118.055C142.586 117.198 142.474 116.376 142.427 115.535C142.179 110.917 143.204 106.549 145.009 102.335C145.756 100.588 146.498 98.8365 147.16 97.0562C147.983 94.8414 149.297 92.8728 150.2 90.7028C150.956 88.884 151.565 87.0443 151.269 85.0143C151.186 84.4462 151.019 83.749 151.703 83.3902C152.359 83.0457 152.919 83.3984 153.444 83.784C154.04 84.225 154.866 84.5735 155.206 85.1005C155.772 85.9801 156.375 86.9256 156.605 88.0062C157.453 92.0071 158.504 95.9628 159.083 100.021C159.474 102.757 158.885 105.287 157.836 107.776C156.838 110.142 155.809 112.54 156.145 115.191C156.511 118.085 156.191 120.974 156.222 123.863C156.228 124.425 155.962 125.084 155.841 125.701C155.071 129.638 153.551 133.319 151.91 136.938C151.443 137.966 150.932 139.001 150.453 140.029C149.622 141.813 149.689 143.789 149.726 145.715C149.772 146.856 149.882 147.993 150.056 149.122C150.153 149.854 150.566 150.469 150.984 151.06C151.933 152.421 153.013 153.683 154.209 154.83C157.636 158.082 160.655 161.736 164.167 164.904C165.767 166.348 167.286 167.882 168.843 169.375L168.842 169.371ZM143.897 122.925C143.463 124.093 143.168 125.167 142.61 126.13C142.259 126.733 142.064 127.51 141.565 127.923C140.803 128.553 140.649 129.18 140.757 130.118C141.044 132.595 141.59 135.062 141.231 137.583C141.19 137.823 141.236 138.071 141.362 138.28C142.138 139.522 142.865 140.8 143.701 142C144.285 142.839 144.829 143.735 145.722 144.375C145.397 143.111 145.449 141.819 145.192 140.571C144.664 137.996 144.632 135.342 145.099 132.755C145.264 131.814 145.574 130.906 145.645 129.934C145.775 128.147 145.113 126.554 144.624 124.918C144.441 124.299 144.351 123.633 143.897 122.924L143.897 122.925ZM167.52 172.764C167.443 172.64 167.359 172.522 167.267 172.41C165.14 170.097 162.618 168.182 160.689 165.657C159.672 164.328 158.026 164.117 156.492 163.678C153.595 162.847 150.859 163.46 148.109 164.26C147.944 164.309 147.724 164.34 147.689 164.549C147.685 164.595 147.69 164.641 147.704 164.685C147.719 164.728 147.742 164.769 147.772 164.803C147.803 164.837 147.84 164.865 147.882 164.884C147.923 164.903 147.968 164.913 148.014 164.914C149.179 164.865 149.776 165.952 150.725 166.272C152.477 166.863 154.241 167.523 156.052 167.808C158.424 168.182 160.445 169.188 162.305 170.587C163.855 171.755 165.642 172.316 167.52 172.765L167.52 172.764ZM156.826 162.169L156.93 161.97C156.825 161.795 156.705 161.631 156.572 161.477C154.302 159.248 152.11 156.943 149.908 154.648C149.213 153.927 148.598 153.119 147.712 152.546C146.259 151.609 144.654 151.402 143.022 151.195C142.708 151.156 142.401 151.139 142.228 151.453C142.052 151.771 142.32 151.964 142.515 152.132C144.141 153.528 145.371 155.21 145.942 157.291C146.494 159.305 147.93 160.103 149.796 160.423C149.971 160.459 150.145 160.504 150.316 160.558C152.465 161.184 154.698 161.45 156.827 162.168L156.826 162.169ZM127.663 120.932C126.891 119.179 126.408 117.598 125.601 116.148C125.243 115.504 124.799 115.186 124.031 115.194C122.181 115.218 120.418 114.721 118.711 114.048C118.424 113.935 118.224 113.523 117.915 113.931C117.656 114.272 117.943 114.553 118.127 114.819C119.221 116.41 120.594 117.698 122.356 118.492C124.041 119.25 125.799 119.839 127.661 120.932L127.663 120.932ZM139.746 136.117C139.613 134.62 139.783 133.119 138.927 131.739C137.864 130.027 136.576 128.452 135.726 126.612C135.219 125.513 134.667 124.599 133.235 124.964C133.052 125.01 132.876 124.738 132.709 124.896C133.015 126.243 134.095 127.106 134.594 128.345C135.773 131.263 137.929 133.572 139.744 136.117L139.746 136.117ZM150.193 162.423C148.508 161.851 147.107 160.785 145.548 160.041C144.171 159.385 142.747 158.913 141.037 159.662C142.965 160.476 144.436 161.753 146.053 162.807C146.459 163.055 146.938 163.154 147.408 163.088C148.365 162.989 149.223 162.509 150.192 162.425L150.193 162.423ZM117.811 104.475C117.642 104.461 117.33 104.385 117.35 104.574C117.41 105.144 116.916 105.745 117.253 106.224C118.08 107.401 119.009 108.507 119.913 109.626C120.031 109.772 120.223 109.989 120.445 109.85C120.651 109.721 120.565 109.468 120.528 109.266C120.284 107.837 119.788 106.463 119.064 105.21C118.937 104.987 118.754 104.802 118.534 104.673C118.314 104.543 118.064 104.475 117.809 104.473L117.811 104.475Z" fill="#577627"/>
<path d="M140.271 540.753C139.38 541.267 138.477 541.759 137.601 542.3C135.669 543.499 134.285 543.027 133.135 541.096C131.559 538.449 127.895 537.298 124.994 538.516C123.57 539.111 122.203 539.837 120.912 540.682C118.15 542.502 115.391 542.26 112.704 540.712C112.208 540.38 111.639 540.172 111.046 540.106C110.453 540.04 109.853 540.118 109.296 540.333C97.7372 544.774 85.8255 548.438 75.5065 555.643C73.764 556.863 72.3063 558.298 71.5642 560.253C70.2673 563.529 68.3345 566.516 65.8773 569.042C63.9088 571.104 62.6432 573.737 62.2618 576.563C61.9616 578.776 61.224 580.908 60.092 582.834C58.9505 584.776 58.0781 586.711 58.1896 589.105C58.2833 591.088 56.6101 592.274 55.1827 593.329C54.0893 594.16 52.8583 594.793 51.5459 595.197C45.9718 596.806 43.9436 601.481 41.9887 606.149C40.0704 610.737 40.1728 615.666 40.0503 620.536C39.9223 625.467 38.3929 629.278 33.4097 631.633C26.4435 634.924 24.8396 643.636 29.5451 649.821C30.9793 651.73 32.1469 653.825 33.0157 656.049C33.9962 658.488 36.7271 659.453 39.0143 659.938C44.8307 661.176 50.2217 663.581 55.7651 665.529C61.8145 667.655 67.7439 670.045 74.0909 671.256C76.7184 671.777 79.4454 671.29 81.7305 669.892C86.0554 667.395 90.4617 667.868 94.8062 669.612C96.2284 670.163 97.7228 670.507 99.243 670.632C103.986 671.112 108.752 671.086 113.452 672.387C116.053 673.107 119.054 672.431 121.873 672.324C128.379 672.083 133.856 669.278 138.797 665.297C141.168 663.479 143.821 662.062 146.649 661.102C150.077 659.768 153.359 658.086 156.443 656.083C161.52 652.872 166.59 649.702 172.26 647.622C174.661 646.74 176.472 645.012 178.259 643.303C181.114 640.574 183.985 637.883 187.57 636.11C189.32 635.243 189.833 633.663 190.059 631.894C190.674 627.055 191.97 622.542 195.58 618.931C197.999 616.507 198.532 613.664 196.854 610.469C195.941 608.734 196.22 606.625 195.325 604.808C193.352 600.895 190.52 597.479 187.043 594.814C186.508 594.392 185.946 594.117 185.874 593.273C185.563 589.669 184.267 588.494 180.727 588.863C178.05 589.143 175.458 588.841 172.819 588.476C168.485 587.872 164.23 588.648 160.19 590.107C157.782 590.97 155.297 591.601 152.769 591.993C148.118 592.742 143.507 593.735 138.874 594.599C137.785 594.83 136.77 595.325 135.917 596.039C134.904 596.826 133.61 597.074 132.58 596.225C131.564 595.392 132.284 594.252 132.724 593.399C135.396 588.144 139.863 584.021 145.314 581.776C152.435 578.835 156.53 573.264 160.042 567.026C161.82 563.861 161.316 560.345 160.072 557.049C159.519 555.538 159.438 553.895 159.84 552.337C160.422 549.312 160.787 546.249 160.933 543.172C161.013 542.294 160.764 541.418 160.235 540.713C159.707 540.008 158.935 539.524 158.07 539.355C152.015 537.981 145.925 536.741 140.271 540.753Z" fill="#303E10"/>
<defs>
<clipPath id="clip0_751_22">
<rect width="169" height="141" fill="white" transform="translate(177 446) rotate(-90)"/>
</clipPath>
</defs>
</svg>
