<svg width="186" height="34" viewBox="0 0 186 34" fill="none" xmlns="http://www.w3.org/2000/svg">
<path d="M33.8295 26.779C32.499 26.779 31.3315 26.4577 30.3274 25.8154C29.3295 25.1728 28.549 24.2741 27.9862 23.1189C27.4296 21.9638 27.1514 20.614 27.1514 19.0695C27.1514 17.512 27.4296 16.1524 27.9862 14.9908C28.549 13.8292 29.3295 12.9272 30.3274 12.2847C31.3315 11.6422 32.499 11.321 33.8295 11.321C35.16 11.321 36.3241 11.6422 37.3219 12.2847C38.3261 12.9272 39.1066 13.8292 39.6631 14.9908C40.226 16.1524 40.5074 17.512 40.5074 19.0695C40.5074 20.614 40.226 21.9638 39.6631 23.1189C39.1066 24.2741 38.3261 25.1728 37.3219 25.8154C36.3241 26.4577 35.16 26.779 33.8295 26.779ZM33.8295 24.7153C34.8402 24.7153 35.6716 24.4525 36.3241 23.9269C36.9765 23.4012 37.4594 22.7101 37.7729 21.8535C38.0862 20.9969 38.243 20.0689 38.243 19.0695C38.243 18.0701 38.0862 17.1388 37.7729 16.2758C37.4594 15.4127 36.9765 14.715 36.3241 14.1829C35.6716 13.6507 34.8402 13.3847 33.8295 13.3847C32.8188 13.3847 31.9871 13.6507 31.3347 14.1829C30.6822 14.715 30.1994 15.4127 29.8861 16.2758C29.5725 17.1388 29.4157 18.0701 29.4157 19.0695C29.4157 20.0689 29.5725 20.9969 29.8861 21.8535C30.1994 22.7101 30.6822 23.4012 31.3347 23.9269C31.9871 24.4525 32.8188 24.7153 33.8295 24.7153ZM45.4178 17.4731V26.4675H43.1534V11.5157H45.341V13.8519H45.533C45.8782 13.0926 46.4029 12.4826 47.1065 12.0219C47.8099 11.5546 48.7184 11.321 49.8313 11.321C50.8292 11.321 51.7024 11.5287 52.4507 11.944C53.1991 12.3528 53.7813 12.9758 54.197 13.813C54.6127 14.6436 54.8207 15.6949 54.8207 16.9669V26.4675H52.5563V17.1226C52.5563 15.948 52.2556 15.033 51.6543 14.3776C51.0531 13.7156 50.2279 13.3847 49.1788 13.3847C48.4561 13.3847 47.8099 13.5437 47.2408 13.8617C46.6777 14.1796 46.2333 14.6436 45.9072 15.2536C45.5808 15.8637 45.4178 16.6035 45.4178 17.4731ZM68.5869 14.8643L66.5529 15.4483C66.4249 15.1044 66.2362 14.7702 65.9867 14.4457C65.7437 14.1147 65.4111 13.8422 64.9888 13.628C64.5668 13.4139 64.0262 13.3068 63.3675 13.3068C62.4655 13.3068 61.7138 13.5177 61.1126 13.9395C60.5178 14.3549 60.2202 14.8837 60.2202 15.5262C60.2202 16.0973 60.4251 16.5483 60.8343 16.8793C61.2437 17.2102 61.8834 17.486 62.7532 17.7067L64.941 18.2518C66.2587 18.5763 67.2404 19.0727 67.8866 19.7411C68.5325 20.4031 68.8557 21.2565 68.8557 22.3013C68.8557 23.1579 68.6125 23.9236 68.1264 24.5986C67.6467 25.2735 66.9749 25.8056 66.1116 26.195C65.248 26.5844 64.2436 26.779 63.0986 26.779C61.5957 26.779 60.3514 26.4482 59.3663 25.7862C58.3813 25.1243 57.7575 24.1573 57.4955 22.8853L59.6446 22.3402C59.8492 23.1449 60.2362 23.7484 60.8055 24.1508C61.3812 24.553 62.1329 24.7542 63.0605 24.7542C64.1158 24.7542 64.9538 24.5271 65.5741 24.0729C66.201 23.6121 66.5145 23.0605 66.5145 22.4181C66.5145 21.8989 66.3353 21.4641 65.9773 21.1137C65.6191 20.7568 65.0688 20.4907 64.327 20.3155L61.8706 19.7314C60.521 19.4069 59.5294 18.904 58.8963 18.2226C58.2694 17.5347 57.9559 16.6749 57.9559 15.643C57.9559 14.7994 58.1895 14.0531 58.6564 13.4041C59.1296 12.7552 59.7726 12.2458 60.585 11.8759C61.4036 11.506 62.3312 11.321 63.3675 11.321C64.8258 11.321 65.9708 11.6455 66.8022 12.2944C67.6402 12.9434 68.2351 13.8 68.5869 14.8643ZM77.6327 26.779C76.2126 26.779 74.9877 26.4612 73.9579 25.825C72.9344 25.1826 72.1445 24.287 71.588 23.1384C71.0379 21.9833 70.7628 20.6399 70.7628 19.1084C70.7628 17.5769 71.0379 16.2271 71.588 15.059C72.1445 13.8844 72.9185 12.9694 73.9098 12.3139C74.9077 11.652 76.0718 11.321 77.4023 11.321C78.17 11.321 78.928 11.4508 79.6763 11.7104C80.4247 11.97 81.1059 12.3918 81.7201 12.9758C82.3342 13.5534 82.8233 14.3192 83.1881 15.2731C83.5526 16.2271 83.735 17.4017 83.735 18.7969V19.7704H72.3747V17.7846H81.4322C81.4322 16.9409 81.2658 16.1881 80.9331 15.5262C80.607 14.8643 80.1401 14.3419 79.5324 13.959C78.9311 13.5761 78.2212 13.3847 77.4023 13.3847C76.5005 13.3847 75.7201 13.6118 75.0613 14.0661C74.4089 14.5139 73.9067 15.0979 73.5547 15.8182C73.203 16.5386 73.0272 17.3108 73.0272 18.135V19.4588C73.0272 20.588 73.219 21.5452 73.6028 22.3305C73.9929 23.1092 74.5335 23.703 75.2244 24.1118C75.9153 24.5141 76.718 24.7153 77.6327 24.7153C78.2275 24.7153 78.7649 24.631 79.2447 24.4623C79.7307 24.287 80.1498 24.0275 80.5015 23.6835C80.8532 23.3331 81.1252 22.8983 81.317 22.3791L83.5048 23.0021C83.2743 23.7549 82.8874 24.4168 82.3436 24.988C81.8001 25.5524 81.1283 25.9938 80.3288 26.3117C79.5292 26.6234 78.6306 26.779 77.6327 26.779ZM92.7782 11.5157V13.4626H85.1409V11.5157H92.7782ZM87.3668 7.93349H89.6312V22.1844C89.6312 22.8334 89.7239 23.3201 89.9095 23.6446C90.1013 23.9626 90.3443 24.1767 90.6385 24.287C90.9392 24.3909 91.2559 24.4428 91.5885 24.4428C91.8378 24.4428 92.0427 24.4298 92.2026 24.4039C92.3625 24.3714 92.4903 24.3455 92.5864 24.326L93.0468 26.3896C92.8934 26.4482 92.6792 26.5065 92.404 26.5648C92.1289 26.6298 91.7803 26.6621 91.3581 26.6621C90.7184 26.6621 90.0916 26.5227 89.4776 26.2435C88.87 25.9646 88.3647 25.5394 87.9615 24.9684C87.5651 24.3974 87.3668 23.677 87.3668 22.8074V7.93349ZM108.15 26.779C106.768 26.779 105.578 26.4482 104.58 25.7862C103.582 25.1243 102.815 24.2124 102.277 23.0508C101.74 21.8892 101.471 20.5621 101.471 19.0695C101.471 17.5509 101.747 16.2108 102.297 15.0492C102.853 13.8811 103.627 12.9694 104.619 12.3139C105.617 11.652 106.781 11.321 108.111 11.321C109.147 11.321 110.081 11.5157 110.913 11.9051C111.744 12.2944 112.426 12.8396 112.957 13.5404C113.487 14.2413 113.817 15.059 113.945 15.9935H111.68C111.508 15.312 111.124 14.7085 110.529 14.1829C109.94 13.6507 109.147 13.3847 108.15 13.3847C107.267 13.3847 106.493 13.6183 105.827 14.0855C105.169 14.5463 104.654 15.1985 104.283 16.0421C103.918 16.8793 103.736 17.8624 103.736 18.9916C103.736 20.1467 103.915 21.1526 104.273 22.0092C104.638 22.8659 105.15 23.531 105.808 24.0047C106.474 24.4785 107.254 24.7153 108.15 24.7153C108.738 24.7153 109.272 24.6116 109.752 24.4039C110.232 24.1962 110.638 23.8977 110.97 23.5083C111.303 23.1189 111.54 22.6517 111.68 22.1066H113.945C113.817 22.9892 113.5 23.7841 112.995 24.4915C112.496 25.1924 111.834 25.7504 111.009 26.1658C110.19 26.5746 109.237 26.779 108.15 26.779ZM120.781 26.818C119.847 26.818 119 26.6396 118.239 26.2825C117.477 25.9191 116.873 25.3968 116.425 24.7153C115.977 24.0275 115.754 23.1968 115.754 22.2234C115.754 21.3668 115.92 20.6724 116.252 20.1402C116.585 19.6016 117.03 19.1798 117.586 18.8748C118.143 18.5698 118.757 18.3427 119.428 18.1934C120.106 18.0376 120.788 17.9143 121.472 17.8235C122.368 17.7067 123.094 17.6191 123.65 17.5607C124.213 17.4958 124.622 17.3887 124.878 17.2394C125.141 17.0902 125.272 16.8306 125.272 16.4607V16.3828C125.272 15.4224 125.012 14.6761 124.494 14.1439C123.983 13.6118 123.205 13.3457 122.163 13.3457C121.082 13.3457 120.234 13.5858 119.62 14.0661C119.006 14.5463 118.574 15.059 118.325 15.6041L116.176 14.8253C116.559 13.9168 117.071 13.2094 117.711 12.7033C118.357 12.1906 119.06 11.8337 119.822 11.6325C120.589 11.4248 121.344 11.321 122.086 11.321C122.559 11.321 123.103 11.3794 123.717 11.4962C124.338 11.6065 124.936 11.8369 125.512 12.1874C126.093 12.5378 126.577 13.0667 126.96 13.774C127.344 14.4814 127.536 15.4289 127.536 16.6165V26.4675H125.272V24.4428H125.156C125.003 24.7672 124.747 25.1145 124.389 25.4843C124.031 25.8544 123.554 26.169 122.959 26.4286C122.364 26.6881 121.638 26.818 120.781 26.818ZM121.127 24.7542C122.022 24.7542 122.777 24.5758 123.391 24.2189C124.011 23.862 124.478 23.4012 124.792 22.8366C125.112 22.2721 125.272 21.6783 125.272 21.0553V18.9527C125.176 19.0695 124.965 19.1766 124.638 19.2739C124.318 19.3648 123.947 19.4459 123.525 19.5172C123.109 19.5821 122.703 19.6406 122.307 19.6925C121.917 19.7379 121.6 19.7768 121.357 19.8093C120.768 19.8872 120.218 20.0137 119.707 20.1889C119.201 20.3576 118.792 20.614 118.479 20.9579C118.171 21.2954 118.018 21.7561 118.018 22.3402C118.018 23.1384 118.309 23.7419 118.891 24.1508C119.48 24.553 120.225 24.7542 121.127 24.7542ZM130.858 26.4675V11.5157H133.046V13.774H133.199C133.468 13.0342 133.954 12.4339 134.658 11.9732C135.362 11.5124 136.155 11.2821 137.037 11.2821C137.204 11.2821 137.412 11.2853 137.661 11.2918C137.911 11.2983 138.099 11.308 138.227 11.321V13.6572C138.15 13.6378 137.975 13.6086 137.699 13.5696C137.431 13.5242 137.146 13.5015 136.845 13.5015C136.129 13.5015 135.489 13.654 134.927 13.959C134.37 14.2575 133.929 14.6728 133.603 15.205C133.283 15.7306 133.123 16.3309 133.123 17.0058V26.4675H130.858ZM140.408 26.4675V6.53174H142.672V13.8909H142.864C143.03 13.6313 143.261 13.3003 143.555 12.898C143.855 12.4891 144.284 12.1257 144.841 11.8077C145.403 11.4832 146.165 11.321 147.124 11.321C148.365 11.321 149.459 11.6358 150.406 12.2652C151.352 12.8947 152.091 13.787 152.622 14.9422C153.153 16.0973 153.418 17.4601 153.418 19.0305C153.418 20.614 153.153 21.9865 152.622 23.1481C152.091 24.3033 151.355 25.1988 150.415 25.8348C149.475 26.4643 148.391 26.779 147.162 26.779C146.216 26.779 145.458 26.62 144.888 26.3021C144.319 25.9776 143.881 25.611 143.574 25.202C143.267 24.7868 143.03 24.4428 142.864 24.1702H142.595V26.4675H140.408ZM142.634 18.9916C142.634 20.1208 142.797 21.1169 143.123 21.98C143.449 22.8366 143.926 23.5083 144.553 23.995C145.179 24.4753 145.947 24.7153 146.855 24.7153C147.802 24.7153 148.592 24.4623 149.225 23.9561C149.865 23.4434 150.345 22.7555 150.665 21.8924C150.991 21.0228 151.154 20.0559 151.154 18.9916C151.154 17.9403 150.994 16.9928 150.674 16.1492C150.361 15.2991 149.884 14.6274 149.245 14.1342C148.611 13.6345 147.815 13.3847 146.855 13.3847C145.934 13.3847 145.16 13.6215 144.534 14.0953C143.907 14.5625 143.433 15.218 143.113 16.0616C142.794 16.8988 142.634 17.8754 142.634 18.9916ZM162.059 26.779C160.728 26.779 159.561 26.4577 158.557 25.8154C157.559 25.1728 156.778 24.2741 156.215 23.1189C155.659 21.9638 155.381 20.614 155.381 19.0695C155.381 17.512 155.659 16.1524 156.215 14.9908C156.778 13.8292 157.559 12.9272 158.557 12.2847C159.561 11.6422 160.728 11.321 162.059 11.321C163.389 11.321 164.553 11.6422 165.551 12.2847C166.555 12.9272 167.336 13.8292 167.892 14.9908C168.455 16.1524 168.737 17.512 168.737 19.0695C168.737 20.614 168.455 21.9638 167.892 23.1189C167.336 24.2741 166.555 25.1728 165.551 25.8154C164.553 26.4577 163.389 26.779 162.059 26.779ZM162.059 24.7153C163.069 24.7153 163.901 24.4525 164.553 23.9269C165.206 23.4012 165.689 22.7101 166.002 21.8535C166.316 20.9969 166.472 20.0689 166.472 19.0695C166.472 18.0701 166.316 17.1388 166.002 16.2758C165.689 15.4127 165.206 14.715 164.553 14.1829C163.901 13.6507 163.069 13.3847 162.059 13.3847C161.048 13.3847 160.216 13.6507 159.564 14.1829C158.912 14.715 158.428 15.4127 158.115 16.2758C157.802 17.1388 157.645 18.0701 157.645 19.0695C157.645 20.0689 157.802 20.9969 158.115 21.8535C158.428 22.7101 158.912 23.4012 159.564 23.9269C160.216 24.4525 161.048 24.7153 162.059 24.7153ZM173.647 17.4731V26.4675H171.383V11.5157H173.57V13.8519H173.762C174.108 13.0926 174.632 12.4826 175.336 12.0219C176.039 11.5546 176.948 11.321 178.06 11.321C179.058 11.321 179.932 11.5287 180.68 11.944C181.428 12.3528 182.01 12.9758 182.426 13.813C182.842 14.6436 183.05 15.6949 183.05 16.9669V26.4675H180.785V17.1226C180.785 15.948 180.485 15.033 179.883 14.3776C179.282 13.7156 178.457 13.3847 177.408 13.3847C176.685 13.3847 176.039 13.5437 175.47 13.8617C174.907 14.1796 174.462 14.6436 174.136 15.2536C173.81 15.8637 173.647 16.6035 173.647 17.4731Z" fill="#1E715D"/>
<path d="M19.5407 9.99902L18.2883 10.402C16.142 11.1219 13.85 11.3428 11.5986 11.0468C9.23277 10.6923 6.81127 11.0073 4.627 11.9535C3.46907 12.4294 2.45283 13.1774 1.67085 14.1293C0.888872 15.0813 0.365976 16.2069 0.149766 17.4037C-0.0701643 18.5547 -0.0476668 19.7366 0.215916 20.879C0.479498 22.0213 0.978766 23.1008 1.68393 24.0528C1.62131 24.2644 1.55869 24.4759 1.50651 24.6876C1.08262 26.4273 0.872444 28.2095 0.880319 29.9968H2.96762C3.06571 28.5337 3.27147 27.0794 3.58337 25.6446C5.03135 26.3994 6.65518 26.7844 8.30065 26.7628C9.83532 26.7618 11.3542 26.4638 12.7675 25.8865C20.7096 22.6122 19.666 11.7217 19.666 11.2684L19.5407 9.99902ZM11.9534 24.0327C9.22949 25.151 5.97331 24.9596 4.14693 23.5793C4.45562 22.583 4.87922 21.6233 5.40975 20.7182C5.82219 20.0668 6.30878 19.4619 6.8604 18.9149C7.42411 18.362 8.05895 17.8812 8.74942 17.4843C10.1762 16.6608 11.7585 16.1197 13.4041 15.8926V14.8851C11.5107 14.8218 9.62888 15.1948 7.91449 15.9731C6.1616 16.7988 4.67505 18.0701 3.61468 19.6503C3.2214 20.2538 2.87266 20.8834 2.57103 21.5342C2.08732 20.3397 1.95021 19.0406 2.17444 17.7765C2.32136 16.8915 2.6993 16.0571 3.27261 15.3521C3.84595 14.6471 4.59579 14.0946 5.45149 13.7467C6.69929 13.1837 8.06085 12.8947 9.43822 12.9005C10.0853 12.9005 10.7219 12.9609 11.3898 13.0113C13.4816 13.2718 15.6055 13.1522 17.6517 12.6587C17.5787 15.4392 17.0569 21.9372 11.9534 24.0327Z" fill="#1E715D"/>
</svg>
